<?xml version="1.0" encoding="UTF-8"?>
<svg id="Layer_2" data-name="Layer 2" xmlns="http://www.w3.org/2000/svg" viewBox="0 0 238.47 53.64">
  <defs>
    <style>
      .cls-1 {
        fill: #e0e0e0;
      }

      .cls-2 {
        font-family: Poppins-Medium, Poppins;
        font-size: 15.81px;
        font-weight: 500;
      }
    </style>
  </defs>
  <g id="Layer_1-2" data-name="Layer 1">
    <g>
      <path d="M223.77,6.2H18.65c-8.12,0-14.7,6.58-14.7,14.7v5.51c0,4.61,2.12,8.72,5.44,11.41l-4.13,15.81,18.1-12.52h200.41c8.12,0,14.7-6.58,14.7-14.7v-5.51c0-8.12-6.58-14.7-14.7-14.7Z"/>
      <path class="cls-1" d="M219.82,0H14.7C6.58,0,0,6.58,0,14.7v5.51c0,4.61,2.12,8.72,5.44,11.41l-4.13,15.81,18.1-12.52h200.41c8.12,0,14.7-6.58,14.7-14.7v-5.51c0-8.12-6.58-14.7-14.7-14.7Z"/>
      <text class="cls-2" transform="translate(23.29 23.68)"><tspan x="0" y="0">Dari pantai ke gunung? </tspan></text>
    </g>
  </g>
</svg>