<?xml version="1.0" encoding="UTF-8"?>
<svg id="Layer_2" data-name="Layer 2" xmlns="http://www.w3.org/2000/svg" viewBox="0 0 408.48 141.84">
  <defs>
    <style>
      .cls-1 {
        font-size: 44.75px;
      }

      .cls-1, .cls-2 {
        font-family: Poppins-Medium, Poppins;
        font-weight: 500;
      }

      .cls-2 {
        font-size: 26.85px;
      }

      .cls-3 {
        fill: none;
        stroke: #000;
        stroke-miterlimit: 10;
        stroke-width: 3px;
      }
    </style>
  </defs>
  <g id="Layer_1-2" data-name="Layer 1">
    <g>
      <path class="cls-3" d="M363.32,8.8c11.67,16.36,26.28,31.36,38,47.57,7.18,9.93,7.79,18.87.33,29.01-12.64,17.17-28.35,33.61-41.63,50.35-4.35,3.39-9.21,4.19-14.5,4.62l-320.87-.39c-13.15-.47-21.2-7.89-22.35-21.06C-.42,88.02,4.88,52.71,2.88,21.37,4.27,9.41,12.03,2.62,23.73,1.5l324.36.47c5.75.5,11.26,2.37,15.23,6.83ZM349.94,66.81c-4.39,9.49,7.33,19.3,15.4,13.78,16.89-11.55-7.55-30.75-15.4-13.78Z"/>
      <text class="cls-2" transform="translate(51.28 50.03)"><tspan x="0" y="0">Wedding</tspan></text>
      <text class="cls-1" transform="translate(49.79 104.49)"><tspan x="0" y="0">Rp6.000.000</tspan></text>
    </g>
  </g>
</svg>