<?xml version="1.0" encoding="UTF-8"?>
<svg id="Layer_2" data-name="Layer 2" xmlns="http://www.w3.org/2000/svg" viewBox="0 0 176.81 156.34">
  <defs>
    <style>
      .cls-1 {
        font-size: 26.03px;
      }

      .cls-2 {
        font-size: 38.63px;
      }

      .cls-3 {
        fill: #fff;
        font-family: Poppins-SemiBold, Poppins;
        font-weight: 600;
      }

      .cls-4 {
        fill: #0e5e8e;
      }
    </style>
  </defs>
  <g id="Layer_1-2" data-name="Layer 1">
    <g>
      <path class="cls-4" d="M99.92,6.78l4.34-2.38c4.84-2.65,10.91-.9,13.58,3.92l2.02,3.63c.62,1.11,1.89,1.67,3.13,1.37l4.91-1.18c5.55-1.34,11.09,2.22,12.19,7.82l.56,2.87c.26,1.31,1.4,2.26,2.73,2.28l4.39.06c6.03.08,10.62,5.43,9.79,11.4l-.22,1.58c-.2,1.41.69,2.75,2.07,3.12l3.04.8c6.17,1.63,9.27,8.53,6.38,14.22l-.26.51c-.69,1.35-.18,3,1.15,3.74l1.49.83c5.81,3.23,6.92,11.12,2.23,15.83l-.13.13c-1.11,1.11-1.09,2.91.03,4.01l.43.42c4.83,4.71,3.72,12.75-2.2,15.98l-.52.29c-1.38.75-1.88,2.48-1.11,3.85l.09.16c3.24,5.8.04,13.1-6.42,14.64l-1.66.4c-1.47.35-2.41,1.81-2.11,3.29l.11.56c1.24,6.26-3.61,12.07-9.99,11.97l-3.14-.05c-1.43-.02-2.65,1.03-2.84,2.44l-.22,1.59c-.81,5.98-6.68,9.89-12.51,8.34l-4.25-1.13c-1.29-.34-2.64.27-3.25,1.46l-1.31,2.61c-2.57,5.1-8.86,7.03-13.84,4.24l-4.41-2.47c-1.11-.62-2.49-.42-3.38.48l-2.92,2.95c-3.88,3.92-10.2,3.97-14.14.11l-3.53-3.46c-.89-.87-2.24-1.06-3.33-.46l-4.34,2.38c-4.84,2.65-10.91.9-13.58-3.92l-2.02-3.63c-.62-1.11-1.89-1.67-3.13-1.37l-4.91,1.18c-5.55,1.34-11.09-2.22-12.19-7.82l-.56-2.87c-.26-1.31-1.4-2.26-2.73-2.28l-4.39-.06c-6.03-.08-10.62-5.43-9.79-11.4l.22-1.58c.2-1.41-.69-2.75-2.07-3.12l-3.04-.8c-6.17-1.63-9.27-8.53-6.38-14.22l.26-.51c.69-1.35.18-3-1.15-3.74l-1.49-.83c-5.81-3.23-6.92-11.12-2.23-15.83l.13-.13c1.11-1.11,1.09-2.91-.03-4.01l-.43-.42c-4.83-4.71-3.72-12.75,2.2-15.98l.52-.29c1.38-.75,1.88-2.48,1.11-3.85l-.09-.16c-3.24-5.8-.04-13.1,6.42-14.64l1.66-.4c1.47-.35,2.41-1.81,2.11-3.29l-.11-.56c-1.24-6.26,3.61-12.07,9.99-11.97l3.14.05c1.43.02,2.65-1.03,2.84-2.44l.22-1.59c.81-5.98,6.68-9.89,12.51-8.34l4.25,1.13c1.29.34,2.64-.27,3.25-1.46l1.31-2.61c2.57-5.1,8.86-7.03,13.84-4.24l4.41,2.47c1.11.62,2.49.42,3.38-.48l2.92-2.95c3.88-3.92,10.2-3.97,14.14-.11l3.53,3.46c.89.87,2.24,1.06,3.33.46Z"/>
      <text class="cls-3" transform="translate(39.76 56) rotate(7.83)"><tspan class="cls-1"><tspan x="0" y="0">KHUSUS</tspan></tspan><tspan class="cls-2"><tspan x="-10.81" y="31.14">BULAN</tspan></tspan><tspan class="cls-1"><tspan x="30.55" y="53.38">INI!</tspan></tspan></text>
    </g>
  </g>
</svg>