<?xml version="1.0" encoding="UTF-8"?>
<svg id="Layer_2" data-name="Layer 2" xmlns="http://www.w3.org/2000/svg" viewBox="0 0 171.49 147.45">
  <defs>
    <style>
      .cls-1 {
        fill: #871717;
      }

      .cls-2 {
        fill: #fff;
        font-family: Poppins-SemiBold, Poppins;
        font-size: 38.39px;
        font-weight: 600;
      }
    </style>
  </defs>
  <g id="Layer_1-2" data-name="Layer 1">
    <g>
      <path class="cls-1" d="M96.28,7.16l5.77-3.06c3.94-2.09,8.83-.68,11.05,3.19l2.81,4.9c.51.89,1.54,1.34,2.54,1.11l6.57-1.51c4.53-1.04,9.03,1.85,9.96,6.4l.88,4.28c.22,1.07,1.15,1.84,2.24,1.86l6.16.1c4.96.08,8.73,4.49,8.05,9.41l-.42,3.01c-.16,1.17.58,2.28,1.72,2.57l4.77,1.24c5.14,1.34,7.7,7.1,5.26,11.81l-.95,1.83c-.58,1.13-.16,2.51.95,3.12l3.04,1.65c4.89,2.66,5.81,9.29,1.83,13.18l-1.26,1.23c-.94.92-.93,2.45.02,3.35l1.65,1.56c4.11,3.89,3.18,10.67-1.83,13.31l-2.01,1.06c-1.17.62-1.59,2.08-.93,3.22l.88,1.52c2.78,4.82.11,10.96-5.32,12.2l-3.37.77c-1.24.28-2.02,1.5-1.76,2.74l.42,2.02c1.08,5.2-2.95,10.05-8.25,9.95l-4.93-.09c-1.18-.02-2.19.84-2.35,2.01l-.41,3.01c-.67,4.92-5.49,8.14-10.29,6.88l-5.96-1.56c-1.05-.28-2.16.22-2.66,1.19l-2,3.88c-2.13,4.13-7.24,5.7-11.32,3.47l-5.92-3.23c-.9-.49-2.01-.34-2.75.38l-4.03,3.96c-3.18,3.12-8.27,3.16-11.5.09l-4.73-4.51c-.73-.69-1.81-.84-2.7-.37l-5.77,3.06c-3.94,2.09-8.83.68-11.05-3.19l-2.81-4.9c-.51-.89-1.54-1.34-2.54-1.11l-6.57,1.51c-4.53,1.04-9.03-1.85-9.96-6.4l-.88-4.28c-.22-1.07-1.15-1.84-2.24-1.86l-6.16-.1c-4.96-.08-8.73-4.49-8.05-9.41l.42-3.01c.16-1.17-.58-2.28-1.72-2.57l-4.77-1.24c-5.14-1.34-7.7-7.1-5.26-11.81l.95-1.83c.58-1.13.16-2.51-.95-3.12l-3.04-1.65c-4.89-2.66-5.81-9.29-1.83-13.18l1.26-1.23c.94-.92.93-2.45-.02-3.35l-1.65-1.56c-4.11-3.89-3.18-10.67,1.83-13.31l2.01-1.06c1.17-.62,1.59-2.08.93-3.22l-.88-1.52c-2.78-4.82-.11-10.96,5.32-12.2l3.37-.77c1.24-.28,2.02-1.5,1.76-2.74l-.42-2.02c-1.08-5.2,2.95-10.05,8.25-9.95l4.93.09c1.18.02,2.19-.84,2.35-2.01l.41-3.01c.67-4.92,5.49-8.14,10.29-6.88l5.96,1.56c1.05.28,2.16-.22,2.66-1.19l2-3.88c2.13-4.13,7.24-5.7,11.32-3.47l5.92,3.23c.9.49,2.01.34,2.75-.38l4.03-3.96c3.18-3.12,8.27-3.16,11.5-.09l4.73,4.51c.73.69,1.81.84,2.7.37Z"/>
      <text class="cls-2" transform="translate(30.16 77.9) rotate(7.83) scale(1.03 1)"><tspan x="0" y="0">All in!</tspan></text>
    </g>
  </g>
</svg>