<?xml version="1.0" encoding="UTF-8"?>
<svg id="Layer_2" data-name="Layer 2" xmlns="http://www.w3.org/2000/svg" viewBox="0 0 163.58 143.99">
  <defs>
    <style>
      .cls-1 {
        font-family: Poppins-SemiBold, Poppins;
        font-size: 37.97px;
        font-weight: 600;
      }

      .cls-2 {
        fill: #f4c551;
      }
    </style>
  </defs>
  <g id="Layer_1-2" data-name="Layer 1">
    <g>
      <path class="cls-2" d="M75.74,5.8l3.66-3.42c3.55-3.32,9.13-3.15,12.47.39l2.94,3.11c.77.81,1.98,1.01,2.97.49l4.53-2.4c4.45-2.35,9.96-.52,12.12,4.03l1.36,2.86c.5,1.06,1.69,1.63,2.83,1.35l4.43-1.07c5.17-1.25,10.27,2.32,10.86,7.61l.22,1.98c.14,1.25,1.19,2.2,2.45,2.21l3.45.03c5.63.04,9.79,5.27,8.56,10.76l-.24,1.07c-.29,1.31.5,2.61,1.8,2.95l2.1.55c5.67,1.49,8.34,7.99,5.36,13.04l-.39.67c-.7,1.19-.3,2.73.9,3.42l1.01.58c5.16,2.97,5.97,10.08,1.61,14.13l-.86.8c-1.01.94-1.06,2.53-.11,3.54l.53.56c4.04,4.25,2.89,11.18-2.29,13.91l-1.93,1.01c-1.18.62-1.66,2.07-1.09,3.28l.47.99c2.43,5.08-.45,11.1-5.92,12.41l-3.36.8c-1.22.29-2.04,1.45-1.89,2.71l.23,1.98c.61,5.28-3.55,9.91-8.87,9.85l-4.56-.05c-1.18-.01-2.2.8-2.46,1.95l-.68,3.1c-1.08,4.92-6.04,7.94-10.91,6.65l-4.95-1.32c-1.08-.29-2.22.18-2.79,1.15l-2.16,3.69c-2.46,4.2-7.85,5.62-12.06,3.18l-4.33-2.51c-.95-.55-2.15-.41-2.95.34l-3.66,3.42c-3.55,3.32-9.13,3.15-12.47-.39l-2.94-3.11c-.77-.81-1.98-1.01-2.97-.49l-4.53,2.4c-4.45,2.35-9.96.52-12.12-4.03l-1.36-2.86c-.5-1.06-1.69-1.63-2.83-1.35l-4.43,1.07c-5.17,1.25-10.27-2.32-10.86-7.61l-.22-1.98c-.14-1.25-1.19-2.2-2.45-2.21l-3.45-.03c-5.63-.04-9.79-5.27-8.56-10.76l.24-1.07c.29-1.31-.5-2.61-1.8-2.95l-2.1-.55c-5.67-1.49-8.34-7.99-5.36-13.04l.39-.67c.7-1.19.3-2.73-.9-3.42l-1.01-.58c-5.16-2.97-5.97-10.08-1.61-14.13l.86-.8c1.01-.94,1.06-2.53.11-3.54l-.53-.56c-4.04-4.25-2.89-11.18,2.29-13.91l1.93-1.01c1.18-.62,1.66-2.07,1.09-3.28l-.47-.99c-2.43-5.08.45-11.1,5.92-12.41l3.36-.8c1.22-.29,2.04-1.45,1.89-2.71l-.23-1.98c-.61-5.28,3.55-9.91,8.87-9.85l4.56.05c1.18.01,2.2-.8,2.46-1.95l.68-3.1c1.08-4.92,6.04-7.94,10.91-6.65l4.95,1.32c1.08.29,2.22-.18,2.79-1.15l2.16-3.69c2.46-4.2,7.85-5.62,12.06-3.18l4.33,2.51c.95.55,2.15.41,2.95-.34Z"/>
      <text class="cls-1" transform="translate(33.65 89.73) rotate(-6.5)"><tspan x="0" y="0">FREE!</tspan></text>
    </g>
  </g>
</svg>