<?xml version="1.0" encoding="UTF-8"?>
<svg id="Layer_2" data-name="Layer 2" xmlns="http://www.w3.org/2000/svg" viewBox="0 0 406 332">
  <defs>
    <style>
      .cls-1 {
        font-family: Poppins-Regular, Poppins;
        font-size: 36px;
      }

      .cls-2 {
        fill: #fff;
      }

      .cls-3 {
        fill: #333;
      }
    </style>
  </defs>
  <g id="Layer_1-2" data-name="Layer 1">
    <g>
      <rect class="cls-3" y="100" width="406" height="232"/>
      <rect class="cls-2" width="406" height="100"/>
      <text class="cls-1" transform="translate(39.67 69.65)"><tspan x="0" y="0">Photobooth</tspan></text>
      <g>
        <path class="cls-2" d="M27.21,126.5v4.08h-4.07v-4.07h4.07Z"/>
        <path class="cls-2" d="M48.46,121.95v1.33h-5.45v4.23h4.43v1.33h-4.43v5.65h-1.64v-12.55h7.09Z"/>
        <path class="cls-2" d="M53.32,124.92c.53-.31,1.19-.47,1.95-.47v1.69h-.43c-1.84,0-2.75,1-2.75,2.99v5.36h-1.64v-9.86h1.64v1.6c.29-.56.7-1,1.23-1.31Z"/>
        <path class="cls-2" d="M66.1,130.17h-7.88c.06.97.39,1.73,1,2.28.61.55,1.34.82,2.21.82.71,0,1.3-.17,1.77-.5s.81-.77,1-1.32h1.76c-.26.95-.79,1.72-1.58,2.31-.79.59-1.78.89-2.95.89-.94,0-1.77-.21-2.51-.63-.74-.42-1.32-1.02-1.74-1.79-.42-.77-.63-1.67-.63-2.69s.2-1.91.61-2.68.98-1.36,1.72-1.77c.74-.41,1.59-.62,2.55-.62s1.76.2,2.48.61c.72.41,1.28.97,1.67,1.68.39.71.58,1.52.58,2.42,0,.31-.02.64-.05.99ZM64.05,127.23c-.28-.45-.65-.79-1.12-1.03-.47-.23-1-.35-1.58-.35-.83,0-1.53.26-2.12.79s-.92,1.26-1,2.2h6.23c0-.62-.14-1.16-.41-1.61Z"/>
        <path class="cls-2" d="M77.26,130.17h-7.88c.06.97.39,1.73,1,2.28.61.55,1.34.82,2.21.82.71,0,1.3-.17,1.77-.5s.81-.77,1-1.32h1.76c-.26.95-.79,1.72-1.58,2.31-.79.59-1.78.89-2.95.89-.94,0-1.77-.21-2.51-.63-.74-.42-1.32-1.02-1.74-1.79-.42-.77-.63-1.67-.63-2.69s.2-1.91.61-2.68.98-1.36,1.72-1.77c.74-.41,1.59-.62,2.55-.62s1.76.2,2.48.61c.72.41,1.28.97,1.67,1.68.39.71.58,1.52.58,2.42,0,.31-.02.64-.05.99ZM75.21,127.23c-.28-.45-.65-.79-1.12-1.03-.47-.23-1-.35-1.58-.35-.83,0-1.53.26-2.12.79s-.92,1.26-1,2.2h6.23c0-.62-.14-1.16-.41-1.61Z"/>
        <path class="cls-2" d="M84.28,126.87c.41-.76.97-1.35,1.68-1.77.71-.42,1.51-.63,2.4-.63.77,0,1.48.18,2.14.53.66.35,1.16.82,1.51,1.4v-5.22h1.66v13.32h-1.66v-1.85c-.32.59-.8,1.07-1.44,1.45-.64.38-1.38.57-2.23.57s-1.67-.22-2.38-.65c-.71-.43-1.28-1.04-1.68-1.82s-.61-1.67-.61-2.66.2-1.89.61-2.66ZM91.57,127.6c-.3-.55-.71-.98-1.21-1.27s-1.07-.44-1.68-.44-1.17.14-1.67.43c-.5.29-.91.71-1.21,1.26-.3.55-.45,1.2-.45,1.94s.15,1.41.45,1.97c.3.56.7.98,1.21,1.28.5.29,1.06.44,1.67.44s1.17-.15,1.68-.44.92-.72,1.21-1.28.45-1.21.45-1.95-.15-1.39-.45-1.94Z"/>
        <path class="cls-2" d="M105.4,130.17h-7.88c.06.97.39,1.73,1,2.28.61.55,1.34.82,2.21.82.71,0,1.3-.17,1.77-.5s.81-.77,1-1.32h1.76c-.26.95-.79,1.72-1.58,2.31-.79.59-1.78.89-2.95.89-.94,0-1.77-.21-2.51-.63-.74-.42-1.32-1.02-1.74-1.79-.42-.77-.63-1.67-.63-2.69s.2-1.91.61-2.68.98-1.36,1.72-1.77c.74-.41,1.59-.62,2.55-.62s1.76.2,2.48.61c.72.41,1.28.97,1.67,1.68.39.71.58,1.52.58,2.42,0,.31-.02.64-.05.99ZM103.35,127.23c-.28-.45-.65-.79-1.12-1.03-.47-.23-1-.35-1.58-.35-.83,0-1.53.26-2.12.79s-.92,1.26-1,2.2h6.23c0-.62-.14-1.16-.41-1.61Z"/>
        <path class="cls-2" d="M109.07,134.27c-.6-.26-1.07-.62-1.42-1.08s-.54-.99-.58-1.59h1.69c.05.49.28.89.69,1.21.41.31.96.47,1.63.47.62,0,1.12-.14,1.48-.41s.54-.62.54-1.04-.19-.75-.58-.96-.98-.42-1.78-.62c-.73-.19-1.33-.39-1.79-.58-.46-.2-.86-.49-1.19-.88-.33-.39-.5-.9-.5-1.54,0-.5.15-.97.45-1.39s.73-.75,1.28-1c.55-.25,1.18-.37,1.89-.37,1.09,0,1.97.28,2.65.83.67.55,1.03,1.31,1.08,2.27h-1.64c-.04-.52-.24-.93-.62-1.24s-.88-.47-1.52-.47c-.59,0-1.06.13-1.4.38-.35.25-.52.58-.52.99,0,.32.11.59.32.8s.47.38.79.5c.32.13.76.27,1.32.42.71.19,1.28.38,1.73.57.44.19.83.46,1.14.84.32.37.48.86.49,1.46,0,.54-.15,1.03-.45,1.46-.3.43-.72.77-1.27,1.02s-1.17.37-1.88.37c-.76,0-1.43-.13-2.03-.39Z"/>
        <path class="cls-2" d="M117.06,122.7c-.22-.22-.32-.48-.32-.79s.11-.58.32-.79c.22-.22.48-.32.79-.32s.55.11.76.32.31.48.31.79-.1.58-.31.79-.46.32-.76.32-.58-.11-.79-.32ZM118.65,124.63v9.86h-1.64v-9.86h1.64Z"/>
        <path class="cls-2" d="M127.74,125.03c.64.37,1.12.84,1.43,1.4v-1.8h1.66v10.08c0,.9-.19,1.7-.58,2.4s-.93,1.25-1.65,1.65c-.71.4-1.54.59-2.49.59-1.3,0-2.38-.31-3.24-.92-.86-.61-1.37-1.45-1.53-2.5h1.62c.18.6.55,1.08,1.12,1.45.56.37,1.24.55,2.03.55.9,0,1.63-.28,2.21-.85.57-.56.85-1.36.85-2.38v-2.07c-.32.58-.8,1.06-1.44,1.44-.64.38-1.38.58-2.23.58s-1.67-.22-2.38-.65c-.71-.43-1.28-1.04-1.68-1.82s-.61-1.67-.61-2.66.2-1.89.61-2.66c.41-.76.97-1.35,1.68-1.77.71-.42,1.51-.63,2.38-.63s1.6.19,2.24.56ZM128.72,127.6c-.3-.55-.71-.98-1.21-1.27s-1.07-.44-1.68-.44-1.17.14-1.67.43c-.5.29-.91.71-1.21,1.26-.3.55-.45,1.2-.45,1.94s.15,1.41.45,1.97c.3.56.7.98,1.21,1.28.5.29,1.06.44,1.67.44s1.17-.15,1.68-.44.92-.72,1.21-1.28.45-1.21.45-1.95-.15-1.39-.45-1.94Z"/>
        <path class="cls-2" d="M141.32,125.54c.74.73,1.12,1.77,1.12,3.14v5.81h-1.62v-5.58c0-.98-.25-1.74-.74-2.26-.49-.52-1.16-.78-2.02-.78s-1.55.27-2.06.81c-.51.54-.76,1.33-.76,2.36v5.45h-1.64v-9.86h1.64v1.4c.32-.5.76-.89,1.32-1.17.56-.28,1.17-.41,1.85-.41,1.2,0,2.17.36,2.92,1.09Z"/>
        <path class="cls-2" d="M151.93,125.98v5.81c0,.48.1.82.31,1.02.2.2.56.3,1.06.3h1.21v1.39h-1.48c-.91,0-1.6-.21-2.05-.63s-.68-1.11-.68-2.07v-5.81h-1.28v-1.35h1.28v-2.48h1.64v2.48h2.57v1.35h-2.57Z"/>
        <path class="cls-2" d="M169.62,124.63l-3.08,9.86h-1.69l-2.38-7.83-2.38,7.83h-1.69l-3.1-9.86h1.67l2.27,8.28,2.45-8.28h1.67l2.39,8.3,2.23-8.3h1.62Z"/>
        <path class="cls-2" d="M171.29,122.7c-.22-.22-.32-.48-.32-.79s.11-.58.32-.79c.22-.22.48-.32.79-.32s.55.11.76.32.31.48.31.79-.1.58-.31.79-.46.32-.76.32-.58-.11-.79-.32ZM172.88,124.63v9.86h-1.64v-9.86h1.64Z"/>
        <path class="cls-2" d="M178.78,125.03c.65-.37,1.39-.56,2.21-.56.89,0,1.69.21,2.39.63.71.42,1.27,1.01,1.67,1.77.41.76.61,1.65.61,2.66s-.2,1.88-.61,2.66c-.41.78-.97,1.39-1.68,1.82-.71.43-1.51.65-2.38.65s-1.6-.19-2.24-.56c-.64-.37-1.12-.85-1.45-1.42v1.82h-1.64v-13.32h1.64v5.29c.33-.59.83-1.07,1.48-1.44ZM183.55,127.58c-.3-.55-.71-.97-1.21-1.26s-1.07-.43-1.68-.43-1.16.15-1.67.44-.92.72-1.22,1.28c-.31.56-.46,1.2-.46,1.93s.15,1.4.46,1.95c.31.56.71.98,1.22,1.28s1.06.44,1.67.44,1.17-.15,1.68-.44.92-.72,1.21-1.28.45-1.21.45-1.97-.15-1.39-.45-1.94Z"/>
        <path class="cls-2" d="M190.95,125.03c.65-.37,1.39-.56,2.21-.56.89,0,1.69.21,2.39.63.71.42,1.27,1.01,1.67,1.77.41.76.61,1.65.61,2.66s-.2,1.88-.61,2.66c-.41.78-.97,1.39-1.68,1.82-.71.43-1.51.65-2.38.65s-1.6-.19-2.24-.56c-.64-.37-1.12-.85-1.45-1.42v1.82h-1.64v-13.32h1.64v5.29c.33-.59.83-1.07,1.48-1.44ZM195.72,127.58c-.3-.55-.71-.97-1.21-1.26s-1.07-.43-1.68-.43-1.16.15-1.67.44-.92.72-1.22,1.28c-.31.56-.46,1.2-.46,1.93s.15,1.4.46,1.95c.31.56.71.98,1.22,1.28s1.06.44,1.67.44,1.17-.15,1.68-.44.92-.72,1.21-1.28.45-1.21.45-1.97-.15-1.39-.45-1.94Z"/>
        <path class="cls-2" d="M201.79,134.03c-.75-.42-1.34-1.02-1.76-1.79-.43-.77-.64-1.67-.64-2.69s.22-1.9.66-2.67c.44-.77,1.04-1.37,1.79-1.78s1.6-.62,2.54-.62,1.78.21,2.54.62,1.35,1.01,1.79,1.77.66,1.66.66,2.68-.22,1.92-.67,2.69c-.45.77-1.06,1.37-1.83,1.79-.77.42-1.62.63-2.56.63s-1.76-.21-2.51-.63ZM205.96,132.8c.52-.28.93-.69,1.25-1.24.32-.55.48-1.22.48-2.02s-.16-1.46-.47-2.02c-.31-.55-.72-.96-1.22-1.23-.5-.27-1.05-.4-1.64-.4s-1.15.13-1.65.4c-.5.27-.9.68-1.2,1.23-.3.55-.45,1.22-.45,2.02s.15,1.48.44,2.03.69.96,1.18,1.23c.49.27,1.03.4,1.62.4s1.14-.14,1.66-.41Z"/>
        <path class="cls-2" d="M219.25,125.54c.74.73,1.12,1.77,1.12,3.14v5.81h-1.62v-5.58c0-.98-.25-1.74-.74-2.26-.49-.52-1.16-.78-2.02-.78s-1.55.27-2.06.81c-.51.54-.76,1.33-.76,2.36v5.45h-1.64v-9.86h1.64v1.4c.32-.5.76-.89,1.32-1.17.56-.28,1.17-.41,1.85-.41,1.2,0,2.17.36,2.92,1.09Z"/>
        <path class="cls-2" d="M42.83,158.27c-.6-.26-1.07-.62-1.42-1.08s-.54-.99-.58-1.59h1.69c.05.49.28.89.69,1.21.41.31.96.47,1.63.47.62,0,1.12-.14,1.48-.41s.54-.62.54-1.04-.19-.75-.58-.96-.98-.42-1.78-.62c-.73-.19-1.33-.39-1.79-.58-.46-.2-.86-.49-1.19-.88-.33-.39-.5-.9-.5-1.54,0-.5.15-.97.45-1.39s.73-.75,1.28-1c.55-.25,1.18-.37,1.89-.37,1.09,0,1.97.28,2.65.83.67.55,1.03,1.31,1.08,2.27h-1.64c-.04-.52-.24-.93-.62-1.24s-.88-.47-1.52-.47c-.59,0-1.06.13-1.4.38-.35.25-.52.58-.52.99,0,.32.11.59.32.8s.47.38.79.5c.32.13.76.27,1.32.42.71.19,1.28.38,1.73.57.44.19.83.46,1.14.84.32.37.48.86.49,1.46,0,.54-.15,1.03-.45,1.46-.3.43-.72.77-1.27,1.02s-1.17.37-1.88.37c-.76,0-1.43-.13-2.03-.39Z"/>
        <path class="cls-2" d="M59.71,154.17h-7.88c.06.97.39,1.73,1,2.28.61.55,1.34.82,2.21.82.71,0,1.3-.17,1.77-.5s.81-.77,1-1.32h1.76c-.26.95-.79,1.72-1.58,2.31-.79.59-1.78.89-2.95.89-.94,0-1.77-.21-2.51-.63-.74-.42-1.32-1.02-1.74-1.79-.42-.77-.63-1.67-.63-2.69s.2-1.91.61-2.68.98-1.36,1.72-1.77c.74-.41,1.59-.62,2.55-.62s1.76.2,2.48.61c.72.41,1.28.97,1.67,1.68.39.71.58,1.52.58,2.42,0,.31-.02.64-.05.99ZM57.66,151.23c-.28-.45-.65-.79-1.12-1.03-.47-.23-1-.35-1.58-.35-.83,0-1.53.26-2.12.79s-.92,1.26-1,2.2h6.23c0-.62-.14-1.16-.41-1.61Z"/>
        <path class="cls-2" d="M63.39,158.27c-.6-.26-1.07-.62-1.42-1.08s-.54-.99-.58-1.59h1.69c.05.49.28.89.69,1.21.41.31.96.47,1.63.47.62,0,1.12-.14,1.48-.41s.54-.62.54-1.04-.19-.75-.58-.96-.98-.42-1.78-.62c-.73-.19-1.33-.39-1.79-.58-.46-.2-.86-.49-1.19-.88-.33-.39-.5-.9-.5-1.54,0-.5.15-.97.45-1.39s.73-.75,1.28-1c.55-.25,1.18-.37,1.89-.37,1.09,0,1.97.28,2.65.83.67.55,1.03,1.31,1.08,2.27h-1.64c-.04-.52-.24-.93-.62-1.24s-.88-.47-1.52-.47c-.59,0-1.06.13-1.4.38-.35.25-.52.58-.52.99,0,.32.11.59.32.8s.47.38.79.5c.32.13.76.27,1.32.42.71.19,1.28.38,1.73.57.44.19.83.46,1.14.84.32.37.48.86.49,1.46,0,.54-.15,1.03-.45,1.46-.3.43-.72.77-1.27,1.02s-1.17.37-1.88.37c-.76,0-1.43-.13-2.03-.39Z"/>
        <path class="cls-2" d="M80.07,148.63v9.86h-1.64v-1.46c-.31.5-.75.9-1.3,1.18-.56.28-1.17.42-1.85.42-.77,0-1.46-.16-2.07-.48-.61-.32-1.1-.79-1.45-1.43-.35-.64-.53-1.41-.53-2.32v-5.78h1.62v5.56c0,.97.25,1.72.74,2.24.49.52,1.16.78,2.02.78s1.57-.27,2.07-.81.76-1.33.76-2.36v-5.42h1.64Z"/>
        <path class="cls-2" d="M82.84,150.87c.41-.76.97-1.35,1.68-1.77.71-.42,1.51-.63,2.38-.63s1.61.19,2.25.56c.64.37,1.11.84,1.42,1.4v-1.8h1.66v9.86h-1.66v-1.84c-.32.58-.81,1.05-1.45,1.43s-1.39.57-2.24.57-1.67-.22-2.38-.65c-.71-.43-1.27-1.04-1.67-1.82s-.61-1.67-.61-2.66.2-1.89.61-2.66ZM90.13,151.6c-.3-.55-.71-.98-1.21-1.27s-1.07-.44-1.68-.44-1.17.14-1.67.43c-.5.29-.91.71-1.21,1.26-.3.55-.45,1.2-.45,1.94s.15,1.41.45,1.97c.3.56.7.98,1.21,1.28.5.29,1.06.44,1.67.44s1.17-.15,1.68-.44.92-.72,1.21-1.28.45-1.21.45-1.95-.15-1.39-.45-1.94Z"/>
        <path class="cls-2" d="M95.07,146.7c-.22-.22-.32-.48-.32-.79s.11-.58.32-.79c.22-.22.48-.32.79-.32s.55.11.76.32.31.48.31.79-.1.58-.31.79-.46.32-.76.32-.58-.11-.79-.32ZM96.65,148.63v9.86h-1.64v-9.86h1.64Z"/>
        <path class="cls-2" d="M106.24,149.98v5.81c0,.48.1.82.31,1.02.2.2.56.3,1.06.3h1.21v1.39h-1.48c-.91,0-1.6-.21-2.05-.63s-.68-1.11-.68-2.07v-5.81h-1.28v-1.35h1.28v-2.48h1.64v2.48h2.57v1.35h-2.57Z"/>
        <path class="cls-2" d="M119.74,154.17h-7.88c.06.97.39,1.73,1,2.28.61.55,1.34.82,2.21.82.71,0,1.3-.17,1.77-.5s.81-.77,1-1.32h1.76c-.26.95-.79,1.72-1.58,2.31-.79.59-1.78.89-2.95.89-.94,0-1.77-.21-2.51-.63-.74-.42-1.32-1.02-1.74-1.79-.42-.77-.63-1.67-.63-2.69s.2-1.91.61-2.68.98-1.36,1.72-1.77c.74-.41,1.59-.62,2.55-.62s1.76.2,2.48.61c.72.41,1.28.97,1.67,1.68.39.71.58,1.52.58,2.42,0,.31-.02.64-.05.99ZM117.69,151.23c-.28-.45-.65-.79-1.12-1.03-.47-.23-1-.35-1.58-.35-.83,0-1.53.26-2.12.79s-.92,1.26-1,2.2h6.23c0-.62-.14-1.16-.41-1.61Z"/>
        <path class="cls-2" d="M135.87,148.93c.6.32,1.07.8,1.42,1.43.35.64.52,1.41.52,2.32v5.81h-1.62v-5.58c0-.98-.24-1.74-.73-2.26-.49-.52-1.14-.78-1.97-.78s-1.53.27-2.03.82-.76,1.33-.76,2.37v5.44h-1.62v-5.58c0-.98-.24-1.74-.73-2.26-.49-.52-1.14-.78-1.97-.78s-1.53.27-2.03.82-.76,1.33-.76,2.37v5.44h-1.64v-9.86h1.64v1.42c.32-.52.76-.91,1.3-1.19s1.15-.41,1.81-.41c.83,0,1.56.19,2.2.56.64.37,1.11.92,1.42,1.64.28-.7.73-1.24,1.37-1.62s1.34-.58,2.12-.58,1.45.16,2.05.48Z"/>
        <path class="cls-2" d="M140.5,150.87c.41-.76.97-1.35,1.68-1.77.71-.42,1.51-.63,2.38-.63s1.61.19,2.25.56c.64.37,1.11.84,1.42,1.4v-1.8h1.66v9.86h-1.66v-1.84c-.32.58-.81,1.05-1.45,1.43s-1.39.57-2.24.57-1.67-.22-2.38-.65c-.71-.43-1.27-1.04-1.67-1.82s-.61-1.67-.61-2.66.2-1.89.61-2.66ZM147.79,151.6c-.3-.55-.71-.98-1.21-1.27s-1.07-.44-1.68-.44-1.17.14-1.67.43c-.5.29-.91.71-1.21,1.26-.3.55-.45,1.2-.45,1.94s.15,1.41.45,1.97c.3.56.7.98,1.21,1.28.5.29,1.06.44,1.67.44s1.17-.15,1.68-.44.92-.72,1.21-1.28.45-1.21.45-1.95-.15-1.39-.45-1.94Z"/>
        <path class="cls-2" d="M165.97,148.63l-5.94,14.51h-1.69l1.94-4.75-3.98-9.76h1.82l3.1,7.99,3.06-7.99h1.69Z"/>
        <path class="cls-2" d="M167.6,150.87c.41-.76.97-1.35,1.68-1.77.71-.42,1.51-.63,2.38-.63s1.61.19,2.25.56c.64.37,1.11.84,1.42,1.4v-1.8h1.66v9.86h-1.66v-1.84c-.32.58-.81,1.05-1.45,1.43s-1.39.57-2.24.57-1.67-.22-2.38-.65c-.71-.43-1.27-1.04-1.67-1.82s-.61-1.67-.61-2.66.2-1.89.61-2.66ZM174.89,151.6c-.3-.55-.71-.98-1.21-1.27s-1.07-.44-1.68-.44-1.17.14-1.67.43c-.5.29-.91.71-1.21,1.26-.3.55-.45,1.2-.45,1.94s.15,1.41.45,1.97c.3.56.7.98,1.21,1.28.5.29,1.06.44,1.67.44s1.17-.15,1.68-.44.92-.72,1.21-1.28.45-1.21.45-1.95-.15-1.39-.45-1.94Z"/>
        <path class="cls-2" d="M187.49,149.54c.74.73,1.12,1.77,1.12,3.14v5.81h-1.62v-5.58c0-.98-.25-1.74-.74-2.26-.49-.52-1.16-.78-2.02-.78s-1.55.27-2.06.81c-.51.54-.76,1.33-.76,2.36v5.45h-1.64v-9.86h1.64v1.4c.32-.5.76-.89,1.32-1.17.56-.28,1.17-.41,1.85-.41,1.2,0,2.17.36,2.92,1.09Z"/>
        <path class="cls-2" d="M197.6,149.03c.64.37,1.12.84,1.43,1.4v-1.8h1.66v10.08c0,.9-.19,1.7-.58,2.4s-.93,1.25-1.65,1.65c-.71.4-1.54.59-2.49.59-1.3,0-2.38-.31-3.24-.92-.86-.61-1.37-1.45-1.53-2.5h1.62c.18.6.55,1.08,1.12,1.45.56.37,1.24.55,2.03.55.9,0,1.63-.28,2.21-.85.57-.56.85-1.36.85-2.38v-2.07c-.32.58-.8,1.06-1.44,1.44-.64.38-1.38.58-2.23.58s-1.67-.22-2.38-.65c-.71-.43-1.28-1.04-1.68-1.82s-.61-1.67-.61-2.66.2-1.89.61-2.66c.41-.76.97-1.35,1.68-1.77.71-.42,1.51-.63,2.38-.63s1.6.19,2.24.56ZM198.58,151.6c-.3-.55-.71-.98-1.21-1.27s-1.07-.44-1.68-.44-1.17.14-1.67.43c-.5.29-.91.71-1.21,1.26-.3.55-.45,1.2-.45,1.94s.15,1.41.45,1.97c.3.56.7.98,1.21,1.28.5.29,1.06.44,1.67.44s1.17-.15,1.68-.44.92-.72,1.21-1.28.45-1.21.45-1.95-.15-1.39-.45-1.94Z"/>
        <path class="cls-2" d="M208.26,150.87c.41-.76.97-1.35,1.68-1.77.71-.42,1.51-.63,2.4-.63.77,0,1.48.18,2.14.53.66.35,1.16.82,1.51,1.4v-5.22h1.66v13.32h-1.66v-1.85c-.32.59-.8,1.07-1.44,1.45-.64.38-1.38.57-2.23.57s-1.67-.22-2.38-.65c-.71-.43-1.28-1.04-1.68-1.82s-.61-1.67-.61-2.66.2-1.89.61-2.66ZM215.55,151.6c-.3-.55-.71-.98-1.21-1.27s-1.07-.44-1.68-.44-1.17.14-1.67.43c-.5.29-.91.71-1.21,1.26-.3.55-.45,1.2-.45,1.94s.15,1.41.45,1.97c.3.56.7.98,1.21,1.28.5.29,1.06.44,1.67.44s1.17-.15,1.68-.44.92-.72,1.21-1.28.45-1.21.45-1.95-.15-1.39-.45-1.94Z"/>
        <path class="cls-2" d="M220.49,146.7c-.22-.22-.32-.48-.32-.79s.11-.58.32-.79c.22-.22.48-.32.79-.32s.55.11.76.32.31.48.31.79-.1.58-.31.79-.46.32-.76.32-.58-.11-.79-.32ZM222.07,148.63v9.86h-1.64v-9.86h1.64Z"/>
        <path class="cls-2" d="M224.91,146.7c-.22-.22-.32-.48-.32-.79s.11-.58.32-.79c.22-.22.48-.32.79-.32s.55.11.76.32.31.48.31.79-.1.58-.31.79-.46.32-.76.32-.58-.11-.79-.32ZM226.5,148.63v9.86h-1.64v-9.86h1.64Z"/>
        <path class="cls-2" d="M237.01,149.54c.74.73,1.12,1.77,1.12,3.14v5.81h-1.62v-5.58c0-.98-.25-1.74-.74-2.26-.49-.52-1.16-.78-2.02-.78s-1.55.27-2.06.81c-.51.54-.76,1.33-.76,2.36v5.45h-1.64v-9.86h1.64v1.4c.32-.5.76-.89,1.32-1.17.56-.28,1.17-.41,1.85-.41,1.2,0,2.17.36,2.92,1.09Z"/>
        <path class="cls-2" d="M247.12,149.03c.64.37,1.12.84,1.43,1.4v-1.8h1.66v10.08c0,.9-.19,1.7-.58,2.4s-.93,1.25-1.65,1.65c-.71.4-1.54.59-2.49.59-1.3,0-2.38-.31-3.24-.92-.86-.61-1.37-1.45-1.53-2.5h1.62c.18.6.55,1.08,1.12,1.45.56.37,1.24.55,2.03.55.9,0,1.63-.28,2.21-.85.57-.56.85-1.36.85-2.38v-2.07c-.32.58-.8,1.06-1.44,1.44-.64.38-1.38.58-2.23.58s-1.67-.22-2.38-.65c-.71-.43-1.28-1.04-1.68-1.82s-.61-1.67-.61-2.66.2-1.89.61-2.66c.41-.76.97-1.35,1.68-1.77.71-.42,1.51-.63,2.38-.63s1.6.19,2.24.56ZM248.1,151.6c-.3-.55-.71-.98-1.21-1.27s-1.07-.44-1.68-.44-1.17.14-1.67.43c-.5.29-.91.71-1.21,1.26-.3.55-.45,1.2-.45,1.94s.15,1.41.45,1.97c.3.56.7.98,1.21,1.28.5.29,1.06.44,1.67.44s1.17-.15,1.68-.44.92-.72,1.21-1.28.45-1.21.45-1.95-.15-1.39-.45-1.94Z"/>
        <path class="cls-2" d="M253.03,146.7c-.22-.22-.32-.48-.32-.79s.11-.58.32-.79c.22-.22.48-.32.79-.32s.55.11.76.32.31.48.31.79-.1.58-.31.79-.46.32-.76.32-.58-.11-.79-.32ZM254.61,148.63v9.86h-1.64v-9.86h1.64Z"/>
        <path class="cls-2" d="M265.13,149.54c.74.73,1.12,1.77,1.12,3.14v5.81h-1.62v-5.58c0-.98-.25-1.74-.74-2.26-.49-.52-1.16-.78-2.02-.78s-1.55.27-2.06.81c-.51.54-.76,1.33-.76,2.36v5.45h-1.64v-9.86h1.64v1.4c.32-.5.76-.89,1.32-1.17.56-.28,1.17-.41,1.85-.41,1.2,0,2.17.36,2.92,1.09Z"/>
        <path class="cls-2" d="M274.43,158.49l-3.87-4.36v4.36h-1.64v-13.32h1.64v7.83l3.8-4.37h2.29l-4.64,4.91,4.66,4.95h-2.23Z"/>
        <path class="cls-2" d="M278.19,150.87c.41-.76.97-1.35,1.68-1.77.71-.42,1.51-.63,2.38-.63s1.61.19,2.25.56c.64.37,1.11.84,1.42,1.4v-1.8h1.66v9.86h-1.66v-1.84c-.32.58-.81,1.05-1.45,1.43s-1.39.57-2.24.57-1.67-.22-2.38-.65c-.71-.43-1.27-1.04-1.67-1.82s-.61-1.67-.61-2.66.2-1.89.61-2.66ZM285.48,151.6c-.3-.55-.71-.98-1.21-1.27s-1.07-.44-1.68-.44-1.17.14-1.67.43c-.5.29-.91.71-1.21,1.26-.3.55-.45,1.2-.45,1.94s.15,1.41.45,1.97c.3.56.7.98,1.21,1.28.5.29,1.06.44,1.67.44s1.17-.15,1.68-.44.92-.72,1.21-1.28.45-1.21.45-1.95-.15-1.39-.45-1.94Z"/>
        <path class="cls-2" d="M298.08,149.54c.74.73,1.12,1.77,1.12,3.14v5.81h-1.62v-5.58c0-.98-.25-1.74-.74-2.26-.49-.52-1.16-.78-2.02-.78s-1.55.27-2.06.81c-.51.54-.76,1.33-.76,2.36v5.45h-1.64v-9.86h1.64v1.4c.32-.5.76-.89,1.32-1.17.56-.28,1.17-.41,1.85-.41,1.2,0,2.17.36,2.92,1.09Z"/>
        <path class="cls-2" d="M27.21,174.5v4.08h-4.07v-4.07h4.07Z"/>
        <path class="cls-2" d="M48.46,169.95v1.33h-5.45v4.23h4.43v1.33h-4.43v5.65h-1.64v-12.55h7.09Z"/>
        <path class="cls-2" d="M53.32,172.92c.53-.31,1.19-.47,1.95-.47v1.69h-.43c-1.84,0-2.75,1-2.75,2.99v5.36h-1.64v-9.86h1.64v1.6c.29-.56.7-1,1.23-1.31Z"/>
        <path class="cls-2" d="M66.1,178.17h-7.88c.06.97.39,1.73,1,2.28.61.55,1.34.82,2.21.82.71,0,1.3-.17,1.77-.5s.81-.77,1-1.32h1.76c-.26.95-.79,1.72-1.58,2.31-.79.59-1.78.89-2.95.89-.94,0-1.77-.21-2.51-.63-.74-.42-1.32-1.02-1.74-1.79-.42-.77-.63-1.67-.63-2.69s.2-1.91.61-2.68.98-1.36,1.72-1.77c.74-.41,1.59-.62,2.55-.62s1.76.2,2.48.61c.72.41,1.28.97,1.67,1.68.39.71.58,1.52.58,2.42,0,.31-.02.64-.05.99ZM64.05,175.23c-.28-.45-.65-.79-1.12-1.03-.47-.23-1-.35-1.58-.35-.83,0-1.53.26-2.12.79s-.92,1.26-1,2.2h6.23c0-.62-.14-1.16-.41-1.61Z"/>
        <path class="cls-2" d="M77.26,178.17h-7.88c.06.97.39,1.73,1,2.28.61.55,1.34.82,2.21.82.71,0,1.3-.17,1.77-.5s.81-.77,1-1.32h1.76c-.26.95-.79,1.72-1.58,2.31-.79.59-1.78.89-2.95.89-.94,0-1.77-.21-2.51-.63-.74-.42-1.32-1.02-1.74-1.79-.42-.77-.63-1.67-.63-2.69s.2-1.91.61-2.68.98-1.36,1.72-1.77c.74-.41,1.59-.62,2.55-.62s1.76.2,2.48.61c.72.41,1.28.97,1.67,1.68.39.71.58,1.52.58,2.42,0,.31-.02.64-.05.99ZM75.21,175.23c-.28-.45-.65-.79-1.12-1.03-.47-.23-1-.35-1.58-.35-.83,0-1.53.26-2.12.79s-.92,1.26-1,2.2h6.23c0-.62-.14-1.16-.41-1.61Z"/>
        <path class="cls-2" d="M85.74,182.27c-.6-.26-1.07-.62-1.42-1.08s-.54-.99-.58-1.59h1.69c.05.49.28.89.69,1.21.41.31.96.47,1.63.47.62,0,1.12-.14,1.48-.41s.54-.62.54-1.04-.19-.75-.58-.96-.98-.42-1.78-.62c-.73-.19-1.33-.39-1.79-.58-.46-.2-.86-.49-1.19-.88-.33-.39-.5-.9-.5-1.54,0-.5.15-.97.45-1.39s.73-.75,1.28-1c.55-.25,1.18-.37,1.89-.37,1.09,0,1.97.28,2.65.83.67.55,1.03,1.31,1.08,2.27h-1.64c-.04-.52-.24-.93-.62-1.24s-.88-.47-1.52-.47c-.59,0-1.06.13-1.4.38-.35.25-.52.58-.52.99,0,.32.11.59.32.8s.47.38.79.5c.32.13.76.27,1.32.42.71.19,1.28.38,1.73.57.44.19.83.46,1.14.84.32.37.48.86.49,1.46,0,.54-.15,1.03-.45,1.46-.3.43-.72.77-1.27,1.02s-1.17.37-1.88.37c-.76,0-1.43-.13-2.03-.39Z"/>
        <path class="cls-2" d="M102.63,178.17h-7.88c.06.97.39,1.73,1,2.28.61.55,1.34.82,2.21.82.71,0,1.3-.17,1.77-.5s.81-.77,1-1.32h1.76c-.26.95-.79,1.72-1.58,2.31-.79.59-1.78.89-2.95.89-.94,0-1.77-.21-2.51-.63-.74-.42-1.32-1.02-1.74-1.79-.42-.77-.63-1.67-.63-2.69s.2-1.91.61-2.68.98-1.36,1.72-1.77c.74-.41,1.59-.62,2.55-.62s1.76.2,2.48.61c.72.41,1.28.97,1.67,1.68.39.71.58,1.52.58,2.42,0,.31-.02.64-.05.99ZM100.57,175.23c-.28-.45-.65-.79-1.12-1.03-.47-.23-1-.35-1.58-.35-.83,0-1.53.26-2.12.79s-.92,1.26-1,2.2h6.23c0-.62-.14-1.16-.41-1.61Z"/>
        <path class="cls-2" d="M118.75,172.93c.6.32,1.07.8,1.42,1.43.35.64.52,1.41.52,2.32v5.81h-1.62v-5.58c0-.98-.24-1.74-.73-2.26-.49-.52-1.14-.78-1.97-.78s-1.53.27-2.03.82-.76,1.33-.76,2.37v5.44h-1.62v-5.58c0-.98-.24-1.74-.73-2.26-.49-.52-1.14-.78-1.97-.78s-1.53.27-2.03.82-.76,1.33-.76,2.37v5.44h-1.64v-9.86h1.64v1.42c.32-.52.76-.91,1.3-1.19s1.15-.41,1.81-.41c.83,0,1.56.19,2.2.56.64.37,1.11.92,1.42,1.64.28-.7.73-1.24,1.37-1.62s1.34-.58,2.12-.58,1.45.16,2.05.48Z"/>
        <path class="cls-2" d="M132.13,172.63v9.86h-1.64v-1.46c-.31.5-.75.9-1.3,1.18-.56.28-1.17.42-1.85.42-.77,0-1.46-.16-2.07-.48-.61-.32-1.1-.79-1.45-1.43-.35-.64-.53-1.41-.53-2.32v-5.78h1.62v5.56c0,.97.25,1.72.74,2.24.49.52,1.16.78,2.02.78s1.57-.27,2.07-.81.76-1.33.76-2.36v-5.42h1.64Z"/>
        <path class="cls-2" d="M134.9,174.87c.41-.76.97-1.35,1.68-1.77.71-.42,1.51-.63,2.38-.63s1.61.19,2.25.56c.64.37,1.11.84,1.42,1.4v-1.8h1.66v9.86h-1.66v-1.84c-.32.58-.81,1.05-1.45,1.43s-1.39.57-2.24.57-1.67-.22-2.38-.65c-.71-.43-1.27-1.04-1.67-1.82s-.61-1.67-.61-2.66.2-1.89.61-2.66ZM142.19,175.6c-.3-.55-.71-.98-1.21-1.27s-1.07-.44-1.68-.44-1.17.14-1.67.43c-.5.29-.91.71-1.21,1.26-.3.55-.45,1.2-.45,1.94s.15,1.41.45,1.97c.3.56.7.98,1.21,1.28.5.29,1.06.44,1.67.44s1.17-.15,1.68-.44.92-.72,1.21-1.28.45-1.21.45-1.95-.15-1.39-.45-1.94Z"/>
        <path class="cls-2" d="M153.33,182.27c-.6-.26-1.07-.62-1.42-1.08s-.54-.99-.58-1.59h1.69c.05.49.28.89.69,1.21.41.31.96.47,1.63.47.62,0,1.12-.14,1.48-.41s.54-.62.54-1.04-.19-.75-.58-.96-.98-.42-1.78-.62c-.73-.19-1.33-.39-1.79-.58-.46-.2-.86-.49-1.19-.88-.33-.39-.5-.9-.5-1.54,0-.5.15-.97.45-1.39s.73-.75,1.28-1c.55-.25,1.18-.37,1.89-.37,1.09,0,1.97.28,2.65.83.67.55,1.03,1.31,1.08,2.27h-1.64c-.04-.52-.24-.93-.62-1.24s-.88-.47-1.52-.47c-.59,0-1.06.13-1.4.38-.35.25-.52.58-.52.99,0,.32.11.59.32.8s.47.38.79.5c.32.13.76.27,1.32.42.71.19,1.28.38,1.73.57.44.19.83.46,1.14.84.32.37.48.86.49,1.46,0,.54-.15,1.03-.45,1.46-.3.43-.72.77-1.27,1.02s-1.17.37-1.88.37c-.76,0-1.43-.13-2.03-.39Z"/>
        <path class="cls-2" d="M163.06,182.03c-.75-.42-1.34-1.02-1.76-1.79-.43-.77-.64-1.67-.64-2.69s.22-1.9.66-2.67c.44-.77,1.04-1.37,1.79-1.78s1.6-.62,2.54-.62,1.78.21,2.54.62,1.35,1.01,1.79,1.77.66,1.66.66,2.68-.22,1.92-.67,2.69c-.45.77-1.06,1.37-1.83,1.79-.77.42-1.62.63-2.56.63s-1.76-.21-2.51-.63ZM167.23,180.8c.52-.28.93-.69,1.25-1.24.32-.55.48-1.22.48-2.02s-.16-1.46-.47-2.02c-.31-.55-.72-.96-1.22-1.23-.5-.27-1.05-.4-1.64-.4s-1.15.13-1.65.4c-.5.27-.9.68-1.2,1.23-.3.55-.45,1.22-.45,2.02s.15,1.48.44,2.03.69.96,1.18,1.23c.49.27,1.03.4,1.62.4s1.14-.14,1.66-.41Z"/>
        <path class="cls-2" d="M176.8,173.98h-2.07v8.51h-1.64v-8.51h-1.28v-1.35h1.28v-.7c0-1.1.28-1.91.85-2.42.57-.51,1.49-.76,2.75-.76v1.37c-.72,0-1.23.14-1.52.42-.29.28-.44.75-.44,1.39v.7h2.07v1.35Z"/>
        <path class="cls-2" d="M180.71,173.98v5.81c0,.48.1.82.31,1.02.2.2.56.3,1.06.3h1.21v1.39h-1.48c-.91,0-1.6-.21-2.05-.63s-.68-1.11-.68-2.07v-5.81h-1.28v-1.35h1.28v-2.48h1.64v2.48h2.57v1.35h-2.57Z"/>
        <path class="cls-2" d="M189.28,173.98h-2.07v8.51h-1.64v-8.51h-1.28v-1.35h1.28v-.7c0-1.1.28-1.91.85-2.42.57-.51,1.49-.76,2.75-.76v1.37c-.72,0-1.23.14-1.52.42-.29.28-.44.75-.44,1.39v.7h2.07v1.35Z"/>
        <path class="cls-2" d="M191.24,170.7c-.22-.22-.32-.48-.32-.79s.11-.58.32-.79c.22-.22.48-.32.79-.32s.55.11.76.32.31.48.31.79-.1.58-.31.79-.46.32-.76.32-.58-.11-.79-.32ZM192.82,172.63v9.86h-1.64v-9.86h1.64Z"/>
        <path class="cls-2" d="M197.25,169.17v13.32h-1.64v-13.32h1.64Z"/>
        <path class="cls-2" d="M208.99,178.17h-7.88c.06.97.39,1.73,1,2.28.61.55,1.34.82,2.21.82.71,0,1.3-.17,1.77-.5s.81-.77,1-1.32h1.76c-.26.95-.79,1.72-1.58,2.31-.79.59-1.78.89-2.95.89-.94,0-1.77-.21-2.51-.63-.74-.42-1.32-1.02-1.74-1.79-.42-.77-.63-1.67-.63-2.69s.2-1.91.61-2.68.98-1.36,1.72-1.77c.74-.41,1.59-.62,2.55-.62s1.76.2,2.48.61c.72.41,1.28.97,1.67,1.68.39.71.58,1.52.58,2.42,0,.31-.02.64-.05.99ZM206.93,175.23c-.28-.45-.65-.79-1.12-1.03-.47-.23-1-.35-1.58-.35-.83,0-1.53.26-2.12.79s-.92,1.26-1,2.2h6.23c0-.62-.14-1.16-.41-1.61Z"/>
        <path class="cls-2" d="M217.53,181.54c-.64-1.74-.96-3.62-.96-5.63s.34-3.99,1.02-5.79,1.65-3.27,2.91-4.44h1.71v.16c-1.34,1.26-2.36,2.78-3.03,4.54-.68,1.77-1.02,3.61-1.02,5.52s.32,3.64.96,5.33c.64,1.69,1.58,3.17,2.82,4.45v.16h-1.71c-1.15-1.13-2.05-2.56-2.69-4.3Z"/>
        <path class="cls-2" d="M228.19,173.98h-2.07v8.51h-1.64v-8.51h-1.28v-1.35h1.28v-.7c0-1.1.28-1.91.85-2.42.57-.51,1.49-.76,2.75-.76v1.37c-.72,0-1.23.14-1.52.42-.29.28-.44.75-.44,1.39v.7h2.07v1.35Z"/>
        <path class="cls-2" d="M230.15,170.7c-.22-.22-.32-.48-.32-.79s.11-.58.32-.79c.22-.22.48-.32.79-.32s.55.11.76.32.31.48.31.79-.1.58-.31.79-.46.32-.76.32-.58-.11-.79-.32ZM231.74,172.63v9.86h-1.64v-9.86h1.64Z"/>
        <path class="cls-2" d="M236.17,169.17v13.32h-1.64v-13.32h1.64Z"/>
        <path class="cls-2" d="M247.9,178.17h-7.88c.06.97.39,1.73,1,2.28.61.55,1.34.82,2.21.82.71,0,1.3-.17,1.77-.5s.81-.77,1-1.32h1.76c-.26.95-.79,1.72-1.58,2.31-.79.59-1.78.89-2.95.89-.94,0-1.77-.21-2.51-.63-.74-.42-1.32-1.02-1.74-1.79-.42-.77-.63-1.67-.63-2.69s.2-1.91.61-2.68.98-1.36,1.72-1.77c.74-.41,1.59-.62,2.55-.62s1.76.2,2.48.61c.72.41,1.28.97,1.67,1.68.39.71.58,1.52.58,2.42,0,.31-.02.64-.05.99ZM245.85,175.23c-.28-.45-.65-.79-1.12-1.03-.47-.23-1-.35-1.58-.35-.83,0-1.53.26-2.12.79s-.92,1.26-1,2.2h6.23c0-.62-.14-1.16-.41-1.61Z"/>
        <path class="cls-2" d="M258.94,173.98h-2.07v8.51h-1.64v-8.51h-1.28v-1.35h1.28v-.7c0-1.1.28-1.91.85-2.42.57-.51,1.49-.76,2.75-.76v1.37c-.72,0-1.23.14-1.52.42-.29.28-.44.75-.44,1.39v.7h2.07v1.35Z"/>
        <path class="cls-2" d="M262.63,182.03c-.75-.42-1.34-1.02-1.76-1.79-.43-.77-.64-1.67-.64-2.69s.22-1.9.66-2.67c.44-.77,1.04-1.37,1.79-1.78s1.6-.62,2.54-.62,1.78.21,2.54.62,1.35,1.01,1.79,1.77.66,1.66.66,2.68-.22,1.92-.67,2.69c-.45.77-1.06,1.37-1.83,1.79-.77.42-1.62.63-2.56.63s-1.76-.21-2.51-.63ZM266.8,180.8c.52-.28.93-.69,1.25-1.24.32-.55.48-1.22.48-2.02s-.16-1.46-.47-2.02c-.31-.55-.72-.96-1.22-1.23-.5-.27-1.05-.4-1.64-.4s-1.15.13-1.65.4c-.5.27-.9.68-1.2,1.23-.3.55-.45,1.22-.45,2.02s.15,1.48.44,2.03.69.96,1.18,1.23c.49.27,1.03.4,1.62.4s1.14-.14,1.66-.41Z"/>
        <path class="cls-2" d="M274.36,173.98v5.81c0,.48.1.82.31,1.02.2.2.56.3,1.06.3h1.21v1.39h-1.48c-.91,0-1.6-.21-2.05-.63s-.68-1.11-.68-2.07v-5.81h-1.28v-1.35h1.28v-2.48h1.64v2.48h2.57v1.35h-2.57Z"/>
        <path class="cls-2" d="M280.71,182.03c-.75-.42-1.34-1.02-1.76-1.79-.43-.77-.64-1.67-.64-2.69s.22-1.9.66-2.67c.44-.77,1.04-1.37,1.79-1.78s1.6-.62,2.54-.62,1.78.21,2.54.62,1.35,1.01,1.79,1.77.66,1.66.66,2.68-.22,1.92-.67,2.69c-.45.77-1.06,1.37-1.83,1.79-.77.42-1.62.63-2.56.63s-1.76-.21-2.51-.63ZM284.87,180.8c.52-.28.93-.69,1.25-1.24.32-.55.48-1.22.48-2.02s-.16-1.46-.47-2.02c-.31-.55-.72-.96-1.22-1.23-.5-.27-1.05-.4-1.64-.4s-1.15.13-1.65.4c-.5.27-.9.68-1.2,1.23-.3.55-.45,1.22-.45,2.02s.15,1.48.44,2.03.69.96,1.18,1.23c.49.27,1.03.4,1.62.4s1.14-.14,1.66-.41Z"/>
        <path class="cls-2" d="M304.87,182.49l-1.64-1.66c-.61.64-1.27,1.11-1.96,1.41-.7.31-1.48.46-2.36.46s-1.63-.16-2.29-.47-1.18-.76-1.55-1.33-.55-1.25-.55-2.02c0-.88.25-1.65.75-2.31s1.23-1.19,2.21-1.58c-.38-.46-.66-.88-.83-1.26s-.25-.8-.25-1.26c0-.53.13-1,.41-1.43.27-.43.66-.76,1.16-1,.5-.24,1.09-.36,1.75-.36s1.21.13,1.69.38c.48.25.84.6,1.08,1.05s.35.95.32,1.5h-1.64c.01-.49-.13-.88-.41-1.16-.29-.28-.66-.42-1.12-.42-.48,0-.87.13-1.16.41-.29.27-.44.62-.44,1.04,0,.36.1.71.3,1.04.2.34.53.75,1,1.24l3.74,3.76.32-.5,1.22-2.05h1.76l-1.48,2.56c-.2.36-.44.74-.72,1.13l2.83,2.83h-2.14ZM300.67,180.93c.52-.25,1.02-.64,1.48-1.17l-3.69-3.71c-1.54.59-2.3,1.52-2.3,2.79,0,.71.25,1.3.77,1.76.51.47,1.17.7,1.99.7.65,0,1.23-.13,1.76-.38Z"/>
        <path class="cls-2" d="M322.85,173.58c-.35-.73-.85-1.3-1.51-1.7-.66-.4-1.43-.6-2.3-.6s-1.67.2-2.37.6c-.7.4-1.25.98-1.66,1.73s-.6,1.62-.6,2.6.2,1.85.6,2.59c.4.74.95,1.32,1.66,1.72s1.49.6,2.37.6c1.22,0,2.23-.37,3.02-1.1.79-.73,1.25-1.72,1.39-2.97h-5v-1.33h6.75v1.26c-.1,1.03-.42,1.98-.97,2.83s-1.28,1.54-2.18,2.03-1.9.75-3.01.75c-1.16,0-2.23-.27-3.19-.82s-1.72-1.3-2.28-2.28c-.56-.97-.84-2.07-.84-3.29s.28-2.32.84-3.3c.56-.98,1.32-1.74,2.28-2.29s2.02-.82,3.19-.82c1.33,0,2.51.33,3.54.99,1.03.66,1.77,1.59,2.24,2.79h-1.96Z"/>
        <path class="cls-2" d="M328.99,169.95v12.55h-1.64v-12.55h1.64Z"/>
        <path class="cls-2" d="M338.87,169.95v1.33h-5.45v4.23h4.43v1.33h-4.43v5.65h-1.64v-12.55h7.09Z"/>
        <path class="cls-2" d="M340.33,185.84v-.16c1.24-1.27,2.17-2.75,2.82-4.45.64-1.69.96-3.47.96-5.33s-.34-3.75-1.02-5.52c-.68-1.77-1.69-3.28-3.03-4.54v-.16h1.71c1.26,1.16,2.23,2.64,2.91,4.44s1.02,3.72,1.02,5.79-.32,3.89-.96,5.63c-.64,1.74-1.54,3.17-2.69,4.3h-1.71Z"/>
        <path class="cls-2" d="M27.21,198.5v4.08h-4.07v-4.07h4.07Z"/>
        <path class="cls-2" d="M43.13,206.18c-.65-.29-1.17-.7-1.54-1.22-.37-.52-.56-1.12-.58-1.81h1.75c.06.59.3,1.08.73,1.48.43.4,1.05.6,1.86.6s1.39-.2,1.84-.58.67-.89.67-1.5c0-.48-.13-.87-.4-1.17-.26-.3-.59-.53-.99-.68-.4-.16-.93-.32-1.6-.5-.83-.22-1.49-.43-1.99-.65-.5-.22-.92-.56-1.28-1.02s-.53-1.08-.53-1.86c0-.68.17-1.29.52-1.82.35-.53.84-.94,1.47-1.22s1.35-.43,2.17-.43c1.18,0,2.14.29,2.89.88s1.17,1.37,1.27,2.34h-1.8c-.06-.48-.31-.9-.76-1.27-.44-.37-1.03-.55-1.76-.55-.68,0-1.24.18-1.67.53-.43.35-.65.85-.65,1.49,0,.46.13.83.39,1.12.26.29.58.51.95.66.38.15.91.32,1.59.51.83.23,1.49.45,2,.67.5.22.94.56,1.3,1.03s.54,1.09.54,1.88c0,.61-.16,1.19-.49,1.73-.32.54-.8.98-1.44,1.31-.64.34-1.39.5-2.25.5s-1.57-.15-2.22-.44Z"/>
        <path class="cls-2" d="M60.88,202.17h-7.88c.06.97.39,1.73,1,2.28.61.55,1.34.82,2.21.82.71,0,1.3-.17,1.77-.5s.81-.77,1-1.32h1.76c-.26.95-.79,1.72-1.58,2.31-.79.59-1.78.89-2.95.89-.94,0-1.77-.21-2.51-.63-.74-.42-1.32-1.02-1.74-1.79-.42-.77-.63-1.67-.63-2.69s.2-1.91.61-2.68.98-1.36,1.72-1.77c.74-.41,1.59-.62,2.55-.62s1.76.2,2.48.61c.72.41,1.28.97,1.67,1.68.39.71.58,1.52.58,2.42,0,.31-.02.64-.05.99ZM58.83,199.23c-.28-.45-.65-.79-1.12-1.03-.47-.23-1-.35-1.58-.35-.83,0-1.53.26-2.12.79s-.92,1.26-1,2.2h6.23c0-.62-.14-1.16-.41-1.61Z"/>
        <path class="cls-2" d="M77.01,196.93c.6.32,1.07.8,1.42,1.43.35.64.52,1.41.52,2.32v5.81h-1.62v-5.58c0-.98-.24-1.74-.73-2.26-.49-.52-1.14-.78-1.97-.78s-1.53.27-2.03.82-.76,1.33-.76,2.37v5.44h-1.62v-5.58c0-.98-.24-1.74-.73-2.26-.49-.52-1.14-.78-1.97-.78s-1.53.27-2.03.82-.76,1.33-.76,2.37v5.44h-1.64v-9.86h1.64v1.42c.32-.52.76-.91,1.3-1.19s1.15-.41,1.81-.41c.83,0,1.56.19,2.2.56.64.37,1.11.92,1.42,1.64.28-.7.73-1.24,1.37-1.62s1.34-.58,2.12-.58,1.45.16,2.05.48Z"/>
        <path class="cls-2" d="M90.39,196.63v9.86h-1.64v-1.46c-.31.5-.75.9-1.3,1.18-.56.28-1.17.42-1.85.42-.77,0-1.46-.16-2.07-.48-.61-.32-1.1-.79-1.45-1.43-.35-.64-.53-1.41-.53-2.32v-5.78h1.62v5.56c0,.97.25,1.72.74,2.24.49.52,1.16.78,2.02.78s1.57-.27,2.07-.81.76-1.33.76-2.36v-5.42h1.64Z"/>
        <path class="cls-2" d="M93.16,198.87c.41-.76.97-1.35,1.68-1.77.71-.42,1.51-.63,2.38-.63s1.61.19,2.25.56c.64.37,1.11.84,1.42,1.4v-1.8h1.66v9.86h-1.66v-1.84c-.32.58-.81,1.05-1.45,1.43s-1.39.57-2.24.57-1.67-.22-2.38-.65c-.71-.43-1.27-1.04-1.67-1.82s-.61-1.67-.61-2.66.2-1.89.61-2.66ZM100.45,199.6c-.3-.55-.71-.98-1.21-1.27s-1.07-.44-1.68-.44-1.17.14-1.67.43c-.5.29-.91.71-1.21,1.26-.3.55-.45,1.2-.45,1.94s.15,1.41.45,1.97c.3.56.7.98,1.21,1.28.5.29,1.06.44,1.67.44s1.17-.15,1.68-.44.92-.72,1.21-1.28.45-1.21.45-1.95-.15-1.39-.45-1.94Z"/>
        <path class="cls-2" d="M114.15,197.98h-2.07v8.51h-1.64v-8.51h-1.28v-1.35h1.28v-.7c0-1.1.28-1.91.85-2.42.57-.51,1.49-.76,2.75-.76v1.37c-.72,0-1.23.14-1.52.42-.29.28-.44.75-.44,1.39v.7h2.07v1.35Z"/>
        <path class="cls-2" d="M116.11,194.7c-.22-.22-.32-.48-.32-.79s.11-.58.32-.79c.22-.22.48-.32.79-.32s.55.11.76.32.31.48.31.79-.1.58-.31.79-.46.32-.76.32-.58-.11-.79-.32ZM117.69,196.63v9.86h-1.64v-9.86h1.64Z"/>
        <path class="cls-2" d="M122.12,193.17v13.32h-1.64v-13.32h1.64Z"/>
        <path class="cls-2" d="M133.86,202.17h-7.88c.06.97.39,1.73,1,2.28.61.55,1.34.82,2.21.82.71,0,1.3-.17,1.77-.5s.81-.77,1-1.32h1.76c-.26.95-.79,1.72-1.58,2.31-.79.59-1.78.89-2.95.89-.94,0-1.77-.21-2.51-.63-.74-.42-1.32-1.02-1.74-1.79-.42-.77-.63-1.67-.63-2.69s.2-1.91.61-2.68.98-1.36,1.72-1.77c.74-.41,1.59-.62,2.55-.62s1.76.2,2.48.61c.72.41,1.28.97,1.67,1.68.39.71.58,1.52.58,2.42,0,.31-.02.64-.05.99ZM131.8,199.23c-.28-.45-.65-.79-1.12-1.03-.47-.23-1-.35-1.58-.35-.83,0-1.53.26-2.12.79s-.92,1.26-1,2.2h6.23c0-.62-.14-1.16-.41-1.61Z"/>
        <path class="cls-2" d="M140.87,198.87c.41-.76.97-1.35,1.68-1.77.71-.42,1.51-.63,2.4-.63.77,0,1.48.18,2.14.53.66.35,1.16.82,1.51,1.4v-5.22h1.66v13.32h-1.66v-1.85c-.32.59-.8,1.07-1.44,1.45-.64.38-1.38.57-2.23.57s-1.67-.22-2.38-.65c-.71-.43-1.28-1.04-1.68-1.82s-.61-1.67-.61-2.66.2-1.89.61-2.66ZM148.16,199.6c-.3-.55-.71-.98-1.21-1.27s-1.07-.44-1.68-.44-1.17.14-1.67.43c-.5.29-.91.71-1.21,1.26-.3.55-.45,1.2-.45,1.94s.15,1.41.45,1.97c.3.56.7.98,1.21,1.28.5.29,1.06.44,1.67.44s1.17-.15,1.68-.44.92-.72,1.21-1.28.45-1.21.45-1.95-.15-1.39-.45-1.94Z"/>
        <path class="cls-2" d="M153.1,194.7c-.22-.22-.32-.48-.32-.79s.11-.58.32-.79c.22-.22.48-.32.79-.32s.55.11.76.32.31.48.31.79-.1.58-.31.79-.46.32-.76.32-.58-.11-.79-.32ZM154.68,196.63v9.86h-1.64v-9.86h1.64Z"/>
        <path class="cls-2" d="M164.31,199.2v1.39h-7.18v-1.39h7.18Z"/>
        <path class="cls-2" d="M176.14,196.63v9.86h-1.64v-1.46c-.31.5-.75.9-1.3,1.18-.56.28-1.17.42-1.85.42-.77,0-1.46-.16-2.07-.48-.61-.32-1.1-.79-1.45-1.43-.35-.64-.53-1.41-.53-2.32v-5.78h1.62v5.56c0,.97.25,1.72.74,2.24.49.52,1.16.78,2.02.78s1.57-.27,2.07-.81.76-1.33.76-2.36v-5.42h1.64Z"/>
        <path class="cls-2" d="M181.99,197.03c.64-.38,1.39-.57,2.24-.57s1.67.21,2.38.63c.71.42,1.28,1.01,1.68,1.77.41.76.61,1.65.61,2.66s-.2,1.88-.61,2.66c-.41.78-.97,1.39-1.68,1.82-.71.43-1.51.65-2.38.65s-1.58-.19-2.22-.57c-.64-.38-1.13-.85-1.47-1.41v6.5h-1.64v-14.54h1.64v1.82c.32-.56.81-1.04,1.45-1.41ZM186.79,199.58c-.3-.55-.71-.97-1.21-1.26s-1.07-.43-1.68-.43-1.16.15-1.67.44-.92.72-1.22,1.28c-.31.56-.46,1.2-.46,1.93s.15,1.4.46,1.95c.31.56.71.98,1.22,1.28s1.06.44,1.67.44,1.17-.15,1.68-.44.92-.72,1.21-1.28.45-1.21.45-1.97-.15-1.39-.45-1.94Z"/>
        <path class="cls-2" d="M192.71,193.17v13.32h-1.64v-13.32h1.64Z"/>
        <path class="cls-2" d="M197.29,206.03c-.75-.42-1.34-1.02-1.76-1.79-.43-.77-.64-1.67-.64-2.69s.22-1.9.66-2.67c.44-.77,1.04-1.37,1.79-1.78s1.6-.62,2.54-.62,1.78.21,2.54.62,1.35,1.01,1.79,1.77.66,1.66.66,2.68-.22,1.92-.67,2.69c-.45.77-1.06,1.37-1.83,1.79-.77.42-1.62.63-2.56.63s-1.76-.21-2.51-.63ZM201.46,204.8c.52-.28.93-.69,1.25-1.24.32-.55.48-1.22.48-2.02s-.16-1.46-.47-2.02c-.31-.55-.72-.96-1.22-1.23-.5-.27-1.05-.4-1.64-.4s-1.15.13-1.65.4c-.5.27-.9.68-1.2,1.23-.3.55-.45,1.22-.45,2.02s.15,1.48.44,2.03.69.96,1.18,1.23c.49.27,1.03.4,1.62.4s1.14-.14,1.66-.41Z"/>
        <path class="cls-2" d="M207.02,198.87c.41-.76.97-1.35,1.68-1.77.71-.42,1.51-.63,2.38-.63s1.61.19,2.25.56c.64.37,1.11.84,1.42,1.4v-1.8h1.66v9.86h-1.66v-1.84c-.32.58-.81,1.05-1.45,1.43s-1.39.57-2.24.57-1.67-.22-2.38-.65c-.71-.43-1.27-1.04-1.67-1.82s-.61-1.67-.61-2.66.2-1.89.61-2.66ZM214.31,199.6c-.3-.55-.71-.98-1.21-1.27s-1.07-.44-1.68-.44-1.17.14-1.67.43c-.5.29-.91.71-1.21,1.26-.3.55-.45,1.2-.45,1.94s.15,1.41.45,1.97c.3.56.7.98,1.21,1.28.5.29,1.06.44,1.67.44s1.17-.15,1.68-.44.92-.72,1.21-1.28.45-1.21.45-1.95-.15-1.39-.45-1.94Z"/>
        <path class="cls-2" d="M219.19,198.87c.41-.76.97-1.35,1.68-1.77.71-.42,1.51-.63,2.4-.63.77,0,1.48.18,2.14.53.66.35,1.16.82,1.51,1.4v-5.22h1.66v13.32h-1.66v-1.85c-.32.59-.8,1.07-1.44,1.45-.64.38-1.38.57-2.23.57s-1.67-.22-2.38-.65c-.71-.43-1.28-1.04-1.68-1.82s-.61-1.67-.61-2.66.2-1.89.61-2.66ZM226.48,199.6c-.3-.55-.71-.98-1.21-1.27s-1.07-.44-1.68-.44-1.17.14-1.67.43c-.5.29-.91.71-1.21,1.26-.3.55-.45,1.2-.45,1.94s.15,1.41.45,1.97c.3.56.7.98,1.21,1.28.5.29,1.06.44,1.67.44s1.17-.15,1.68-.44.92-.72,1.21-1.28.45-1.21.45-1.95-.15-1.39-.45-1.94Z"/>
        <path class="cls-2" d="M236.17,198.87c.41-.76.97-1.35,1.68-1.77.71-.42,1.51-.63,2.4-.63.77,0,1.48.18,2.14.53.66.35,1.16.82,1.51,1.4v-5.22h1.66v13.32h-1.66v-1.85c-.32.59-.8,1.07-1.44,1.45-.64.38-1.38.57-2.23.57s-1.67-.22-2.38-.65c-.71-.43-1.28-1.04-1.68-1.82s-.61-1.67-.61-2.66.2-1.89.61-2.66ZM243.46,199.6c-.3-.55-.71-.98-1.21-1.27s-1.07-.44-1.68-.44-1.17.14-1.67.43c-.5.29-.91.71-1.21,1.26-.3.55-.45,1.2-.45,1.94s.15,1.41.45,1.97c.3.56.7.98,1.21,1.28.5.29,1.06.44,1.67.44s1.17-.15,1.68-.44.92-.72,1.21-1.28.45-1.21.45-1.95-.15-1.39-.45-1.94Z"/>
        <path class="cls-2" d="M248.39,194.7c-.22-.22-.32-.48-.32-.79s.11-.58.32-.79c.22-.22.48-.32.79-.32s.55.11.76.32.31.48.31.79-.1.58-.31.79-.46.32-.76.32-.58-.11-.79-.32ZM249.97,196.63v9.86h-1.64v-9.86h1.64Z"/>
        <path class="cls-2" d="M264.48,196.93c.6.32,1.07.8,1.41,1.43s.51,1.41.51,2.32v5.81h-1.62v-5.58c0-.98-.25-1.74-.74-2.26-.49-.52-1.16-.78-2.02-.78s-1.55.27-2.06.81c-.51.54-.76,1.33-.76,2.36v5.45h-1.64v-13.32h1.64v4.86c.32-.5.77-.89,1.34-1.17.57-.28,1.21-.41,1.92-.41.74,0,1.42.16,2.02.48Z"/>
        <path class="cls-2" d="M269.09,198.87c.41-.76.97-1.35,1.68-1.77.71-.42,1.51-.63,2.38-.63s1.61.19,2.25.56c.64.37,1.11.84,1.42,1.4v-1.8h1.66v9.86h-1.66v-1.84c-.32.58-.81,1.05-1.45,1.43s-1.39.57-2.24.57-1.67-.22-2.38-.65c-.71-.43-1.27-1.04-1.67-1.82s-.61-1.67-.61-2.66.2-1.89.61-2.66ZM276.38,199.6c-.3-.55-.71-.98-1.21-1.27s-1.07-.44-1.68-.44-1.17.14-1.67.43c-.5.29-.91.71-1.21,1.26-.3.55-.45,1.2-.45,1.94s.15,1.41.45,1.97c.3.56.7.98,1.21,1.28.5.29,1.06.44,1.67.44s1.17-.15,1.68-.44.92-.72,1.21-1.28.45-1.21.45-1.95-.15-1.39-.45-1.94Z"/>
        <path class="cls-2" d="M284.13,196.92c.53-.31,1.19-.47,1.95-.47v1.69h-.43c-1.84,0-2.75,1-2.75,2.99v5.36h-1.64v-9.86h1.64v1.6c.29-.56.7-1,1.23-1.31Z"/>
        <path class="cls-2" d="M288.02,194.7c-.22-.22-.32-.48-.32-.79s.11-.58.32-.79c.22-.22.48-.32.79-.32s.55.11.76.32.31.48.31.79-.1.58-.31.79-.46.32-.76.32-.58-.11-.79-.32ZM289.61,196.63v9.86h-1.64v-9.86h1.64Z"/>
        <path class="cls-2" d="M49.87,220.63l-5.94,14.51h-1.69l1.94-4.75-3.98-9.76h1.82l3.1,7.99,3.06-7.99h1.69Z"/>
        <path class="cls-2" d="M51.51,222.87c.41-.76.97-1.35,1.68-1.77.71-.42,1.51-.63,2.38-.63s1.61.19,2.25.56c.64.37,1.11.84,1.42,1.4v-1.8h1.66v9.86h-1.66v-1.84c-.32.58-.81,1.05-1.45,1.43s-1.39.57-2.24.57-1.67-.22-2.38-.65c-.71-.43-1.27-1.04-1.67-1.82s-.61-1.67-.61-2.66.2-1.89.61-2.66ZM58.8,223.6c-.3-.55-.71-.98-1.21-1.27s-1.07-.44-1.68-.44-1.17.14-1.67.43c-.5.29-.91.71-1.21,1.26-.3.55-.45,1.2-.45,1.94s.15,1.41.45,1.97c.3.56.7.98,1.21,1.28.5.29,1.06.44,1.67.44s1.17-.15,1.68-.44.92-.72,1.21-1.28.45-1.21.45-1.95-.15-1.39-.45-1.94Z"/>
        <path class="cls-2" d="M71.4,221.54c.74.73,1.12,1.77,1.12,3.14v5.81h-1.62v-5.58c0-.98-.25-1.74-.74-2.26-.49-.52-1.16-.78-2.02-.78s-1.55.27-2.06.81c-.51.54-.76,1.33-.76,2.36v5.45h-1.64v-9.86h1.64v1.4c.32-.5.76-.89,1.32-1.17.56-.28,1.17-.41,1.85-.41,1.2,0,2.17.36,2.92,1.09Z"/>
        <path class="cls-2" d="M81.5,221.03c.64.37,1.12.84,1.43,1.4v-1.8h1.66v10.08c0,.9-.19,1.7-.58,2.4s-.93,1.25-1.65,1.65c-.71.4-1.54.59-2.49.59-1.3,0-2.38-.31-3.24-.92-.86-.61-1.37-1.45-1.53-2.5h1.62c.18.6.55,1.08,1.12,1.45.56.37,1.24.55,2.03.55.9,0,1.63-.28,2.21-.85.57-.56.85-1.36.85-2.38v-2.07c-.32.58-.8,1.06-1.44,1.44-.64.38-1.38.58-2.23.58s-1.67-.22-2.38-.65c-.71-.43-1.28-1.04-1.68-1.82s-.61-1.67-.61-2.66.2-1.89.61-2.66c.41-.76.97-1.35,1.68-1.77.71-.42,1.51-.63,2.38-.63s1.6.19,2.24.56ZM82.48,223.6c-.3-.55-.71-.98-1.21-1.27s-1.07-.44-1.68-.44-1.17.14-1.67.43c-.5.29-.91.71-1.21,1.26-.3.55-.45,1.2-.45,1.94s.15,1.41.45,1.97c.3.56.7.98,1.21,1.28.5.29,1.06.44,1.67.44s1.17-.15,1.68-.44.92-.72,1.21-1.28.45-1.21.45-1.95-.15-1.39-.45-1.94Z"/>
        <path class="cls-2" d="M93.62,230.27c-.6-.26-1.07-.62-1.42-1.08s-.54-.99-.58-1.59h1.69c.05.49.28.89.69,1.21.41.31.96.47,1.63.47.62,0,1.12-.14,1.48-.41s.54-.62.54-1.04-.19-.75-.58-.96-.98-.42-1.78-.62c-.73-.19-1.33-.39-1.79-.58-.46-.2-.86-.49-1.19-.88-.33-.39-.5-.9-.5-1.54,0-.5.15-.97.45-1.39s.73-.75,1.28-1c.55-.25,1.18-.37,1.89-.37,1.09,0,1.97.28,2.65.83.67.55,1.03,1.31,1.08,2.27h-1.64c-.04-.52-.24-.93-.62-1.24s-.88-.47-1.52-.47c-.59,0-1.06.13-1.4.38-.35.25-.52.58-.52.99,0,.32.11.59.32.8s.47.38.79.5c.32.13.76.27,1.32.42.71.19,1.28.38,1.73.57.44.19.83.46,1.14.84.32.37.48.86.49,1.46,0,.54-.15,1.03-.45,1.46-.3.43-.72.77-1.27,1.02s-1.17.37-1.88.37c-.76,0-1.43-.13-2.03-.39Z"/>
        <path class="cls-2" d="M101.56,222.87c.41-.76.97-1.35,1.68-1.77.71-.42,1.51-.63,2.38-.63s1.61.19,2.25.56c.64.37,1.11.84,1.42,1.4v-1.8h1.66v9.86h-1.66v-1.84c-.32.58-.81,1.05-1.45,1.43s-1.39.57-2.24.57-1.67-.22-2.38-.65c-.71-.43-1.27-1.04-1.67-1.82s-.61-1.67-.61-2.66.2-1.89.61-2.66ZM108.85,223.6c-.3-.55-.71-.98-1.21-1.27s-1.07-.44-1.68-.44-1.17.14-1.67.43c-.5.29-.91.71-1.21,1.26-.3.55-.45,1.2-.45,1.94s.15,1.41.45,1.97c.3.56.7.98,1.21,1.28.5.29,1.06.44,1.67.44s1.17-.15,1.68-.44.92-.72,1.21-1.28.45-1.21.45-1.95-.15-1.39-.45-1.94Z"/>
        <path class="cls-2" d="M127.64,220.93c.6.32,1.07.8,1.42,1.43.35.64.52,1.41.52,2.32v5.81h-1.62v-5.58c0-.98-.24-1.74-.73-2.26-.49-.52-1.14-.78-1.97-.78s-1.53.27-2.03.82-.76,1.33-.76,2.37v5.44h-1.62v-5.58c0-.98-.24-1.74-.73-2.26-.49-.52-1.14-.78-1.97-.78s-1.53.27-2.03.82-.76,1.33-.76,2.37v5.44h-1.64v-9.86h1.64v1.42c.32-.52.76-.91,1.3-1.19s1.15-.41,1.81-.41c.83,0,1.56.19,2.2.56.64.37,1.11.92,1.42,1.64.28-.7.73-1.24,1.37-1.62s1.34-.58,2.12-.58,1.45.16,2.05.48Z"/>
        <path class="cls-2" d="M132.27,222.87c.41-.76.97-1.35,1.68-1.77.71-.42,1.51-.63,2.38-.63s1.61.19,2.25.56c.64.37,1.11.84,1.42,1.4v-1.8h1.66v9.86h-1.66v-1.84c-.32.58-.81,1.05-1.45,1.43s-1.39.57-2.24.57-1.67-.22-2.38-.65c-.71-.43-1.27-1.04-1.67-1.82s-.61-1.67-.61-2.66.2-1.89.61-2.66ZM139.56,223.6c-.3-.55-.71-.98-1.21-1.27s-1.07-.44-1.68-.44-1.17.14-1.67.43c-.5.29-.91.71-1.21,1.26-.3.55-.45,1.2-.45,1.94s.15,1.41.45,1.97c.3.56.7.98,1.21,1.28.5.29,1.06.44,1.67.44s1.17-.15,1.68-.44.92-.72,1.21-1.28.45-1.21.45-1.95-.15-1.39-.45-1.94Z"/>
        <path class="cls-2" d="M27.21,246.5v4.08h-4.07v-4.07h4.07Z"/>
        <path class="cls-2" d="M41.59,244.91c.55-.98,1.31-1.74,2.26-2.29s2.01-.83,3.18-.83c1.37,0,2.56.33,3.58.99,1.02.66,1.76,1.6,2.23,2.81h-1.96c-.35-.76-.85-1.34-1.5-1.75-.65-.41-1.44-.61-2.35-.61s-1.66.2-2.36.61c-.7.41-1.24.99-1.64,1.74-.4.75-.59,1.63-.59,2.64s.2,1.87.59,2.62c.4.75.94,1.33,1.64,1.74.7.41,1.48.61,2.36.61s1.69-.2,2.35-.6,1.16-.98,1.5-1.74h1.96c-.47,1.2-1.21,2.13-2.23,2.78-1.02.65-2.21.98-3.58.98-1.16,0-2.22-.27-3.18-.82s-1.71-1.3-2.26-2.28c-.55-.97-.83-2.07-.83-3.29s.28-2.32.83-3.3Z"/>
        <path class="cls-2" d="M64.21,250.17h-7.88c.06.97.39,1.73,1,2.28.61.55,1.34.82,2.21.82.71,0,1.3-.17,1.77-.5s.81-.77,1-1.32h1.76c-.26.95-.79,1.72-1.58,2.31-.79.59-1.78.89-2.95.89-.94,0-1.77-.21-2.51-.63-.74-.42-1.32-1.02-1.74-1.79-.42-.77-.63-1.67-.63-2.69s.2-1.91.61-2.68.98-1.36,1.72-1.77c.74-.41,1.59-.62,2.55-.62s1.76.2,2.48.61c.72.41,1.28.97,1.67,1.68.39.71.58,1.52.58,2.42,0,.31-.02.64-.05.99ZM62.16,247.23c-.28-.45-.65-.79-1.12-1.03-.47-.23-1-.35-1.58-.35-.83,0-1.53.26-2.12.79s-.92,1.26-1,2.2h6.23c0-.62-.14-1.16-.41-1.61Z"/>
        <path class="cls-2" d="M68.43,245.98v5.81c0,.48.1.82.31,1.02.2.2.56.3,1.06.3h1.21v1.39h-1.48c-.91,0-1.6-.21-2.05-.63s-.68-1.11-.68-2.07v-5.81h-1.28v-1.35h1.28v-2.48h1.64v2.48h2.57v1.35h-2.57Z"/>
        <path class="cls-2" d="M72.98,246.87c.41-.76.97-1.35,1.68-1.77.71-.42,1.51-.63,2.38-.63s1.61.19,2.25.56c.64.37,1.11.84,1.42,1.4v-1.8h1.66v9.86h-1.66v-1.84c-.32.58-.81,1.05-1.45,1.43s-1.39.57-2.24.57-1.67-.22-2.38-.65c-.71-.43-1.27-1.04-1.67-1.82s-.61-1.67-.61-2.66.2-1.89.61-2.66ZM80.27,247.6c-.3-.55-.71-.98-1.21-1.27s-1.07-.44-1.68-.44-1.17.14-1.67.43c-.5.29-.91.71-1.21,1.26-.3.55-.45,1.2-.45,1.94s.15,1.41.45,1.97c.3.56.7.98,1.21,1.28.5.29,1.06.44,1.67.44s1.17-.15,1.68-.44.92-.72,1.21-1.28.45-1.21.45-1.95-.15-1.39-.45-1.94Z"/>
        <path class="cls-2" d="M90.65,254.49l-3.87-4.36v4.36h-1.64v-13.32h1.64v7.83l3.8-4.37h2.29l-4.64,4.91,4.66,4.95h-2.23Z"/>
        <path class="cls-2" d="M107.97,244.63v9.86h-1.64v-1.46c-.31.5-.75.9-1.3,1.18-.56.28-1.17.42-1.85.42-.77,0-1.46-.16-2.07-.48-.61-.32-1.1-.79-1.45-1.43-.35-.64-.53-1.41-.53-2.32v-5.78h1.62v5.56c0,.97.25,1.72.74,2.24.49.52,1.16.78,2.02.78s1.57-.27,2.07-.81.76-1.33.76-2.36v-5.42h1.64Z"/>
        <path class="cls-2" d="M116.25,254.49l-3.87-4.36v4.36h-1.64v-13.32h1.64v7.83l3.8-4.37h2.29l-4.64,4.91,4.66,4.95h-2.23Z"/>
        <path class="cls-2" d="M128.76,244.63v9.86h-1.64v-1.46c-.31.5-.75.9-1.3,1.18-.56.28-1.17.42-1.85.42-.77,0-1.46-.16-2.07-.48-.61-.32-1.1-.79-1.45-1.43-.35-.64-.53-1.41-.53-2.32v-5.78h1.62v5.56c0,.97.25,1.72.74,2.24.49.52,1.16.78,2.02.78s1.57-.27,2.07-.81.76-1.33.76-2.36v-5.42h1.64Z"/>
        <path class="cls-2" d="M134.4,244.92c.53-.31,1.19-.47,1.95-.47v1.69h-.43c-1.84,0-2.75,1-2.75,2.99v5.36h-1.64v-9.86h1.64v1.6c.29-.56.7-1,1.23-1.31Z"/>
        <path class="cls-2" d="M138.25,246.87c.41-.76.97-1.35,1.68-1.77.71-.42,1.51-.63,2.38-.63s1.61.19,2.25.56c.64.37,1.11.84,1.42,1.4v-1.8h1.66v9.86h-1.66v-1.84c-.32.58-.81,1.05-1.45,1.43s-1.39.57-2.24.57-1.67-.22-2.38-.65c-.71-.43-1.27-1.04-1.67-1.82s-.61-1.67-.61-2.66.2-1.89.61-2.66ZM145.54,247.6c-.3-.55-.71-.98-1.21-1.27s-1.07-.44-1.68-.44-1.17.14-1.67.43c-.5.29-.91.71-1.21,1.26-.3.55-.45,1.2-.45,1.94s.15,1.41.45,1.97c.3.56.7.98,1.21,1.28.5.29,1.06.44,1.67.44s1.17-.15,1.68-.44.92-.72,1.21-1.28.45-1.21.45-1.95-.15-1.39-.45-1.94Z"/>
        <path class="cls-2" d="M158.14,245.54c.74.73,1.12,1.77,1.12,3.14v5.81h-1.62v-5.58c0-.98-.25-1.74-.74-2.26-.49-.52-1.16-.78-2.02-.78s-1.55.27-2.06.81c-.51.54-.76,1.33-.76,2.36v5.45h-1.64v-9.86h1.64v1.4c.32-.5.76-.89,1.32-1.17.56-.28,1.17-.41,1.85-.41,1.2,0,2.17.36,2.92,1.09Z"/>
        <path class="cls-2" d="M166.07,251.59v-1.24l6.32-8.75h1.96v8.57h1.8v1.42h-1.8v2.9h-1.62v-2.9h-6.66ZM172.81,243.32l-4.84,6.86h4.84v-6.86Z"/>
        <path class="cls-2" d="M184.67,254.49l-2.99-5.13h-1.98v5.13h-1.64v-12.55h4.05c.95,0,1.75.16,2.4.49.65.32,1.14.76,1.47,1.31.32.55.49,1.18.49,1.89,0,.86-.25,1.63-.75,2.29-.5.66-1.25,1.1-2.24,1.31l3.15,5.26h-1.96ZM179.7,248.05h2.41c.89,0,1.55-.22,2-.66.44-.44.67-1.02.67-1.76s-.22-1.32-.66-1.73c-.44-.41-1.11-.61-2.01-.61h-2.41v4.75Z"/>
        <path class="cls-2" d="M195.45,241.17v13.32h-1.64v-13.32h1.64Z"/>
        <path class="cls-2" d="M198.24,246.87c.41-.76.97-1.35,1.68-1.77.71-.42,1.51-.63,2.38-.63s1.61.19,2.25.56c.64.37,1.11.84,1.42,1.4v-1.8h1.66v9.86h-1.66v-1.84c-.32.58-.81,1.05-1.45,1.43s-1.39.57-2.24.57-1.67-.22-2.38-.65c-.71-.43-1.27-1.04-1.67-1.82s-.61-1.67-.61-2.66.2-1.89.61-2.66ZM205.53,247.6c-.3-.55-.71-.98-1.21-1.27s-1.07-.44-1.68-.44-1.17.14-1.67.43c-.5.29-.91.71-1.21,1.26-.3.55-.45,1.2-.45,1.94s.15,1.41.45,1.97c.3.56.7.98,1.21,1.28.5.29,1.06.44,1.67.44s1.17-.15,1.68-.44.92-.72,1.21-1.28.45-1.21.45-1.95-.15-1.39-.45-1.94Z"/>
        <path class="cls-2" d="M218.13,245.54c.74.73,1.12,1.77,1.12,3.14v5.81h-1.62v-5.58c0-.98-.25-1.74-.74-2.26-.49-.52-1.16-.78-2.02-.78s-1.55.27-2.06.81c-.51.54-.76,1.33-.76,2.36v5.45h-1.64v-9.86h1.64v1.4c.32-.5.76-.89,1.32-1.17.56-.28,1.17-.41,1.85-.41,1.2,0,2.17.36,2.92,1.09Z"/>
        <path class="cls-2" d="M228.24,245.03c.64.37,1.12.84,1.43,1.4v-1.8h1.66v10.08c0,.9-.19,1.7-.58,2.4s-.93,1.25-1.65,1.65c-.71.4-1.54.59-2.49.59-1.3,0-2.38-.31-3.24-.92-.86-.61-1.37-1.45-1.53-2.5h1.62c.18.6.55,1.08,1.12,1.45.56.37,1.24.55,2.03.55.9,0,1.63-.28,2.21-.85.57-.56.85-1.36.85-2.38v-2.07c-.32.58-.8,1.06-1.44,1.44-.64.38-1.38.58-2.23.58s-1.67-.22-2.38-.65c-.71-.43-1.28-1.04-1.68-1.82s-.61-1.67-.61-2.66.2-1.89.61-2.66c.41-.76.97-1.35,1.68-1.77.71-.42,1.51-.63,2.38-.63s1.6.19,2.24.56ZM229.22,247.6c-.3-.55-.71-.98-1.21-1.27s-1.07-.44-1.68-.44-1.17.14-1.67.43c-.5.29-.91.71-1.21,1.26-.3.55-.45,1.2-.45,1.94s.15,1.41.45,1.97c.3.56.7.98,1.21,1.28.5.29,1.06.44,1.67.44s1.17-.15,1.68-.44.92-.72,1.21-1.28.45-1.21.45-1.95-.15-1.39-.45-1.94Z"/>
        <path class="cls-2" d="M235.55,254.27c-.6-.26-1.07-.62-1.42-1.08s-.54-.99-.58-1.59h1.69c.05.49.28.89.69,1.21.41.31.96.47,1.63.47.62,0,1.12-.14,1.48-.41s.54-.62.54-1.04-.19-.75-.58-.96-.98-.42-1.78-.62c-.73-.19-1.33-.39-1.79-.58-.46-.2-.86-.49-1.19-.88-.33-.39-.5-.9-.5-1.54,0-.5.15-.97.45-1.39s.73-.75,1.28-1c.55-.25,1.18-.37,1.89-.37,1.09,0,1.97.28,2.65.83.67.55,1.03,1.31,1.08,2.27h-1.64c-.04-.52-.24-.93-.62-1.24s-.88-.47-1.52-.47c-.59,0-1.06.13-1.4.38-.35.25-.52.58-.52.99,0,.32.11.59.32.8s.47.38.79.5c.32.13.76.27,1.32.42.71.19,1.28.38,1.73.57.44.19.83.46,1.14.84.32.37.48.86.49,1.46,0,.54-.15,1.03-.45,1.46-.3.43-.72.77-1.27,1.02s-1.17.37-1.88.37c-.76,0-1.43-.13-2.03-.39Z"/>
        <path class="cls-2" d="M252.24,244.63v9.86h-1.64v-1.46c-.31.5-.75.9-1.3,1.18-.56.28-1.17.42-1.85.42-.77,0-1.46-.16-2.07-.48-.61-.32-1.1-.79-1.45-1.43-.35-.64-.53-1.41-.53-2.32v-5.78h1.62v5.56c0,.97.25,1.72.74,2.24.49.52,1.16.78,2.02.78s1.57-.27,2.07-.81.76-1.33.76-2.36v-5.42h1.64Z"/>
        <path class="cls-2" d="M262.73,245.54c.74.73,1.12,1.77,1.12,3.14v5.81h-1.62v-5.58c0-.98-.25-1.74-.74-2.26-.49-.52-1.16-.78-2.02-.78s-1.55.27-2.06.81c-.51.54-.76,1.33-.76,2.36v5.45h-1.64v-9.86h1.64v1.4c.32-.5.76-.89,1.32-1.17.56-.28,1.17-.41,1.85-.41,1.2,0,2.17.36,2.92,1.09Z"/>
        <path class="cls-2" d="M272.84,245.03c.64.37,1.12.84,1.43,1.4v-1.8h1.66v10.08c0,.9-.19,1.7-.58,2.4s-.93,1.25-1.65,1.65c-.71.4-1.54.59-2.49.59-1.3,0-2.38-.31-3.24-.92-.86-.61-1.37-1.45-1.53-2.5h1.62c.18.6.55,1.08,1.12,1.45.56.37,1.24.55,2.03.55.9,0,1.63-.28,2.21-.85.57-.56.85-1.36.85-2.38v-2.07c-.32.58-.8,1.06-1.44,1.44-.64.38-1.38.58-2.23.58s-1.67-.22-2.38-.65c-.71-.43-1.28-1.04-1.68-1.82s-.61-1.67-.61-2.66.2-1.89.61-2.66c.41-.76.97-1.35,1.68-1.77.71-.42,1.51-.63,2.38-.63s1.6.19,2.24.56ZM273.82,247.6c-.3-.55-.71-.98-1.21-1.27s-1.07-.44-1.68-.44-1.17.14-1.67.43c-.5.29-.91.71-1.21,1.26-.3.55-.45,1.2-.45,1.94s.15,1.41.45,1.97c.3.56.7.98,1.21,1.28.5.29,1.06.44,1.67.44s1.17-.15,1.68-.44.92-.72,1.21-1.28.45-1.21.45-1.95-.15-1.39-.45-1.94Z"/>
        <path class="cls-2" d="M285.2,256.63c0,.88-.22,1.52-.67,1.93-.44.41-1.09.61-1.94.61h-.95v-1.39h.68c.46,0,.78-.09.96-.27.19-.18.28-.49.28-.92v-11.97h1.64v12.01ZM283.61,242.7c-.21-.22-.32-.48-.32-.79s.11-.58.32-.79c.21-.22.47-.32.78-.32s.57.11.78.32.32.48.32.79-.11.58-.32.79-.47.32-.78.32-.57-.11-.78-.32Z"/>
        <path class="cls-2" d="M287.97,246.87c.41-.76.97-1.35,1.68-1.77.71-.42,1.51-.63,2.38-.63s1.61.19,2.25.56c.64.37,1.11.84,1.42,1.4v-1.8h1.66v9.86h-1.66v-1.84c-.32.58-.81,1.05-1.45,1.43s-1.39.57-2.24.57-1.67-.22-2.38-.65c-.71-.43-1.27-1.04-1.67-1.82s-.61-1.67-.61-2.66.2-1.89.61-2.66ZM295.26,247.6c-.3-.55-.71-.98-1.21-1.27s-1.07-.44-1.68-.44-1.17.14-1.67.43c-.5.29-.91.71-1.21,1.26-.3.55-.45,1.2-.45,1.94s.15,1.41.45,1.97c.3.56.7.98,1.21,1.28.5.29,1.06.44,1.67.44s1.17-.15,1.68-.44.92-.72,1.21-1.28.45-1.21.45-1.95-.15-1.39-.45-1.94Z"/>
        <path class="cls-2" d="M300.14,246.87c.41-.76.97-1.35,1.68-1.77.71-.42,1.51-.63,2.4-.63.77,0,1.48.18,2.14.53.66.35,1.16.82,1.51,1.4v-5.22h1.66v13.32h-1.66v-1.85c-.32.59-.8,1.07-1.44,1.45-.64.38-1.38.57-2.23.57s-1.67-.22-2.38-.65c-.71-.43-1.28-1.04-1.68-1.82s-.61-1.67-.61-2.66.2-1.89.61-2.66ZM307.43,247.6c-.3-.55-.71-.98-1.21-1.27s-1.07-.44-1.68-.44-1.17.14-1.67.43c-.5.29-.91.71-1.21,1.26-.3.55-.45,1.2-.45,1.94s.15,1.41.45,1.97c.3.56.7.98,1.21,1.28.5.29,1.06.44,1.67.44s1.17-.15,1.68-.44.92-.72,1.21-1.28.45-1.21.45-1.95-.15-1.39-.45-1.94Z"/>
        <path class="cls-2" d="M312.36,242.7c-.22-.22-.32-.48-.32-.79s.11-.58.32-.79c.22-.22.48-.32.79-.32s.55.11.76.32.31.48.31.79-.1.58-.31.79-.46.32-.76.32-.58-.11-.79-.32ZM313.94,244.63v9.86h-1.64v-9.86h1.64Z"/>
        <path class="cls-2" d="M27.21,270.5v4.08h-4.07v-4.07h4.07Z"/>
        <path class="cls-2" d="M51.04,265.95v12.55h-1.64v-5.69h-6.39v5.69h-1.64v-12.55h1.64v5.51h6.39v-5.51h1.64Z"/>
        <path class="cls-2" d="M53.83,270.87c.41-.76.97-1.35,1.68-1.77.71-.42,1.51-.63,2.38-.63s1.61.19,2.25.56c.64.37,1.11.84,1.42,1.4v-1.8h1.66v9.86h-1.66v-1.84c-.32.58-.81,1.05-1.45,1.43s-1.39.57-2.24.57-1.67-.22-2.38-.65c-.71-.43-1.27-1.04-1.67-1.82s-.61-1.67-.61-2.66.2-1.89.61-2.66ZM61.12,271.6c-.3-.55-.71-.98-1.21-1.27s-1.07-.44-1.68-.44-1.17.14-1.67.43c-.5.29-.91.71-1.21,1.26-.3.55-.45,1.2-.45,1.94s.15,1.41.45,1.97c.3.56.7.98,1.21,1.28.5.29,1.06.44,1.67.44s1.17-.15,1.68-.44.92-.72,1.21-1.28.45-1.21.45-1.95-.15-1.39-.45-1.94Z"/>
        <path class="cls-2" d="M68.87,268.92c.53-.31,1.19-.47,1.95-.47v1.69h-.43c-1.84,0-2.75,1-2.75,2.99v5.36h-1.64v-9.86h1.64v1.6c.29-.56.7-1,1.23-1.31Z"/>
        <path class="cls-2" d="M79.02,269.03c.64.37,1.12.84,1.43,1.4v-1.8h1.66v10.08c0,.9-.19,1.7-.58,2.4s-.93,1.25-1.65,1.65c-.71.4-1.54.59-2.49.59-1.3,0-2.38-.31-3.24-.92-.86-.61-1.37-1.45-1.53-2.5h1.62c.18.6.55,1.08,1.12,1.45.56.37,1.24.55,2.03.55.9,0,1.63-.28,2.21-.85.57-.56.85-1.36.85-2.38v-2.07c-.32.58-.8,1.06-1.44,1.44-.64.38-1.38.58-2.23.58s-1.67-.22-2.38-.65c-.71-.43-1.28-1.04-1.68-1.82s-.61-1.67-.61-2.66.2-1.89.61-2.66c.41-.76.97-1.35,1.68-1.77.71-.42,1.51-.63,2.38-.63s1.6.19,2.24.56ZM80,271.6c-.3-.55-.71-.98-1.21-1.27s-1.07-.44-1.68-.44-1.17.14-1.67.43c-.5.29-.91.71-1.21,1.26-.3.55-.45,1.2-.45,1.94s.15,1.41.45,1.97c.3.56.7.98,1.21,1.28.5.29,1.06.44,1.67.44s1.17-.15,1.68-.44.92-.72,1.21-1.28.45-1.21.45-1.95-.15-1.39-.45-1.94Z"/>
        <path class="cls-2" d="M84.88,270.87c.41-.76.97-1.35,1.68-1.77.71-.42,1.51-.63,2.38-.63s1.61.19,2.25.56c.64.37,1.11.84,1.42,1.4v-1.8h1.66v9.86h-1.66v-1.84c-.32.58-.81,1.05-1.45,1.43s-1.39.57-2.24.57-1.67-.22-2.38-.65c-.71-.43-1.27-1.04-1.67-1.82s-.61-1.67-.61-2.66.2-1.89.61-2.66ZM92.17,271.6c-.3-.55-.71-.98-1.21-1.27s-1.07-.44-1.68-.44-1.17.14-1.67.43c-.5.29-.91.71-1.21,1.26-.3.55-.45,1.2-.45,1.94s.15,1.41.45,1.97c.3.56.7.98,1.21,1.28.5.29,1.06.44,1.67.44s1.17-.15,1.68-.44.92-.72,1.21-1.28.45-1.21.45-1.95-.15-1.39-.45-1.94Z"/>
        <path class="cls-2" d="M108.76,268.93c.6.32,1.07.8,1.41,1.43s.51,1.41.51,2.32v5.81h-1.62v-5.58c0-.98-.25-1.74-.74-2.26-.49-.52-1.16-.78-2.02-.78s-1.55.27-2.06.81c-.51.54-.76,1.33-.76,2.36v5.45h-1.64v-13.32h1.64v4.86c.32-.5.77-.89,1.34-1.17.57-.28,1.21-.41,1.92-.41.74,0,1.42.16,2.02.48Z"/>
        <path class="cls-2" d="M113.37,270.87c.41-.76.97-1.35,1.68-1.77.71-.42,1.51-.63,2.38-.63s1.61.19,2.25.56c.64.37,1.11.84,1.42,1.4v-1.8h1.66v9.86h-1.66v-1.84c-.32.58-.81,1.05-1.45,1.43s-1.39.57-2.24.57-1.67-.22-2.38-.65c-.71-.43-1.27-1.04-1.67-1.82s-.61-1.67-.61-2.66.2-1.89.61-2.66ZM120.66,271.6c-.3-.55-.71-.98-1.21-1.27s-1.07-.44-1.68-.44-1.17.14-1.67.43c-.5.29-.91.71-1.21,1.26-.3.55-.45,1.2-.45,1.94s.15,1.41.45,1.97c.3.56.7.98,1.21,1.28.5.29,1.06.44,1.67.44s1.17-.15,1.68-.44.92-.72,1.21-1.28.45-1.21.45-1.95-.15-1.39-.45-1.94Z"/>
        <path class="cls-2" d="M133.26,269.54c.74.73,1.12,1.77,1.12,3.14v5.81h-1.62v-5.58c0-.98-.25-1.74-.74-2.26-.49-.52-1.16-.78-2.02-.78s-1.55.27-2.06.81c-.51.54-.76,1.33-.76,2.36v5.45h-1.64v-9.86h1.64v1.4c.32-.5.76-.89,1.32-1.17.56-.28,1.17-.41,1.85-.41,1.2,0,2.17.36,2.92,1.09Z"/>
        <path class="cls-2" d="M145.56,268.63l-5.94,14.51h-1.69l1.94-4.75-3.98-9.76h1.82l3.1,7.99,3.06-7.99h1.69Z"/>
        <path class="cls-2" d="M147.19,270.87c.41-.76.97-1.35,1.68-1.77.71-.42,1.51-.63,2.38-.63s1.61.19,2.25.56c.64.37,1.11.84,1.42,1.4v-1.8h1.66v9.86h-1.66v-1.84c-.32.58-.81,1.05-1.45,1.43s-1.39.57-2.24.57-1.67-.22-2.38-.65c-.71-.43-1.27-1.04-1.67-1.82s-.61-1.67-.61-2.66.2-1.89.61-2.66ZM154.48,271.6c-.3-.55-.71-.98-1.21-1.27s-1.07-.44-1.68-.44-1.17.14-1.67.43c-.5.29-.91.71-1.21,1.26-.3.55-.45,1.2-.45,1.94s.15,1.41.45,1.97c.3.56.7.98,1.21,1.28.5.29,1.06.44,1.67.44s1.17-.15,1.68-.44.92-.72,1.21-1.28.45-1.21.45-1.95-.15-1.39-.45-1.94Z"/>
        <path class="cls-2" d="M172.91,268.63v9.86h-1.64v-1.46c-.31.5-.75.9-1.3,1.18-.56.28-1.17.42-1.85.42-.77,0-1.46-.16-2.07-.48-.61-.32-1.1-.79-1.45-1.43-.35-.64-.53-1.41-.53-2.32v-5.78h1.62v5.56c0,.97.25,1.72.74,2.24.49.52,1.16.78,2.02.78s1.57-.27,2.07-.81.76-1.33.76-2.36v-5.42h1.64Z"/>
        <path class="cls-2" d="M183.41,269.54c.74.73,1.12,1.77,1.12,3.14v5.81h-1.62v-5.58c0-.98-.25-1.74-.74-2.26-.49-.52-1.16-.78-2.02-.78s-1.55.27-2.06.81c-.51.54-.76,1.33-.76,2.36v5.45h-1.64v-9.86h1.64v1.4c.32-.5.76-.89,1.32-1.17.56-.28,1.17-.41,1.85-.41,1.2,0,2.17.36,2.92,1.09Z"/>
        <path class="cls-2" d="M189.2,269.98v5.81c0,.48.1.82.31,1.02.2.2.56.3,1.06.3h1.21v1.39h-1.48c-.91,0-1.6-.21-2.05-.63s-.68-1.11-.68-2.07v-5.81h-1.28v-1.35h1.28v-2.48h1.64v2.48h2.57v1.35h-2.57Z"/>
        <path class="cls-2" d="M202.51,268.63v9.86h-1.64v-1.46c-.31.5-.75.9-1.3,1.18-.56.28-1.17.42-1.85.42-.77,0-1.46-.16-2.07-.48-.61-.32-1.1-.79-1.45-1.43-.35-.64-.53-1.41-.53-2.32v-5.78h1.62v5.56c0,.97.25,1.72.74,2.24.49.52,1.16.78,2.02.78s1.57-.27,2.07-.81.76-1.33.76-2.36v-5.42h1.64Z"/>
        <path class="cls-2" d="M210.79,278.49l-3.87-4.36v4.36h-1.64v-13.32h1.64v7.83l3.8-4.37h2.29l-4.64,4.91,4.66,4.95h-2.23Z"/>
        <path class="cls-2" d="M232.49,268.63l-3.08,9.86h-1.69l-2.38-7.83-2.38,7.83h-1.69l-3.1-9.86h1.67l2.27,8.28,2.45-8.28h1.67l2.39,8.3,2.23-8.3h1.62Z"/>
        <path class="cls-2" d="M234.17,266.7c-.22-.22-.32-.48-.32-.79s.11-.58.32-.79c.22-.22.48-.32.79-.32s.55.11.76.32.31.48.31.79-.1.58-.31.79-.46.32-.76.32-.58-.11-.79-.32ZM235.75,268.63v9.86h-1.64v-9.86h1.64Z"/>
        <path class="cls-2" d="M240.18,265.17v13.32h-1.64v-13.32h1.64Z"/>
        <path class="cls-2" d="M242.97,270.87c.41-.76.97-1.35,1.68-1.77.71-.42,1.51-.63,2.38-.63s1.61.19,2.25.56c.64.37,1.11.84,1.42,1.4v-1.8h1.66v9.86h-1.66v-1.84c-.32.58-.81,1.05-1.45,1.43s-1.39.57-2.24.57-1.67-.22-2.38-.65c-.71-.43-1.27-1.04-1.67-1.82s-.61-1.67-.61-2.66.2-1.89.61-2.66ZM250.26,271.6c-.3-.55-.71-.98-1.21-1.27s-1.07-.44-1.68-.44-1.17.14-1.67.43c-.5.29-.91.71-1.21,1.26-.3.55-.45,1.2-.45,1.94s.15,1.41.45,1.97c.3.56.7.98,1.21,1.28.5.29,1.06.44,1.67.44s1.17-.15,1.68-.44.92-.72,1.21-1.28.45-1.21.45-1.95-.15-1.39-.45-1.94Z"/>
        <path class="cls-2" d="M263.63,268.63l-5.94,14.51h-1.69l1.94-4.75-3.98-9.76h1.82l3.1,7.99,3.06-7.99h1.69Z"/>
        <path class="cls-2" d="M265.27,270.87c.41-.76.97-1.35,1.68-1.77.71-.42,1.51-.63,2.38-.63s1.61.19,2.25.56c.64.37,1.11.84,1.42,1.4v-1.8h1.66v9.86h-1.66v-1.84c-.32.58-.81,1.05-1.45,1.43s-1.39.57-2.24.57-1.67-.22-2.38-.65c-.71-.43-1.27-1.04-1.67-1.82s-.61-1.67-.61-2.66.2-1.89.61-2.66ZM272.56,271.6c-.3-.55-.71-.98-1.21-1.27s-1.07-.44-1.68-.44-1.17.14-1.67.43c-.5.29-.91.71-1.21,1.26-.3.55-.45,1.2-.45,1.94s.15,1.41.45,1.97c.3.56.7.98,1.21,1.28.5.29,1.06.44,1.67.44s1.17-.15,1.68-.44.92-.72,1.21-1.28.45-1.21.45-1.95-.15-1.39-.45-1.94Z"/>
        <path class="cls-2" d="M284.35,268.93c.6.32,1.07.8,1.41,1.43s.51,1.41.51,2.32v5.81h-1.62v-5.58c0-.98-.25-1.74-.74-2.26-.49-.52-1.16-.78-2.02-.78s-1.55.27-2.06.81c-.51.54-.76,1.33-.76,2.36v5.45h-1.64v-13.32h1.64v4.86c.32-.5.77-.89,1.34-1.17.57-.28,1.21-.41,1.92-.41.74,0,1.42.16,2.02.48Z"/>
        <path class="cls-2" d="M48.9,296.59c.38.3.68.67.9,1.12.22.44.33.92.33,1.42,0,.64-.16,1.21-.49,1.72-.32.51-.79.91-1.41,1.21-.62.29-1.35.44-2.19.44h-4.68v-12.55h4.5c.85,0,1.58.14,2.18.42.6.28,1.05.66,1.35,1.14.3.48.45,1.02.45,1.62,0,.74-.2,1.36-.6,1.85-.4.49-.93.84-1.59,1.05.46.07.87.26,1.25.56ZM43.01,295.37h2.75c.77,0,1.36-.18,1.78-.54s.63-.86.63-1.49-.21-1.13-.63-1.49c-.42-.36-1.03-.54-1.82-.54h-2.72v4.07ZM47.82,300.57c.46-.38.68-.92.68-1.6s-.24-1.24-.72-1.65c-.48-.4-1.12-.6-1.93-.6h-2.84v4.43h2.9c.82,0,1.45-.19,1.91-.58Z"/>
        <path class="cls-2" d="M52.41,294.87c.41-.76.97-1.35,1.68-1.77.71-.42,1.51-.63,2.38-.63s1.61.19,2.25.56c.64.37,1.11.84,1.42,1.4v-1.8h1.66v9.86h-1.66v-1.84c-.32.58-.81,1.05-1.45,1.43s-1.39.57-2.24.57-1.67-.22-2.38-.65c-.71-.43-1.27-1.04-1.67-1.82s-.61-1.67-.61-2.66.2-1.89.61-2.66ZM59.7,295.6c-.3-.55-.71-.98-1.21-1.27s-1.07-.44-1.68-.44-1.17.14-1.67.43c-.5.29-.91.71-1.21,1.26-.3.55-.45,1.2-.45,1.94s.15,1.41.45,1.97c.3.56.7.98,1.21,1.28.5.29,1.06.44,1.67.44s1.17-.15,1.68-.44.92-.72,1.21-1.28.45-1.21.45-1.95-.15-1.39-.45-1.94Z"/>
        <path class="cls-2" d="M72.3,293.54c.74.73,1.12,1.77,1.12,3.14v5.81h-1.62v-5.58c0-.98-.25-1.74-.74-2.26-.49-.52-1.16-.78-2.02-.78s-1.55.27-2.06.81c-.51.54-.76,1.33-.76,2.36v5.45h-1.64v-9.86h1.64v1.4c.32-.5.76-.89,1.32-1.17.56-.28,1.17-.41,1.85-.41,1.2,0,2.17.36,2.92,1.09Z"/>
        <path class="cls-2" d="M76.09,294.87c.41-.76.97-1.35,1.68-1.77.71-.42,1.51-.63,2.4-.63.77,0,1.48.18,2.14.53.66.35,1.16.82,1.51,1.4v-5.22h1.66v13.32h-1.66v-1.85c-.32.59-.8,1.07-1.44,1.45-.64.38-1.38.57-2.23.57s-1.67-.22-2.38-.65c-.71-.43-1.28-1.04-1.68-1.82s-.61-1.67-.61-2.66.2-1.89.61-2.66ZM83.38,295.6c-.3-.55-.71-.98-1.21-1.27s-1.07-.44-1.68-.44-1.17.14-1.67.43c-.5.29-.91.71-1.21,1.26-.3.55-.45,1.2-.45,1.94s.15,1.41.45,1.97c.3.56.7.98,1.21,1.28.5.29,1.06.44,1.67.44s1.17-.15,1.68-.44.92-.72,1.21-1.28.45-1.21.45-1.95-.15-1.39-.45-1.94Z"/>
        <path class="cls-2" d="M97.01,292.63v9.86h-1.64v-1.46c-.31.5-.75.9-1.3,1.18-.56.28-1.17.42-1.85.42-.77,0-1.46-.16-2.07-.48-.61-.32-1.1-.79-1.45-1.43-.35-.64-.53-1.41-.53-2.32v-5.78h1.62v5.56c0,.97.25,1.72.74,2.24.49.52,1.16.78,2.02.78s1.57-.27,2.07-.81.76-1.33.76-2.36v-5.42h1.64Z"/>
        <path class="cls-2" d="M107.5,293.54c.74.73,1.12,1.77,1.12,3.14v5.81h-1.62v-5.58c0-.98-.25-1.74-.74-2.26-.49-.52-1.16-.78-2.02-.78s-1.55.27-2.06.81c-.51.54-.76,1.33-.76,2.36v5.45h-1.64v-9.86h1.64v1.4c.32-.5.76-.89,1.32-1.17.56-.28,1.17-.41,1.85-.41,1.2,0,2.17.36,2.92,1.09Z"/>
        <path class="cls-2" d="M117.61,293.03c.64.37,1.12.84,1.43,1.4v-1.8h1.66v10.08c0,.9-.19,1.7-.58,2.4s-.93,1.25-1.65,1.65c-.71.4-1.54.59-2.49.59-1.3,0-2.38-.31-3.24-.92-.86-.61-1.37-1.45-1.53-2.5h1.62c.18.6.55,1.08,1.12,1.45.56.37,1.24.55,2.03.55.9,0,1.63-.28,2.21-.85.57-.56.85-1.36.85-2.38v-2.07c-.32.58-.8,1.06-1.44,1.44-.64.38-1.38.58-2.23.58s-1.67-.22-2.38-.65c-.71-.43-1.28-1.04-1.68-1.82s-.61-1.67-.61-2.66.2-1.89.61-2.66c.41-.76.97-1.35,1.68-1.77.71-.42,1.51-.63,2.38-.63s1.6.19,2.24.56ZM118.59,295.6c-.3-.55-.71-.98-1.21-1.27s-1.07-.44-1.68-.44-1.17.14-1.67.43c-.5.29-.91.71-1.21,1.26-.3.55-.45,1.2-.45,1.94s.15,1.41.45,1.97c.3.56.7.98,1.21,1.28.5.29,1.06.44,1.67.44s1.17-.15,1.68-.44.92-.72,1.21-1.28.45-1.21.45-1.95-.15-1.39-.45-1.94Z"/>
        <path class="cls-2" d="M137.9,302.49l-1.64-1.66c-.61.64-1.27,1.11-1.96,1.41-.7.31-1.48.46-2.36.46s-1.63-.16-2.29-.47-1.18-.76-1.55-1.33-.55-1.25-.55-2.02c0-.88.25-1.65.75-2.31s1.23-1.19,2.21-1.58c-.38-.46-.66-.88-.83-1.26s-.25-.8-.25-1.26c0-.53.13-1,.41-1.43.27-.43.66-.76,1.16-1,.5-.24,1.09-.36,1.75-.36s1.21.13,1.69.38c.48.25.84.6,1.08,1.05s.35.95.32,1.5h-1.64c.01-.49-.13-.88-.41-1.16-.29-.28-.66-.42-1.12-.42-.48,0-.87.13-1.16.41-.29.27-.44.62-.44,1.04,0,.36.1.71.3,1.04.2.34.53.75,1,1.24l3.74,3.76.32-.5,1.22-2.05h1.76l-1.48,2.56c-.2.36-.44.74-.72,1.13l2.83,2.83h-2.14ZM133.7,300.93c.52-.25,1.02-.64,1.48-1.17l-3.69-3.71c-1.54.59-2.3,1.52-2.3,2.79,0,.71.25,1.3.77,1.76.51.47,1.17.7,1.99.7.65,0,1.23-.13,1.76-.38Z"/>
        <path class="cls-2" d="M155.89,293.58c-.35-.73-.85-1.3-1.51-1.7-.66-.4-1.43-.6-2.3-.6s-1.67.2-2.37.6c-.7.4-1.25.98-1.66,1.73s-.6,1.62-.6,2.6.2,1.85.6,2.59c.4.74.95,1.32,1.66,1.72s1.49.6,2.37.6c1.22,0,2.23-.37,3.02-1.1.79-.73,1.25-1.72,1.39-2.97h-5v-1.33h6.75v1.26c-.1,1.03-.42,1.98-.97,2.83s-1.28,1.54-2.18,2.03-1.9.75-3.01.75c-1.16,0-2.23-.27-3.19-.82s-1.72-1.3-2.28-2.28c-.56-.97-.84-2.07-.84-3.29s.28-2.32.84-3.3c.56-.98,1.32-1.74,2.28-2.29s2.02-.82,3.19-.82c1.33,0,2.51.33,3.54.99,1.03.66,1.77,1.59,2.24,2.79h-1.96Z"/>
        <path class="cls-2" d="M160.39,294.87c.41-.76.97-1.35,1.68-1.77.71-.42,1.51-.63,2.38-.63s1.61.19,2.25.56c.64.37,1.11.84,1.42,1.4v-1.8h1.66v9.86h-1.66v-1.84c-.32.58-.81,1.05-1.45,1.43s-1.39.57-2.24.57-1.67-.22-2.38-.65c-.71-.43-1.27-1.04-1.67-1.82s-.61-1.67-.61-2.66.2-1.89.61-2.66ZM167.68,295.6c-.3-.55-.71-.98-1.21-1.27s-1.07-.44-1.68-.44-1.17.14-1.67.43c-.5.29-.91.71-1.21,1.26-.3.55-.45,1.2-.45,1.94s.15,1.41.45,1.97c.3.56.7.98,1.21,1.28.5.29,1.06.44,1.67.44s1.17-.15,1.68-.44.92-.72,1.21-1.28.45-1.21.45-1.95-.15-1.39-.45-1.94Z"/>
        <path class="cls-2" d="M175.42,292.92c.53-.31,1.19-.47,1.95-.47v1.69h-.43c-1.84,0-2.75,1-2.75,2.99v5.36h-1.64v-9.86h1.64v1.6c.29-.56.7-1,1.23-1.31Z"/>
        <path class="cls-2" d="M188.02,292.63v9.86h-1.64v-1.46c-.31.5-.75.9-1.3,1.18-.56.28-1.17.42-1.85.42-.77,0-1.46-.16-2.07-.48-.61-.32-1.1-.79-1.45-1.43-.35-.64-.53-1.41-.53-2.32v-5.78h1.62v5.56c0,.97.25,1.72.74,2.24.49.52,1.16.78,2.02.78s1.57-.27,2.07-.81.76-1.33.76-2.36v-5.42h1.64Z"/>
        <path class="cls-2" d="M192.78,293.98v5.81c0,.48.1.82.31,1.02.2.2.56.3,1.06.3h1.21v1.39h-1.48c-.91,0-1.6-.21-2.05-.63s-.68-1.11-.68-2.07v-5.81h-1.28v-1.35h1.28v-2.48h1.64v2.48h2.57v1.35h-2.57Z"/>
      </g>
    </g>
  </g>
</svg>