<?xml version="1.0" encoding="UTF-8"?>
<svg id="Layer_2" data-name="Layer 2" xmlns="http://www.w3.org/2000/svg" viewBox="0 0 19.8 19.8">
  <defs>
    <style>
      .cls-1 {
        fill: #fff;
      }
    </style>
  </defs>
  <g id="Layer_1-2" data-name="Layer 1">
    <g>
      <rect class="cls-1" width="19.8" height="19.8" rx="5.59" ry="5.59"/>
      <g>
        <path d="M15.89,9.59c-.08-3.19-2.66-5.69-5.88-5.69s-5.74,2.45-5.87,5.58c0,.09,0,.17,0,.26,0,1.04.28,2.05.8,2.94.01.02.02.05,0,.07l-1.04,3.08s.03.08.07.07l3.2-1.02s.05,0,.07,0c.85.45,1.81.69,2.78.69,3.24,0,5.88-2.62,5.88-5.84,0-.04,0-.15,0-.15ZM6.05,12.37c-.53-.78-.8-1.68-.8-2.63,0-.15,0-.3.02-.46.24-2.44,2.28-4.28,4.75-4.28s4.57,1.92,4.76,4.37c.01.14.02.26.02.37,0,2.61-2.14,4.74-4.78,4.74-.7,0-1.39-.15-2.02-.44-.18-.08-.51-.28-.61-.34-.02-.01-.05-.02-.07,0l-1.61.51s-.07-.02-.06-.06l.52-1.54s0-.06-.01-.08c-.03-.04-.08-.12-.11-.15Z"/>
        <path d="M12.81,11.03c-.04-.06-.29-.18-.29-.18-.1-.05-.84-.41-.98-.46-.12-.04-.25-.09-.37.09-.09.14-.36.45-.45.55-.06.07-.12.09-.25.02-.02-.01-.68-.29-1.13-.69-.4-.35-.68-.79-.78-.96-.06-.1-.02-.15.05-.23.05-.05.25-.3.27-.32.03-.05.09-.17.09-.17.06-.12.02-.22-.01-.29-.02-.05-.4-.96-.44-1.04-.11-.26-.22-.27-.33-.26-.05,0-.55,0-.71.18l-.03.03c-.16.17-.48.51-.48,1.17,0,.15.02.31.08.49.09.32.27.67.51.99,0,0,.37.51.55.73.58.67,1.23,1.16,1.89,1.42.84.33,1.2.4,1.41.4.09,0,.28-.05.32-.05.26-.02.87-.34,1-.7.12-.34.12-.63.08-.71Z"/>
      </g>
    </g>
  </g>
</svg>