<?xml version="1.0" encoding="UTF-8"?>
<svg id="Layer_2" data-name="Layer 2" xmlns="http://www.w3.org/2000/svg" viewBox="0 0 406 332">
  <defs>
    <style>
      .cls-1 {
        font-family: Poppins-Regular, Poppins;
        font-size: 36px;
      }

      .cls-2 {
        fill: #fff;
      }

      .cls-3 {
        fill: #333;
      }
    </style>
  </defs>
  <g id="Layer_1-2" data-name="Layer 1">
    <g>
      <rect class="cls-3" y="100" width="406" height="232"/>
      <rect class="cls-2" width="406" height="100"/>
      <g>
        <path class="cls-2" d="M23.52,126.5v4.08h-4.07v-4.07h4.07Z"/>
        <path class="cls-2" d="M38.25,126.57c-.36-.5-.54-1.12-.54-1.84,0-.65.16-1.23.49-1.75.32-.52.81-.94,1.45-1.24s1.42-.46,2.33-.46,1.69.15,2.33.46c.64.31,1.13.72,1.46,1.24.33.52.5,1.11.5,1.75,0,.7-.19,1.3-.56,1.83-.37.52-.88.91-1.53,1.16.74.23,1.33.63,1.77,1.2.44.57.66,1.26.66,2.06s-.19,1.46-.58,2.04c-.38.58-.93,1.03-1.63,1.35-.7.32-1.51.48-2.42.48s-1.71-.16-2.4-.48c-.69-.32-1.23-.77-1.61-1.35-.38-.58-.58-1.26-.58-2.04s.22-1.49.65-2.07,1.02-.97,1.76-1.19c-.67-.26-1.19-.65-1.55-1.15ZM39.8,129.07c-.56.41-.85,1.04-.85,1.86,0,.77.27,1.39.82,1.85s1.28.7,2.21.7,1.66-.23,2.2-.7c.54-.47.81-1.09.81-1.85s-.28-1.42-.83-1.84c-.55-.43-1.28-.64-2.18-.64s-1.61.21-2.18.62ZM43.95,123.24c-.48-.4-1.14-.59-1.98-.59s-1.48.2-1.96.59-.72.97-.72,1.71c0,.67.25,1.21.75,1.62s1.14.61,1.94.61,1.46-.21,1.95-.62c.5-.41.75-.96.75-1.63,0-.73-.24-1.3-.72-1.69Z"/>
        <path class="cls-2" d="M63.52,121.95v12.55h-1.64v-5.69h-6.39v5.69h-1.64v-12.55h1.64v5.51h6.39v-5.51h1.64Z"/>
        <path class="cls-2" d="M68.1,134.03c-.75-.42-1.34-1.02-1.76-1.79-.43-.77-.64-1.67-.64-2.69s.22-1.9.66-2.67c.44-.77,1.03-1.37,1.79-1.78.76-.41,1.6-.62,2.54-.62s1.78.21,2.54.62c.76.41,1.35,1.01,1.79,1.77s.66,1.66.66,2.68-.23,1.92-.68,2.69c-.45.77-1.06,1.37-1.83,1.79-.77.42-1.62.63-2.56.63s-1.76-.21-2.51-.63ZM72.27,132.8c.52-.28.93-.69,1.25-1.24.32-.55.48-1.22.48-2.02s-.16-1.46-.47-2.02-.72-.96-1.22-1.23c-.5-.27-1.05-.4-1.64-.4s-1.15.13-1.65.4c-.5.27-.9.68-1.2,1.23s-.45,1.22-.45,2.02.15,1.48.44,2.03c.29.55.69.96,1.18,1.23.49.27,1.03.4,1.62.4s1.14-.14,1.66-.41Z"/>
        <path class="cls-2" d="M86.58,124.63v9.86h-1.64v-1.46c-.31.5-.75.9-1.31,1.18-.56.28-1.17.42-1.84.42-.77,0-1.46-.16-2.07-.48-.61-.32-1.1-.79-1.45-1.43-.35-.64-.53-1.41-.53-2.32v-5.78h1.62v5.56c0,.97.25,1.72.74,2.24.49.52,1.16.78,2.02.78s1.57-.27,2.07-.81c.5-.54.76-1.33.76-2.36v-5.42h1.64Z"/>
        <path class="cls-2" d="M92.22,124.92c.53-.31,1.19-.47,1.95-.47v1.69h-.43c-1.84,0-2.75,1-2.75,2.99v5.36h-1.64v-9.86h1.64v1.6c.29-.56.7-1,1.23-1.31Z"/>
        <path class="cls-2" d="M97.52,134.27c-.6-.26-1.07-.62-1.42-1.08s-.54-.99-.58-1.59h1.69c.05.49.28.89.69,1.21.41.31.96.47,1.63.47.62,0,1.12-.14,1.48-.41s.54-.62.54-1.04-.19-.75-.58-.96c-.38-.21-.98-.42-1.78-.62-.73-.19-1.33-.39-1.79-.58-.46-.2-.86-.49-1.19-.88-.33-.39-.5-.9-.5-1.54,0-.5.15-.97.45-1.39.3-.42.73-.75,1.28-1,.55-.25,1.18-.37,1.89-.37,1.09,0,1.97.28,2.65.83.67.55,1.03,1.31,1.08,2.27h-1.64c-.04-.52-.24-.93-.62-1.24s-.88-.47-1.52-.47c-.59,0-1.06.13-1.4.38-.35.25-.52.58-.52.99,0,.32.1.59.31.8s.47.38.79.5c.32.13.76.27,1.32.42.71.19,1.28.38,1.73.57.44.19.83.46,1.14.84s.48.86.5,1.46c0,.54-.15,1.03-.45,1.46-.3.43-.72.77-1.27,1.02s-1.17.37-1.88.37c-.76,0-1.43-.13-2.03-.39Z"/>
        <path class="cls-2" d="M112.02,134.18c-.65-.29-1.17-.7-1.54-1.22-.37-.52-.56-1.12-.58-1.81h1.75c.06.59.3,1.08.73,1.48.43.4,1.05.6,1.86.6s1.4-.2,1.85-.58.67-.89.67-1.5c0-.48-.13-.87-.4-1.17-.26-.3-.59-.53-.99-.68-.4-.16-.93-.32-1.6-.5-.83-.22-1.49-.43-1.99-.65-.5-.22-.92-.56-1.28-1.02s-.53-1.08-.53-1.86c0-.68.17-1.29.52-1.82.35-.53.84-.94,1.47-1.22s1.35-.43,2.17-.43c1.18,0,2.14.29,2.89.88s1.17,1.37,1.27,2.34h-1.8c-.06-.48-.31-.9-.76-1.27s-1.03-.55-1.76-.55c-.68,0-1.24.18-1.67.53-.43.35-.65.85-.65,1.49,0,.46.13.83.39,1.12.26.29.58.51.95.66.38.15.91.32,1.59.51.83.23,1.49.45,2,.67.5.22.94.56,1.3,1.03s.54,1.09.54,1.88c0,.61-.16,1.19-.49,1.73-.32.54-.8.98-1.44,1.31-.64.34-1.39.5-2.25.5s-1.57-.15-2.22-.44Z"/>
        <path class="cls-2" d="M129.78,130.17h-7.88c.06.97.39,1.73,1,2.28s1.34.82,2.21.82c.71,0,1.3-.17,1.77-.5s.81-.77,1-1.32h1.76c-.26.95-.79,1.72-1.58,2.31-.79.59-1.78.89-2.95.89-.94,0-1.77-.21-2.51-.63-.74-.42-1.32-1.02-1.74-1.79-.42-.77-.63-1.67-.63-2.69s.2-1.91.61-2.68c.41-.77.98-1.36,1.72-1.77s1.59-.62,2.55-.62,1.76.2,2.48.61c.72.41,1.27.97,1.66,1.68.39.71.59,1.52.59,2.42,0,.31-.02.64-.05.99ZM127.72,127.23c-.28-.45-.65-.79-1.12-1.03s-1-.35-1.57-.35c-.83,0-1.53.26-2.12.79s-.92,1.26-1,2.2h6.23c0-.62-.14-1.16-.41-1.61Z"/>
        <path class="cls-2" d="M133.45,134.27c-.6-.26-1.07-.62-1.42-1.08s-.54-.99-.58-1.59h1.69c.05.49.28.89.69,1.21.41.31.96.47,1.63.47.62,0,1.12-.14,1.48-.41s.54-.62.54-1.04-.19-.75-.58-.96c-.38-.21-.98-.42-1.78-.62-.73-.19-1.33-.39-1.79-.58-.46-.2-.86-.49-1.19-.88-.33-.39-.5-.9-.5-1.54,0-.5.15-.97.45-1.39.3-.42.73-.75,1.28-1,.55-.25,1.18-.37,1.89-.37,1.09,0,1.97.28,2.65.83.67.55,1.03,1.31,1.08,2.27h-1.64c-.04-.52-.24-.93-.62-1.24s-.88-.47-1.52-.47c-.59,0-1.06.13-1.4.38-.35.25-.52.58-.52.99,0,.32.1.59.31.8s.47.38.79.5c.32.13.76.27,1.32.42.71.19,1.28.38,1.73.57.44.19.83.46,1.14.84s.48.86.5,1.46c0,.54-.15,1.03-.45,1.46-.3.43-.72.77-1.27,1.02s-1.17.37-1.88.37c-.76,0-1.43-.13-2.03-.39Z"/>
        <path class="cls-2" d="M142.84,134.27c-.6-.26-1.07-.62-1.42-1.08s-.54-.99-.58-1.59h1.69c.05.49.28.89.69,1.21.41.31.96.47,1.63.47.62,0,1.12-.14,1.48-.41s.54-.62.54-1.04-.19-.75-.58-.96c-.38-.21-.98-.42-1.78-.62-.73-.19-1.33-.39-1.79-.58-.46-.2-.86-.49-1.19-.88-.33-.39-.5-.9-.5-1.54,0-.5.15-.97.45-1.39.3-.42.73-.75,1.28-1,.55-.25,1.18-.37,1.89-.37,1.09,0,1.97.28,2.65.83.67.55,1.03,1.31,1.08,2.27h-1.64c-.04-.52-.24-.93-.62-1.24s-.88-.47-1.52-.47c-.59,0-1.06.13-1.4.38-.35.25-.52.58-.52.99,0,.32.1.59.31.8s.47.38.79.5c.32.13.76.27,1.32.42.71.19,1.28.38,1.73.57.44.19.83.46,1.14.84s.48.86.5,1.46c0,.54-.15,1.03-.45,1.46-.3.43-.72.77-1.27,1.02s-1.17.37-1.88.37c-.76,0-1.43-.13-2.03-.39Z"/>
        <path class="cls-2" d="M150.84,122.7c-.22-.22-.32-.48-.32-.79s.11-.58.32-.79.48-.32.79-.32.56.11.77.32.31.48.31.79-.1.58-.31.79-.47.32-.77.32-.58-.11-.79-.32ZM152.42,124.63v9.86h-1.64v-9.86h1.64Z"/>
        <path class="cls-2" d="M157,134.03c-.75-.42-1.34-1.02-1.76-1.79-.43-.77-.64-1.67-.64-2.69s.22-1.9.66-2.67c.44-.77,1.03-1.37,1.79-1.78.76-.41,1.6-.62,2.54-.62s1.78.21,2.54.62c.76.41,1.35,1.01,1.79,1.77s.66,1.66.66,2.68-.23,1.92-.68,2.69c-.45.77-1.06,1.37-1.83,1.79-.77.42-1.62.63-2.56.63s-1.76-.21-2.51-.63ZM161.17,132.8c.52-.28.93-.69,1.25-1.24.32-.55.48-1.22.48-2.02s-.16-1.46-.47-2.02-.72-.96-1.22-1.23c-.5-.27-1.05-.4-1.64-.4s-1.15.13-1.65.4c-.5.27-.9.68-1.2,1.23s-.45,1.22-.45,2.02.15,1.48.44,2.03c.29.55.69.96,1.18,1.23.49.27,1.03.4,1.62.4s1.14-.14,1.66-.41Z"/>
        <path class="cls-2" d="M174.45,125.54c.74.73,1.12,1.77,1.12,3.14v5.81h-1.62v-5.58c0-.98-.25-1.74-.74-2.26-.49-.52-1.16-.78-2.02-.78s-1.55.27-2.06.81c-.51.54-.77,1.33-.77,2.36v5.45h-1.64v-9.86h1.64v1.4c.32-.5.77-.89,1.32-1.17.56-.28,1.17-.41,1.84-.41,1.2,0,2.17.36,2.92,1.09Z"/>
        <path class="cls-2" d="M23.52,150.5v4.08h-4.07v-4.07h4.07Z"/>
        <path class="cls-2" d="M40.8,154.16c.86-.79,1.59-1.61,2.19-2.47.59-.86.89-1.7.89-2.53,0-.78-.19-1.39-.57-1.84-.38-.45-.99-.67-1.83-.67s-1.45.25-1.9.76c-.45.51-.69,1.19-.73,2.04h-1.58c.05-1.34.46-2.38,1.22-3.11.77-.73,1.76-1.1,2.97-1.1s2.22.34,2.94,1.03c.73.68,1.09,1.63,1.09,2.83,0,1-.3,1.97-.89,2.91-.59.94-1.27,1.77-2.02,2.48-.76.71-1.72,1.54-2.9,2.49h6.19v1.37h-8.66v-1.17c1.52-1.22,2.72-2.23,3.58-3.01Z"/>
        <path class="cls-2" d="M60.16,152.22c-.71.69-1.8,1.04-3.27,1.04h-2.41v5.24h-1.64v-12.55h4.05c1.42,0,2.49.34,3.23,1.03.74.68,1.11,1.57,1.11,2.65s-.36,1.91-1.07,2.6ZM58.91,151.31c.43-.4.65-.96.65-1.69,0-1.55-.89-2.32-2.66-2.32h-2.41v4.61h2.41c.91,0,1.58-.2,2.02-.59Z"/>
        <path class="cls-2" d="M70.18,148.93c.6.32,1.07.8,1.41,1.43.34.64.51,1.41.51,2.32v5.81h-1.62v-5.58c0-.98-.25-1.74-.74-2.26-.49-.52-1.16-.78-2.02-.78s-1.55.27-2.06.81c-.51.54-.77,1.33-.77,2.36v5.45h-1.64v-13.32h1.64v4.86c.32-.5.77-.89,1.34-1.17.57-.28,1.21-.41,1.92-.41.74,0,1.42.16,2.02.48Z"/>
        <path class="cls-2" d="M76.58,158.03c-.75-.42-1.34-1.02-1.76-1.79-.43-.77-.64-1.67-.64-2.69s.22-1.9.66-2.67c.44-.77,1.03-1.37,1.79-1.78.76-.41,1.6-.62,2.54-.62s1.78.21,2.54.62c.76.41,1.35,1.01,1.79,1.77s.66,1.66.66,2.68-.23,1.92-.68,2.69c-.45.77-1.06,1.37-1.83,1.79-.77.42-1.62.63-2.56.63s-1.76-.21-2.51-.63ZM80.75,156.8c.52-.28.93-.69,1.25-1.24.32-.55.48-1.22.48-2.02s-.16-1.46-.47-2.02-.72-.96-1.22-1.23c-.5-.27-1.05-.4-1.64-.4s-1.15.13-1.65.4c-.5.27-.9.68-1.2,1.23s-.45,1.22-.45,2.02.15,1.48.44,2.03c.29.55.69.96,1.18,1.23.49.27,1.03.4,1.62.4s1.14-.14,1.66-.41Z"/>
        <path class="cls-2" d="M88.3,149.98v5.81c0,.48.1.82.31,1.02.2.2.56.3,1.06.3h1.21v1.39h-1.48c-.91,0-1.6-.21-2.05-.63-.46-.42-.68-1.11-.68-2.07v-5.81h-1.28v-1.35h1.28v-2.48h1.64v2.48h2.57v1.35h-2.57Z"/>
        <path class="cls-2" d="M94.65,158.03c-.75-.42-1.34-1.02-1.76-1.79-.43-.77-.64-1.67-.64-2.69s.22-1.9.66-2.67c.44-.77,1.03-1.37,1.79-1.78.76-.41,1.6-.62,2.54-.62s1.78.21,2.54.62c.76.41,1.35,1.01,1.79,1.77s.66,1.66.66,2.68-.23,1.92-.68,2.69c-.45.77-1.06,1.37-1.83,1.79-.77.42-1.62.63-2.56.63s-1.76-.21-2.51-.63ZM98.82,156.8c.52-.28.93-.69,1.25-1.24.32-.55.48-1.22.48-2.02s-.16-1.46-.47-2.02-.72-.96-1.22-1.23c-.5-.27-1.05-.4-1.64-.4s-1.15.13-1.65.4c-.5.27-.9.68-1.2,1.23s-.45,1.22-.45,2.02.15,1.48.44,2.03c.29.55.69.96,1.18,1.23.49.27,1.03.4,1.62.4s1.14-.14,1.66-.41Z"/>
        <path class="cls-2" d="M110.69,149.03c.64.37,1.12.84,1.43,1.4v-1.8h1.66v10.08c0,.9-.19,1.7-.58,2.4-.38.7-.93,1.25-1.65,1.65-.71.4-1.55.59-2.49.59-1.3,0-2.38-.31-3.24-.92-.86-.61-1.37-1.45-1.53-2.5h1.62c.18.6.55,1.08,1.12,1.45.56.37,1.24.55,2.03.55.9,0,1.63-.28,2.21-.85.57-.56.85-1.36.85-2.38v-2.07c-.32.58-.8,1.06-1.44,1.44-.64.38-1.38.58-2.23.58s-1.67-.22-2.39-.65c-.71-.43-1.27-1.04-1.68-1.82-.41-.78-.61-1.67-.61-2.66s.2-1.89.61-2.66c.41-.76.97-1.35,1.68-1.77.71-.42,1.51-.63,2.39-.63s1.6.19,2.24.56ZM111.67,151.6c-.3-.55-.71-.98-1.21-1.27-.51-.29-1.07-.44-1.68-.44s-1.17.14-1.67.43-.91.71-1.21,1.26-.45,1.2-.45,1.94.15,1.41.45,1.97.7.98,1.21,1.28,1.06.44,1.67.44,1.17-.15,1.68-.44c.51-.29.92-.72,1.21-1.28s.45-1.21.45-1.95-.15-1.39-.45-1.94Z"/>
        <path class="cls-2" d="M119.42,148.92c.53-.31,1.19-.47,1.95-.47v1.69h-.43c-1.84,0-2.75,1-2.75,2.99v5.36h-1.64v-9.86h1.64v1.6c.29-.56.7-1,1.23-1.31Z"/>
        <path class="cls-2" d="M123.26,150.87c.41-.76.97-1.35,1.68-1.77.71-.42,1.51-.63,2.39-.63s1.61.19,2.25.56c.64.37,1.11.84,1.42,1.4v-1.8h1.66v9.86h-1.66v-1.84c-.32.58-.81,1.05-1.45,1.43s-1.39.57-2.24.57-1.67-.22-2.38-.65c-.71-.43-1.27-1.04-1.67-1.82-.41-.78-.61-1.67-.61-2.66s.2-1.89.61-2.66ZM130.55,151.6c-.3-.55-.71-.98-1.21-1.27-.51-.29-1.07-.44-1.68-.44s-1.17.14-1.67.43-.91.71-1.21,1.26-.45,1.2-.45,1.94.15,1.41.45,1.97.7.98,1.21,1.28,1.06.44,1.67.44,1.17-.15,1.68-.44c.51-.29.92-.72,1.21-1.28s.45-1.21.45-1.95-.15-1.39-.45-1.94Z"/>
        <path class="cls-2" d="M138.52,149.03c.64-.38,1.39-.57,2.24-.57s1.67.21,2.39.63c.71.42,1.27,1.01,1.68,1.77.41.76.61,1.65.61,2.66s-.2,1.88-.61,2.66c-.41.78-.97,1.39-1.68,1.82-.71.43-1.51.65-2.39.65s-1.58-.19-2.22-.57c-.64-.38-1.13-.85-1.47-1.41v6.5h-1.64v-14.54h1.64v1.82c.32-.56.81-1.04,1.45-1.41ZM143.31,151.58c-.3-.55-.71-.97-1.21-1.26-.51-.29-1.07-.43-1.68-.43s-1.16.15-1.67.44c-.51.29-.92.72-1.22,1.28-.31.56-.46,1.2-.46,1.93s.15,1.4.46,1.95.71.98,1.22,1.28c.51.29,1.06.44,1.67.44s1.17-.15,1.68-.44c.51-.29.91-.72,1.21-1.28.3-.56.45-1.21.45-1.97s-.15-1.39-.45-1.94Z"/>
        <path class="cls-2" d="M154.51,148.93c.6.32,1.07.8,1.41,1.43.34.64.51,1.41.51,2.32v5.81h-1.62v-5.58c0-.98-.25-1.74-.74-2.26-.49-.52-1.16-.78-2.02-.78s-1.55.27-2.06.81c-.51.54-.77,1.33-.77,2.36v5.45h-1.64v-13.32h1.64v4.86c.32-.5.77-.89,1.34-1.17.57-.28,1.21-.41,1.92-.41.74,0,1.42.16,2.02.48Z"/>
        <path class="cls-2" d="M168.06,154.17h-7.88c.06.97.39,1.73,1,2.28s1.34.82,2.21.82c.71,0,1.3-.17,1.77-.5s.81-.77,1-1.32h1.76c-.26.95-.79,1.72-1.58,2.31-.79.59-1.78.89-2.95.89-.94,0-1.77-.21-2.51-.63-.74-.42-1.32-1.02-1.74-1.79-.42-.77-.63-1.67-.63-2.69s.2-1.91.61-2.68c.41-.77.98-1.36,1.72-1.77s1.59-.62,2.55-.62,1.76.2,2.48.61c.72.41,1.27.97,1.66,1.68.39.71.59,1.52.59,2.42,0,.31-.02.64-.05.99ZM166.01,151.23c-.28-.45-.65-.79-1.12-1.03s-1-.35-1.57-.35c-.83,0-1.53.26-2.12.79s-.92,1.26-1,2.2h6.23c0-.62-.14-1.16-.41-1.61Z"/>
        <path class="cls-2" d="M173.15,148.92c.53-.31,1.19-.47,1.95-.47v1.69h-.43c-1.84,0-2.75,1-2.75,2.99v5.36h-1.64v-9.86h1.64v1.6c.29-.56.7-1,1.23-1.31Z"/>
        <path class="cls-2" d="M23.52,174.5v4.08h-4.07v-4.07h4.07Z"/>
        <path class="cls-2" d="M36.99,170.97v-1.49h3.38v13.01h-1.66v-11.52h-1.73Z"/>
        <path class="cls-2" d="M58.62,169.95l-4.73,12.55h-1.89l-4.73-12.55h1.75l3.94,10.82,3.94-10.82h1.73Z"/>
        <path class="cls-2" d="M60.48,170.7c-.22-.22-.32-.48-.32-.79s.11-.58.32-.79.48-.32.79-.32.56.11.77.32.31.48.31.79-.1.58-.31.79-.47.32-.77.32-.58-.11-.79-.32ZM62.06,172.63v9.86h-1.64v-9.86h1.64Z"/>
        <path class="cls-2" d="M64.85,174.87c.41-.76.97-1.35,1.68-1.77.71-.42,1.52-.63,2.4-.63.77,0,1.48.18,2.14.53.66.35,1.16.82,1.51,1.4v-5.22h1.66v13.32h-1.66v-1.85c-.32.59-.8,1.07-1.44,1.45-.64.38-1.38.57-2.23.57s-1.67-.22-2.39-.65c-.71-.43-1.27-1.04-1.68-1.82-.41-.78-.61-1.67-.61-2.66s.2-1.89.61-2.66ZM72.14,175.6c-.3-.55-.71-.98-1.21-1.27-.51-.29-1.07-.44-1.68-.44s-1.17.14-1.67.43-.91.71-1.21,1.26-.45,1.2-.45,1.94.15,1.41.45,1.97.7.98,1.21,1.28,1.06.44,1.67.44,1.17-.15,1.68-.44c.51-.29.92-.72,1.21-1.28s.45-1.21.45-1.95-.15-1.39-.45-1.94Z"/>
        <path class="cls-2" d="M85.97,178.17h-7.88c.06.97.39,1.73,1,2.28s1.34.82,2.21.82c.71,0,1.3-.17,1.77-.5s.81-.77,1-1.32h1.76c-.26.95-.79,1.72-1.58,2.31-.79.59-1.78.89-2.95.89-.94,0-1.77-.21-2.51-.63-.74-.42-1.32-1.02-1.74-1.79-.42-.77-.63-1.67-.63-2.69s.2-1.91.61-2.68c.41-.77.98-1.36,1.72-1.77s1.59-.62,2.55-.62,1.76.2,2.48.61c.72.41,1.27.97,1.66,1.68.39.71.59,1.52.59,2.42,0,.31-.02.64-.05.99ZM83.91,175.23c-.28-.45-.65-.79-1.12-1.03s-1-.35-1.57-.35c-.83,0-1.53.26-2.12.79s-.92,1.26-1,2.2h6.23c0-.62-.14-1.16-.41-1.61Z"/>
        <path class="cls-2" d="M89.97,182.03c-.75-.42-1.34-1.02-1.76-1.79-.43-.77-.64-1.67-.64-2.69s.22-1.9.66-2.67c.44-.77,1.03-1.37,1.79-1.78.76-.41,1.6-.62,2.54-.62s1.78.21,2.54.62c.76.41,1.35,1.01,1.79,1.77s.66,1.66.66,2.68-.23,1.92-.68,2.69c-.45.77-1.06,1.37-1.83,1.79-.77.42-1.62.63-2.56.63s-1.76-.21-2.51-.63ZM94.14,180.8c.52-.28.93-.69,1.25-1.24.32-.55.48-1.22.48-2.02s-.16-1.46-.47-2.02-.72-.96-1.22-1.23c-.5-.27-1.05-.4-1.64-.4s-1.15.13-1.65.4c-.5.27-.9.68-1.2,1.23s-.45,1.22-.45,2.02.15,1.48.44,2.03c.29.55.69.96,1.18,1.23.49.27,1.03.4,1.62.4s1.14-.14,1.66-.41Z"/>
        <path class="cls-2" d="M106.01,173.03c.64.37,1.12.84,1.43,1.4v-1.8h1.66v10.08c0,.9-.19,1.7-.58,2.4-.38.7-.93,1.25-1.65,1.65-.71.4-1.55.59-2.49.59-1.3,0-2.38-.31-3.24-.92-.86-.61-1.37-1.45-1.53-2.5h1.62c.18.6.55,1.08,1.12,1.45.56.37,1.24.55,2.03.55.9,0,1.63-.28,2.21-.85.57-.56.85-1.36.85-2.38v-2.07c-.32.58-.8,1.06-1.44,1.44-.64.38-1.38.58-2.23.58s-1.67-.22-2.39-.65c-.71-.43-1.27-1.04-1.68-1.82-.41-.78-.61-1.67-.61-2.66s.2-1.89.61-2.66c.41-.76.97-1.35,1.68-1.77.71-.42,1.51-.63,2.39-.63s1.6.19,2.24.56ZM106.99,175.6c-.3-.55-.71-.98-1.21-1.27-.51-.29-1.07-.44-1.68-.44s-1.17.14-1.67.43-.91.71-1.21,1.26-.45,1.2-.45,1.94.15,1.41.45,1.97.7.98,1.21,1.28,1.06.44,1.67.44,1.17-.15,1.68-.44c.51-.29.92-.72,1.21-1.28s.45-1.21.45-1.95-.15-1.39-.45-1.94Z"/>
        <path class="cls-2" d="M114.74,172.92c.53-.31,1.19-.47,1.95-.47v1.69h-.43c-1.84,0-2.75,1-2.75,2.99v5.36h-1.64v-9.86h1.64v1.6c.29-.56.7-1,1.23-1.31Z"/>
        <path class="cls-2" d="M118.58,174.87c.41-.76.97-1.35,1.68-1.77.71-.42,1.51-.63,2.39-.63s1.61.19,2.25.56c.64.37,1.11.84,1.42,1.4v-1.8h1.66v9.86h-1.66v-1.84c-.32.58-.81,1.05-1.45,1.43s-1.39.57-2.24.57-1.67-.22-2.38-.65c-.71-.43-1.27-1.04-1.67-1.82-.41-.78-.61-1.67-.61-2.66s.2-1.89.61-2.66ZM125.87,175.6c-.3-.55-.71-.98-1.21-1.27-.51-.29-1.07-.44-1.68-.44s-1.17.14-1.67.43-.91.71-1.21,1.26-.45,1.2-.45,1.94.15,1.41.45,1.97.7.98,1.21,1.28,1.06.44,1.67.44,1.17-.15,1.68-.44c.51-.29.92-.72,1.21-1.28s.45-1.21.45-1.95-.15-1.39-.45-1.94Z"/>
        <path class="cls-2" d="M133.84,173.03c.64-.38,1.39-.57,2.24-.57s1.67.21,2.39.63c.71.42,1.27,1.01,1.68,1.77.41.76.61,1.65.61,2.66s-.2,1.88-.61,2.66c-.41.78-.97,1.39-1.68,1.82-.71.43-1.51.65-2.39.65s-1.58-.19-2.22-.57c-.64-.38-1.13-.85-1.47-1.41v6.5h-1.64v-14.54h1.64v1.82c.32-.56.81-1.04,1.45-1.41ZM138.63,175.58c-.3-.55-.71-.97-1.21-1.26-.51-.29-1.07-.43-1.68-.43s-1.16.15-1.67.44c-.51.29-.92.72-1.22,1.28-.31.56-.46,1.2-.46,1.93s.15,1.4.46,1.95.71.98,1.22,1.28c.51.29,1.06.44,1.67.44s1.17-.15,1.68-.44c.51-.29.91-.72,1.21-1.28.3-.56.45-1.21.45-1.97s-.15-1.39-.45-1.94Z"/>
        <path class="cls-2" d="M149.83,172.93c.6.32,1.07.8,1.41,1.43.34.64.51,1.41.51,2.32v5.81h-1.62v-5.58c0-.98-.25-1.74-.74-2.26-.49-.52-1.16-.78-2.02-.78s-1.55.27-2.06.81c-.51.54-.77,1.33-.77,2.36v5.45h-1.64v-13.32h1.64v4.86c.32-.5.77-.89,1.34-1.17.57-.28,1.21-.41,1.92-.41.74,0,1.42.16,2.02.48Z"/>
        <path class="cls-2" d="M163.38,178.17h-7.88c.06.97.39,1.73,1,2.28s1.34.82,2.21.82c.71,0,1.3-.17,1.77-.5s.81-.77,1-1.32h1.76c-.26.95-.79,1.72-1.58,2.31-.79.59-1.78.89-2.95.89-.94,0-1.77-.21-2.51-.63-.74-.42-1.32-1.02-1.74-1.79-.42-.77-.63-1.67-.63-2.69s.2-1.91.61-2.68c.41-.77.98-1.36,1.72-1.77s1.59-.62,2.55-.62,1.76.2,2.48.61c.72.41,1.27.97,1.66,1.68.39.71.59,1.52.59,2.42,0,.31-.02.64-.05.99ZM161.33,175.23c-.28-.45-.65-.79-1.12-1.03s-1-.35-1.57-.35c-.83,0-1.53.26-2.12.79s-.92,1.26-1,2.2h6.23c0-.62-.14-1.16-.41-1.61Z"/>
        <path class="cls-2" d="M168.47,172.92c.53-.31,1.19-.47,1.95-.47v1.69h-.43c-1.84,0-2.75,1-2.75,2.99v5.36h-1.64v-9.86h1.64v1.6c.29-.56.7-1,1.23-1.31Z"/>
        <path class="cls-2" d="M23.52,198.5v4.08h-4.07v-4.07h4.07Z"/>
        <path class="cls-2" d="M40.8,202.16c.86-.79,1.59-1.61,2.19-2.47.59-.86.89-1.7.89-2.53,0-.78-.19-1.39-.57-1.84-.38-.45-.99-.67-1.83-.67s-1.45.25-1.9.76c-.45.51-.69,1.19-.73,2.04h-1.58c.05-1.34.46-2.38,1.22-3.11.77-.73,1.76-1.1,2.97-1.1s2.22.34,2.94,1.03c.73.68,1.09,1.63,1.09,2.83,0,1-.3,1.97-.89,2.91-.59.94-1.27,1.77-2.02,2.48-.76.71-1.72,1.54-2.9,2.49h6.19v1.37h-8.66v-1.17c1.52-1.22,2.72-2.23,3.58-3.01Z"/>
        <path class="cls-2" d="M56.07,194.9h-6.32v4.1c.28-.38.68-.7,1.22-.94s1.12-.37,1.75-.37c1,0,1.81.21,2.43.62.62.41,1.07.95,1.34,1.6.27.65.41,1.35.41,2.08,0,.86-.16,1.64-.49,2.32-.32.68-.82,1.22-1.48,1.62-.67.4-1.49.59-2.48.59-1.26,0-2.28-.32-3.06-.97-.78-.65-1.25-1.51-1.42-2.59h1.6c.16.68.49,1.22.99,1.6.5.38,1.14.58,1.91.58.95,0,1.66-.29,2.14-.86.48-.57.72-1.32.72-2.26s-.24-1.66-.72-2.17-1.19-.77-2.12-.77c-.64,0-1.19.15-1.67.46-.47.31-.82.72-1.04,1.25h-1.55v-7.34h7.83v1.44Z"/>
        <path class="cls-2" d="M60.08,195.02c.67-1.16,1.85-1.74,3.53-1.74s2.84.58,3.51,1.74c.67,1.16,1.01,2.77,1.01,4.83s-.34,3.73-1.01,4.9c-.67,1.16-1.84,1.75-3.51,1.75s-2.86-.58-3.53-1.75c-.67-1.16-1.01-2.8-1.01-4.9s.34-3.67,1.01-4.83ZM66.3,197.2c-.14-.73-.42-1.31-.85-1.75-.43-.44-1.04-.67-1.85-.67s-1.44.22-1.86.67c-.43.44-.71,1.03-.85,1.75s-.21,1.61-.21,2.66.07,1.99.21,2.72c.14.73.42,1.32.85,1.76.43.44,1.05.67,1.86.67s1.42-.22,1.85-.67c.43-.44.71-1.03.85-1.76.14-.73.21-1.64.21-2.72s-.07-1.93-.21-2.66Z"/>
        <path class="cls-2" d="M80.01,200.61h-3.83v3.89h-1.53v-3.89h-3.82v-1.39h3.82v-3.91h1.53v3.91h3.83v1.39Z"/>
        <path class="cls-2" d="M89.39,195.28v4.19h4.57v1.35h-4.57v4.32h5.11v1.35h-6.75v-12.56h6.75v1.35h-5.11Z"/>
        <path class="cls-2" d="M96.98,198.87c.41-.76.97-1.35,1.68-1.77.71-.42,1.52-.63,2.4-.63.77,0,1.48.18,2.14.53.66.35,1.16.82,1.51,1.4v-5.22h1.66v13.32h-1.66v-1.85c-.32.59-.8,1.07-1.44,1.45-.64.38-1.38.57-2.23.57s-1.67-.22-2.39-.65c-.71-.43-1.27-1.04-1.68-1.82-.41-.78-.61-1.67-.61-2.66s.2-1.89.61-2.66ZM104.27,199.6c-.3-.55-.71-.98-1.21-1.27-.51-.29-1.07-.44-1.68-.44s-1.17.14-1.67.43-.91.71-1.21,1.26-.45,1.2-.45,1.94.15,1.41.45,1.97.7.98,1.21,1.28,1.06.44,1.67.44,1.17-.15,1.68-.44c.51-.29.92-.72,1.21-1.28s.45-1.21.45-1.95-.15-1.39-.45-1.94Z"/>
        <path class="cls-2" d="M109.2,194.7c-.22-.22-.32-.48-.32-.79s.11-.58.32-.79.48-.32.79-.32.56.11.77.32.31.48.31.79-.1.58-.31.79-.47.32-.77.32-.58-.11-.79-.32ZM110.79,196.63v9.86h-1.64v-9.86h1.64Z"/>
        <path class="cls-2" d="M115.57,197.98v5.81c0,.48.1.82.31,1.02.2.2.56.3,1.06.3h1.21v1.39h-1.48c-.91,0-1.6-.21-2.05-.63-.46-.42-.68-1.11-.68-2.07v-5.81h-1.28v-1.35h1.28v-2.48h1.64v2.48h2.57v1.35h-2.57Z"/>
        <path class="cls-2" d="M129.07,202.17h-7.88c.06.97.39,1.73,1,2.28s1.34.82,2.21.82c.71,0,1.3-.17,1.77-.5s.81-.77,1-1.32h1.76c-.26.95-.79,1.72-1.58,2.31-.79.59-1.78.89-2.95.89-.94,0-1.77-.21-2.51-.63-.74-.42-1.32-1.02-1.74-1.79-.42-.77-.63-1.67-.63-2.69s.2-1.91.61-2.68c.41-.77.98-1.36,1.72-1.77s1.59-.62,2.55-.62,1.76.2,2.48.61c.72.41,1.27.97,1.66,1.68.39.71.59,1.52.59,2.42,0,.31-.02.64-.05.99ZM127.02,199.23c-.28-.45-.65-.79-1.12-1.03s-1-.35-1.57-.35c-.83,0-1.53.26-2.12.79s-.92,1.26-1,2.2h6.23c0-.62-.14-1.16-.41-1.61Z"/>
        <path class="cls-2" d="M131.29,198.87c.41-.76.97-1.35,1.68-1.77.71-.42,1.52-.63,2.4-.63.77,0,1.48.18,2.14.53.66.35,1.16.82,1.51,1.4v-5.22h1.66v13.32h-1.66v-1.85c-.32.59-.8,1.07-1.44,1.45-.64.38-1.38.57-2.23.57s-1.67-.22-2.39-.65c-.71-.43-1.27-1.04-1.68-1.82-.41-.78-.61-1.67-.61-2.66s.2-1.89.61-2.66ZM138.58,199.6c-.3-.55-.71-.98-1.21-1.27-.51-.29-1.07-.44-1.68-.44s-1.17.14-1.67.43-.91.71-1.21,1.26-.45,1.2-.45,1.94.15,1.41.45,1.97.7.98,1.21,1.28,1.06.44,1.67.44,1.17-.15,1.68-.44c.51-.29.92-.72,1.21-1.28s.45-1.21.45-1.95-.15-1.39-.45-1.94Z"/>
        <path class="cls-2" d="M155.58,200.22c-.71.69-1.8,1.04-3.27,1.04h-2.41v5.24h-1.64v-12.55h4.05c1.42,0,2.49.34,3.23,1.03.74.68,1.11,1.57,1.11,2.65s-.36,1.91-1.07,2.6ZM154.33,199.31c.43-.4.65-.96.65-1.69,0-1.55-.89-2.32-2.66-2.32h-2.41v4.61h2.41c.91,0,1.58-.2,2.02-.59Z"/>
        <path class="cls-2" d="M165.6,196.93c.6.32,1.07.8,1.41,1.43.34.64.51,1.41.51,2.32v5.81h-1.62v-5.58c0-.98-.25-1.74-.74-2.26-.49-.52-1.16-.78-2.02-.78s-1.55.27-2.06.81c-.51.54-.77,1.33-.77,2.36v5.45h-1.64v-13.32h1.64v4.86c.32-.5.77-.89,1.34-1.17.57-.28,1.21-.41,1.92-.41.74,0,1.42.16,2.02.48Z"/>
        <path class="cls-2" d="M171.99,206.03c-.75-.42-1.34-1.02-1.76-1.79-.43-.77-.64-1.67-.64-2.69s.22-1.9.66-2.67c.44-.77,1.03-1.37,1.79-1.78.76-.41,1.6-.62,2.54-.62s1.78.21,2.54.62c.76.41,1.35,1.01,1.79,1.77s.66,1.66.66,2.68-.23,1.92-.68,2.69c-.45.77-1.06,1.37-1.83,1.79-.77.42-1.62.63-2.56.63s-1.76-.21-2.51-.63ZM176.16,204.8c.52-.28.93-.69,1.25-1.24.32-.55.48-1.22.48-2.02s-.16-1.46-.47-2.02-.72-.96-1.22-1.23c-.5-.27-1.05-.4-1.64-.4s-1.15.13-1.65.4c-.5.27-.9.68-1.2,1.23s-.45,1.22-.45,2.02.15,1.48.44,2.03c.29.55.69.96,1.18,1.23.49.27,1.03.4,1.62.4s1.14-.14,1.66-.41Z"/>
        <path class="cls-2" d="M183.72,197.98v5.81c0,.48.1.82.31,1.02.2.2.56.3,1.06.3h1.21v1.39h-1.48c-.91,0-1.6-.21-2.05-.63-.46-.42-.68-1.11-.68-2.07v-5.81h-1.28v-1.35h1.28v-2.48h1.64v2.48h2.57v1.35h-2.57Z"/>
        <path class="cls-2" d="M190.07,206.03c-.75-.42-1.34-1.02-1.76-1.79-.43-.77-.64-1.67-.64-2.69s.22-1.9.66-2.67c.44-.77,1.03-1.37,1.79-1.78.76-.41,1.6-.62,2.54-.62s1.78.21,2.54.62c.76.41,1.35,1.01,1.79,1.77s.66,1.66.66,2.68-.23,1.92-.68,2.69c-.45.77-1.06,1.37-1.83,1.79-.77.42-1.62.63-2.56.63s-1.76-.21-2.51-.63ZM194.23,204.8c.52-.28.93-.69,1.25-1.24.32-.55.48-1.22.48-2.02s-.16-1.46-.47-2.02-.72-.96-1.22-1.23c-.5-.27-1.05-.4-1.64-.4s-1.15.13-1.65.4c-.5.27-.9.68-1.2,1.23s-.45,1.22-.45,2.02.15,1.48.44,2.03c.29.55.69.96,1.18,1.23.49.27,1.03.4,1.62.4s1.14-.14,1.66-.41Z"/>
        <path class="cls-2" d="M23.52,222.5v4.08h-4.07v-4.07h4.07Z"/>
        <path class="cls-2" d="M38.66,218.16c.77-.62,1.76-.94,2.99-.94.82,0,1.52.15,2.11.44.59.29,1.04.69,1.35,1.2s.46,1.07.46,1.71c0,.74-.21,1.39-.64,1.93s-.98.89-1.67,1.04v.09c.78.19,1.4.57,1.85,1.13.46.56.68,1.3.68,2.21,0,.68-.16,1.3-.47,1.84-.31.55-.78.98-1.4,1.29-.62.31-1.37.47-2.25.47-1.27,0-2.32-.33-3.13-1-.82-.67-1.27-1.61-1.37-2.83h1.58c.08.72.38,1.31.88,1.76.5.46,1.18.68,2.02.68s1.48-.22,1.92-.66c.44-.44.66-1,.66-1.7,0-.9-.3-1.55-.9-1.94-.6-.4-1.51-.59-2.72-.59h-.41v-1.37h.43c1.1-.01,1.94-.2,2.5-.55.56-.35.85-.9.85-1.65,0-.64-.21-1.15-.62-1.53-.41-.38-1.01-.58-1.77-.58s-1.34.19-1.8.58c-.46.38-.73.9-.81,1.55h-1.6c.08-1.1.51-1.97,1.28-2.59Z"/>
        <path class="cls-2" d="M55.13,223.2v1.39h-7.18v-1.39h7.18Z"/>
        <path class="cls-2" d="M66.24,218.9h-6.32v4.1c.28-.38.68-.7,1.22-.94s1.12-.37,1.75-.37c1,0,1.81.21,2.43.62.62.41,1.07.95,1.34,1.6.27.65.41,1.35.41,2.08,0,.86-.16,1.64-.49,2.32-.32.68-.82,1.22-1.48,1.62-.67.4-1.49.59-2.48.59-1.26,0-2.28-.32-3.06-.97-.78-.65-1.25-1.51-1.42-2.59h1.6c.16.68.49,1.22.99,1.6.5.38,1.14.58,1.91.58.95,0,1.66-.29,2.14-.86.48-.57.72-1.32.72-2.26s-.24-1.66-.72-2.17-1.19-.77-2.12-.77c-.64,0-1.19.15-1.67.46-.47.31-.82.72-1.04,1.25h-1.55v-7.34h7.83v1.44Z"/>
        <path class="cls-2" d="M87.04,218.04v12.46h-1.64v-9.29l-4.14,9.29h-1.15l-4.16-9.31v9.31h-1.64v-12.46h1.76l4.61,10.3,4.61-10.3h1.75Z"/>
        <path class="cls-2" d="M89.87,218.7c-.22-.22-.32-.48-.32-.79s.11-.58.32-.79.48-.32.79-.32.56.11.77.32.31.48.31.79-.1.58-.31.79-.47.32-.77.32-.58-.11-.79-.32ZM91.45,220.63v9.86h-1.64v-9.86h1.64Z"/>
        <path class="cls-2" d="M101.97,221.54c.74.73,1.12,1.77,1.12,3.14v5.81h-1.62v-5.58c0-.98-.25-1.74-.74-2.26-.49-.52-1.16-.78-2.02-.78s-1.55.27-2.06.81c-.51.54-.77,1.33-.77,2.36v5.45h-1.64v-9.86h1.64v1.4c.32-.5.77-.89,1.32-1.17.56-.28,1.17-.41,1.84-.41,1.2,0,2.17.36,2.92,1.09Z"/>
        <path class="cls-2" d="M105.49,230.28c-.22-.22-.32-.48-.32-.79s.11-.58.32-.79c.22-.22.48-.32.79-.32s.55.11.76.32.31.48.31.79-.1.58-.31.79-.46.32-.76.32-.58-.11-.79-.32Z"/>
        <path class="cls-2" d="M130.12,217.95l-3.64,12.55h-1.84l-2.92-10.1-3.02,10.1-1.82.02-3.51-12.56h1.75l2.74,10.64,3.02-10.64h1.84l2.88,10.6,2.75-10.6h1.76Z"/>
        <path class="cls-2" d="M140.86,226.17h-7.88c.06.97.39,1.73,1,2.28s1.34.82,2.21.82c.71,0,1.3-.17,1.77-.5s.81-.77,1-1.32h1.76c-.26.95-.79,1.72-1.58,2.31-.79.59-1.78.89-2.95.89-.94,0-1.77-.21-2.51-.63-.74-.42-1.32-1.02-1.74-1.79-.42-.77-.63-1.67-.63-2.69s.2-1.91.61-2.68c.41-.77.98-1.36,1.72-1.77s1.59-.62,2.55-.62,1.76.2,2.48.61c.72.41,1.27.97,1.66,1.68.39.71.59,1.52.59,2.42,0,.31-.02.64-.05.99ZM138.81,223.23c-.28-.45-.65-.79-1.12-1.03s-1-.35-1.57-.35c-.83,0-1.53.26-2.12.79s-.92,1.26-1,2.2h6.23c0-.62-.14-1.16-.41-1.61Z"/>
        <path class="cls-2" d="M143.08,222.87c.41-.76.97-1.35,1.68-1.77.71-.42,1.52-.63,2.4-.63.77,0,1.48.18,2.14.53.66.35,1.16.82,1.51,1.4v-5.22h1.66v13.32h-1.66v-1.85c-.32.59-.8,1.07-1.44,1.45-.64.38-1.38.57-2.23.57s-1.67-.22-2.39-.65c-.71-.43-1.27-1.04-1.68-1.82-.41-.78-.61-1.67-.61-2.66s.2-1.89.61-2.66ZM150.37,223.6c-.3-.55-.71-.98-1.21-1.27-.51-.29-1.07-.44-1.68-.44s-1.17.14-1.67.43-.91.71-1.21,1.26-.45,1.2-.45,1.94.15,1.41.45,1.97.7.98,1.21,1.28,1.06.44,1.67.44,1.17-.15,1.68-.44c.51-.29.92-.72,1.21-1.28s.45-1.21.45-1.95-.15-1.39-.45-1.94Z"/>
        <path class="cls-2" d="M155.25,222.87c.41-.76.97-1.35,1.68-1.77.71-.42,1.52-.63,2.4-.63.77,0,1.48.18,2.14.53.66.35,1.16.82,1.51,1.4v-5.22h1.66v13.32h-1.66v-1.85c-.32.59-.8,1.07-1.44,1.45-.64.38-1.38.57-2.23.57s-1.67-.22-2.39-.65c-.71-.43-1.27-1.04-1.68-1.82-.41-.78-.61-1.67-.61-2.66s.2-1.89.61-2.66ZM162.54,223.6c-.3-.55-.71-.98-1.21-1.27-.51-.29-1.07-.44-1.68-.44s-1.17.14-1.67.43-.91.71-1.21,1.26-.45,1.2-.45,1.94.15,1.41.45,1.97.7.98,1.21,1.28,1.06.44,1.67.44,1.17-.15,1.68-.44c.51-.29.92-.72,1.21-1.28s.45-1.21.45-1.95-.15-1.39-.45-1.94Z"/>
        <path class="cls-2" d="M167.47,218.7c-.22-.22-.32-.48-.32-.79s.11-.58.32-.79.48-.32.79-.32.56.11.77.32.31.48.31.79-.1.58-.31.79-.47.32-.77.32-.58-.11-.79-.32ZM169.05,220.63v9.86h-1.64v-9.86h1.64Z"/>
        <path class="cls-2" d="M179.56,221.54c.74.73,1.12,1.77,1.12,3.14v5.81h-1.62v-5.58c0-.98-.25-1.74-.74-2.26-.49-.52-1.16-.78-2.02-.78s-1.55.27-2.06.81c-.51.54-.77,1.33-.77,2.36v5.45h-1.64v-9.86h1.64v1.4c.32-.5.77-.89,1.32-1.17.56-.28,1.17-.41,1.84-.41,1.2,0,2.17.36,2.92,1.09Z"/>
        <path class="cls-2" d="M189.67,221.03c.64.37,1.12.84,1.43,1.4v-1.8h1.66v10.08c0,.9-.19,1.7-.58,2.4-.38.7-.93,1.25-1.65,1.65-.71.4-1.55.59-2.49.59-1.3,0-2.38-.31-3.24-.92-.86-.61-1.37-1.45-1.53-2.5h1.62c.18.6.55,1.08,1.12,1.45.56.37,1.24.55,2.03.55.9,0,1.63-.28,2.21-.85.57-.56.85-1.36.85-2.38v-2.07c-.32.58-.8,1.06-1.44,1.44-.64.38-1.38.58-2.23.58s-1.67-.22-2.39-.65c-.71-.43-1.27-1.04-1.68-1.82-.41-.78-.61-1.67-.61-2.66s.2-1.89.61-2.66c.41-.76.97-1.35,1.68-1.77.71-.42,1.51-.63,2.39-.63s1.6.19,2.24.56ZM190.65,223.6c-.3-.55-.71-.98-1.21-1.27-.51-.29-1.07-.44-1.68-.44s-1.17.14-1.67.43-.91.71-1.21,1.26-.45,1.2-.45,1.94.15,1.41.45,1.97.7.98,1.21,1.28,1.06.44,1.67.44,1.17-.15,1.68-.44c.51-.29.92-.72,1.21-1.28s.45-1.21.45-1.95-.15-1.39-.45-1.94Z"/>
        <path class="cls-2" d="M210.7,217.95l-4.73,12.55h-1.89l-4.73-12.55h1.75l3.94,10.82,3.94-10.82h1.73Z"/>
        <path class="cls-2" d="M212.56,218.7c-.22-.22-.32-.48-.32-.79s.11-.58.32-.79.48-.32.79-.32.56.11.77.32.31.48.31.79-.1.58-.31.79-.47.32-.77.32-.58-.11-.79-.32ZM214.14,220.63v9.86h-1.64v-9.86h1.64Z"/>
        <path class="cls-2" d="M216.93,222.87c.41-.76.97-1.35,1.68-1.77.71-.42,1.52-.63,2.4-.63.77,0,1.48.18,2.14.53.66.35,1.16.82,1.51,1.4v-5.22h1.66v13.32h-1.66v-1.85c-.32.59-.8,1.07-1.44,1.45-.64.38-1.38.57-2.23.57s-1.67-.22-2.39-.65c-.71-.43-1.27-1.04-1.68-1.82-.41-.78-.61-1.67-.61-2.66s.2-1.89.61-2.66ZM224.22,223.6c-.3-.55-.71-.98-1.21-1.27-.51-.29-1.07-.44-1.68-.44s-1.17.14-1.67.43-.91.71-1.21,1.26-.45,1.2-.45,1.94.15,1.41.45,1.97.7.98,1.21,1.28,1.06.44,1.67.44,1.17-.15,1.68-.44c.51-.29.92-.72,1.21-1.28s.45-1.21.45-1.95-.15-1.39-.45-1.94Z"/>
        <path class="cls-2" d="M238.05,226.17h-7.88c.06.97.39,1.73,1,2.28s1.34.82,2.21.82c.71,0,1.3-.17,1.77-.5s.81-.77,1-1.32h1.76c-.26.95-.79,1.72-1.58,2.31-.79.59-1.78.89-2.95.89-.94,0-1.77-.21-2.51-.63-.74-.42-1.32-1.02-1.74-1.79-.42-.77-.63-1.67-.63-2.69s.2-1.91.61-2.68c.41-.77.98-1.36,1.72-1.77s1.59-.62,2.55-.62,1.76.2,2.48.61c.72.41,1.27.97,1.66,1.68.39.71.59,1.52.59,2.42,0,.31-.02.64-.05.99ZM235.99,223.23c-.28-.45-.65-.79-1.12-1.03s-1-.35-1.57-.35c-.83,0-1.53.26-2.12.79s-.92,1.26-1,2.2h6.23c0-.62-.14-1.16-.41-1.61Z"/>
        <path class="cls-2" d="M242.05,230.03c-.75-.42-1.34-1.02-1.76-1.79-.43-.77-.64-1.67-.64-2.69s.22-1.9.66-2.67c.44-.77,1.03-1.37,1.79-1.78.76-.41,1.6-.62,2.54-.62s1.78.21,2.54.62c.76.41,1.35,1.01,1.79,1.77.44.77.66,1.66.66,2.68s-.22,1.92-.67,2.69c-.45.77-1.06,1.37-1.83,1.79-.77.42-1.62.63-2.56.63s-1.76-.21-2.51-.63ZM246.22,228.8c.52-.28.93-.69,1.25-1.24.32-.55.48-1.22.48-2.02s-.16-1.46-.47-2.02-.72-.96-1.22-1.23c-.5-.27-1.05-.4-1.64-.4s-1.15.13-1.65.4c-.5.27-.9.68-1.2,1.23s-.45,1.22-.45,2.02.15,1.48.44,2.03c.29.55.69.96,1.18,1.23.49.27,1.03.4,1.62.4s1.14-.14,1.66-.41Z"/>
        <path class="cls-2" d="M23.52,246.5v4.08h-4.07v-4.07h4.07Z"/>
        <path class="cls-2" d="M36.99,242.97v-1.49h3.38v13.01h-1.66v-11.52h-1.73Z"/>
        <path class="cls-2" d="M62.17,244.93c.6.32,1.07.8,1.42,1.43.35.64.52,1.41.52,2.32v5.81h-1.62v-5.58c0-.98-.24-1.74-.73-2.26-.49-.52-1.14-.78-1.97-.78s-1.53.27-2.03.82-.76,1.33-.76,2.37v5.44h-1.62v-5.58c0-.98-.24-1.74-.73-2.26-.49-.52-1.14-.78-1.97-.78s-1.53.27-2.03.82c-.5.55-.76,1.33-.76,2.37v5.44h-1.64v-9.86h1.64v1.42c.32-.52.76-.91,1.31-1.19.55-.28,1.15-.41,1.81-.41.83,0,1.56.19,2.2.56.64.37,1.11.92,1.42,1.64.28-.7.73-1.24,1.37-1.62.64-.38,1.34-.58,2.12-.58s1.45.16,2.05.48Z"/>
        <path class="cls-2" d="M66.85,242.7c-.22-.22-.32-.48-.32-.79s.11-.58.32-.79.48-.32.79-.32.56.11.77.32.31.48.31.79-.1.58-.31.79-.47.32-.77.32-.58-.11-.79-.32ZM68.43,244.63v9.86h-1.64v-9.86h1.64Z"/>
        <path class="cls-2" d="M78.95,245.54c.74.73,1.12,1.77,1.12,3.14v5.81h-1.62v-5.58c0-.98-.25-1.74-.74-2.26-.49-.52-1.16-.78-2.02-.78s-1.55.27-2.06.81c-.51.54-.77,1.33-.77,2.36v5.45h-1.64v-9.86h1.64v1.4c.32-.5.77-.89,1.32-1.17.56-.28,1.17-.41,1.84-.41,1.2,0,2.17.36,2.92,1.09Z"/>
        <path class="cls-2" d="M82.47,254.28c-.22-.22-.32-.48-.32-.79s.11-.58.32-.79c.22-.22.48-.32.79-.32s.55.11.76.32.31.48.31.79-.1.58-.31.79-.46.32-.76.32-.58-.11-.79-.32Z"/>
        <path class="cls-2" d="M107.1,241.95l-3.64,12.55h-1.84l-2.92-10.1-3.02,10.1-1.82.02-3.51-12.56h1.75l2.74,10.64,3.02-10.64h1.84l2.88,10.6,2.75-10.6h1.76Z"/>
        <path class="cls-2" d="M117.84,250.17h-7.88c.06.97.39,1.73,1,2.28s1.34.82,2.21.82c.71,0,1.3-.17,1.77-.5s.81-.77,1-1.32h1.76c-.26.95-.79,1.72-1.58,2.31-.79.59-1.78.89-2.95.89-.94,0-1.77-.21-2.51-.63-.74-.42-1.32-1.02-1.74-1.79-.42-.77-.63-1.67-.63-2.69s.2-1.91.61-2.68c.41-.77.98-1.36,1.72-1.77s1.59-.62,2.55-.62,1.76.2,2.48.61c.72.41,1.27.97,1.66,1.68.39.71.59,1.52.59,2.42,0,.31-.02.64-.05.99ZM115.79,247.23c-.28-.45-.65-.79-1.12-1.03s-1-.35-1.57-.35c-.83,0-1.53.26-2.12.79s-.92,1.26-1,2.2h6.23c0-.62-.14-1.16-.41-1.61Z"/>
        <path class="cls-2" d="M120.06,246.87c.41-.76.97-1.35,1.68-1.77.71-.42,1.52-.63,2.4-.63.77,0,1.48.18,2.14.53.66.35,1.16.82,1.51,1.4v-5.22h1.66v13.32h-1.66v-1.85c-.32.59-.8,1.07-1.44,1.45-.64.38-1.38.57-2.23.57s-1.67-.22-2.39-.65c-.71-.43-1.27-1.04-1.68-1.82-.41-.78-.61-1.67-.61-2.66s.2-1.89.61-2.66ZM127.35,247.6c-.3-.55-.71-.98-1.21-1.27-.51-.29-1.07-.44-1.68-.44s-1.17.14-1.67.43-.91.71-1.21,1.26-.45,1.2-.45,1.94.15,1.41.45,1.97.7.98,1.21,1.28,1.06.44,1.67.44,1.17-.15,1.68-.44c.51-.29.92-.72,1.21-1.28s.45-1.21.45-1.95-.15-1.39-.45-1.94Z"/>
        <path class="cls-2" d="M132.22,246.87c.41-.76.97-1.35,1.68-1.77.71-.42,1.52-.63,2.4-.63.77,0,1.48.18,2.14.53.66.35,1.16.82,1.51,1.4v-5.22h1.66v13.32h-1.66v-1.85c-.32.59-.8,1.07-1.44,1.45-.64.38-1.38.57-2.23.57s-1.67-.22-2.39-.65c-.71-.43-1.27-1.04-1.68-1.82-.41-.78-.61-1.67-.61-2.66s.2-1.89.61-2.66ZM139.51,247.6c-.3-.55-.71-.98-1.21-1.27-.51-.29-1.07-.44-1.68-.44s-1.17.14-1.67.43-.91.71-1.21,1.26-.45,1.2-.45,1.94.15,1.41.45,1.97.7.98,1.21,1.28,1.06.44,1.67.44,1.17-.15,1.68-.44c.51-.29.92-.72,1.21-1.28s.45-1.21.45-1.95-.15-1.39-.45-1.94Z"/>
        <path class="cls-2" d="M144.45,242.7c-.22-.22-.32-.48-.32-.79s.11-.58.32-.79.48-.32.79-.32.56.11.77.32.31.48.31.79-.1.58-.31.79-.47.32-.77.32-.58-.11-.79-.32ZM146.03,244.63v9.86h-1.64v-9.86h1.64Z"/>
        <path class="cls-2" d="M156.54,245.54c.74.73,1.12,1.77,1.12,3.14v5.81h-1.62v-5.58c0-.98-.25-1.74-.74-2.26-.49-.52-1.16-.78-2.02-.78s-1.55.27-2.06.81c-.51.54-.77,1.33-.77,2.36v5.45h-1.64v-9.86h1.64v1.4c.32-.5.77-.89,1.32-1.17.56-.28,1.17-.41,1.84-.41,1.2,0,2.17.36,2.92,1.09Z"/>
        <path class="cls-2" d="M166.65,245.03c.64.37,1.12.84,1.43,1.4v-1.8h1.66v10.08c0,.9-.19,1.7-.58,2.4-.38.7-.93,1.25-1.65,1.65-.71.4-1.55.59-2.49.59-1.3,0-2.38-.31-3.24-.92-.86-.61-1.37-1.45-1.53-2.5h1.62c.18.6.55,1.08,1.12,1.45.56.37,1.24.55,2.03.55.9,0,1.63-.28,2.21-.85.57-.56.85-1.36.85-2.38v-2.07c-.32.58-.8,1.06-1.44,1.44-.64.38-1.38.58-2.23.58s-1.67-.22-2.39-.65c-.71-.43-1.27-1.04-1.68-1.82-.41-.78-.61-1.67-.61-2.66s.2-1.89.61-2.66c.41-.76.97-1.35,1.68-1.77.71-.42,1.51-.63,2.39-.63s1.6.19,2.24.56ZM167.63,247.6c-.3-.55-.71-.98-1.21-1.27-.51-.29-1.07-.44-1.68-.44s-1.17.14-1.67.43-.91.71-1.21,1.26-.45,1.2-.45,1.94.15,1.41.45,1.97.7.98,1.21,1.28,1.06.44,1.67.44,1.17-.15,1.68-.44c.51-.29.92-.72,1.21-1.28s.45-1.21.45-1.95-.15-1.39-.45-1.94Z"/>
        <path class="cls-2" d="M179.07,254.18c-.65-.29-1.17-.7-1.54-1.22-.37-.52-.56-1.12-.58-1.81h1.75c.06.59.3,1.08.73,1.48.43.4,1.05.6,1.86.6s1.4-.2,1.85-.58.67-.89.67-1.5c0-.48-.13-.87-.4-1.17-.26-.3-.59-.53-.99-.68-.4-.16-.93-.32-1.6-.5-.83-.22-1.49-.43-1.99-.65-.5-.22-.92-.56-1.28-1.02s-.53-1.08-.53-1.86c0-.68.17-1.29.52-1.82.35-.53.84-.94,1.47-1.22s1.35-.43,2.17-.43c1.18,0,2.14.29,2.89.88s1.17,1.37,1.27,2.34h-1.8c-.06-.48-.31-.9-.76-1.27s-1.03-.55-1.76-.55c-.68,0-1.24.18-1.67.53-.43.35-.65.85-.65,1.49,0,.46.13.83.39,1.12.26.29.58.51.95.66.38.15.91.32,1.59.51.83.23,1.49.45,2,.67.5.22.94.56,1.3,1.03s.54,1.09.54,1.88c0,.61-.16,1.19-.49,1.73-.32.54-.8.98-1.44,1.31-.64.34-1.39.5-2.25.5s-1.57-.15-2.22-.44Z"/>
        <path class="cls-2" d="M194.79,244.93c.6.32,1.07.8,1.41,1.43.34.64.51,1.41.51,2.32v5.81h-1.62v-5.58c0-.98-.25-1.74-.74-2.26-.49-.52-1.16-.78-2.02-.78s-1.55.27-2.06.81c-.51.54-.77,1.33-.77,2.36v5.45h-1.64v-13.32h1.64v4.86c.32-.5.77-.89,1.34-1.17.57-.28,1.21-.41,1.92-.41.74,0,1.42.16,2.02.48Z"/>
        <path class="cls-2" d="M201.19,254.03c-.75-.42-1.34-1.02-1.76-1.79-.43-.77-.64-1.67-.64-2.69s.22-1.9.66-2.67c.44-.77,1.03-1.37,1.79-1.78.76-.41,1.6-.62,2.54-.62s1.78.21,2.54.62c.76.41,1.35,1.01,1.79,1.77s.66,1.66.66,2.68-.23,1.92-.68,2.69c-.45.77-1.06,1.37-1.83,1.79-.77.42-1.62.63-2.56.63s-1.76-.21-2.51-.63ZM205.36,252.8c.52-.28.93-.69,1.25-1.24.32-.55.48-1.22.48-2.02s-.16-1.46-.47-2.02-.72-.96-1.22-1.23c-.5-.27-1.05-.4-1.64-.4s-1.15.13-1.65.4c-.5.27-.9.68-1.2,1.23s-.45,1.22-.45,2.02.15,1.48.44,2.03c.29.55.69.96,1.18,1.23.49.27,1.03.4,1.62.4s1.14-.14,1.66-.41Z"/>
        <path class="cls-2" d="M213.79,244.92c.53-.31,1.19-.47,1.95-.47v1.69h-.43c-1.84,0-2.75,1-2.75,2.99v5.36h-1.64v-9.86h1.64v1.6c.29-.56.7-1,1.23-1.31Z"/>
        <path class="cls-2" d="M219.63,245.98v5.81c0,.48.1.82.31,1.02.2.2.56.3,1.06.3h1.21v1.39h-1.48c-.91,0-1.6-.21-2.05-.63-.46-.42-.68-1.11-.68-2.07v-5.81h-1.28v-1.35h1.28v-2.48h1.64v2.48h2.57v1.35h-2.57Z"/>
        <path class="cls-2" d="M239.36,241.95l-4.73,12.55h-1.89l-4.73-12.55h1.75l3.94,10.82,3.94-10.82h1.73Z"/>
        <path class="cls-2" d="M241.21,242.7c-.22-.22-.32-.48-.32-.79s.11-.58.32-.79.48-.32.79-.32.56.11.77.32.31.48.31.79-.1.58-.31.79-.47.32-.77.32-.58-.11-.79-.32ZM242.8,244.63v9.86h-1.64v-9.86h1.64Z"/>
        <path class="cls-2" d="M245.59,246.87c.41-.76.97-1.35,1.68-1.77.71-.42,1.51-.63,2.4-.63.77,0,1.48.18,2.14.53.66.35,1.16.82,1.51,1.4v-5.22h1.66v13.32h-1.66v-1.85c-.32.59-.8,1.07-1.44,1.45-.63.38-1.38.57-2.23.57s-1.67-.22-2.39-.65c-.71-.43-1.27-1.04-1.68-1.82-.41-.78-.61-1.67-.61-2.66s.2-1.89.61-2.66ZM252.88,247.6c-.3-.55-.71-.98-1.21-1.27s-1.07-.44-1.68-.44-1.17.14-1.67.43-.91.71-1.21,1.26-.45,1.2-.45,1.94.15,1.41.45,1.97.7.98,1.21,1.28,1.06.44,1.67.44,1.17-.15,1.68-.44.92-.72,1.21-1.28c.3-.56.45-1.21.45-1.95s-.15-1.39-.45-1.94Z"/>
        <path class="cls-2" d="M266.7,250.17h-7.88c.06.97.39,1.73,1,2.28.61.55,1.34.82,2.21.82.71,0,1.3-.17,1.77-.5s.81-.77,1-1.32h1.76c-.26.95-.79,1.72-1.58,2.31-.79.59-1.78.89-2.95.89-.94,0-1.77-.21-2.51-.63-.74-.42-1.32-1.02-1.74-1.79-.42-.77-.63-1.67-.63-2.69s.2-1.91.61-2.68.98-1.36,1.72-1.77c.74-.41,1.59-.62,2.55-.62s1.76.2,2.48.61c.72.41,1.28.97,1.67,1.68.39.71.58,1.52.58,2.42,0,.31-.02.64-.05.99ZM264.65,247.23c-.28-.45-.65-.79-1.12-1.03-.47-.23-1-.35-1.58-.35-.83,0-1.53.26-2.12.79s-.92,1.26-1,2.2h6.23c0-.62-.14-1.16-.41-1.61Z"/>
        <path class="cls-2" d="M270.71,254.03c-.75-.42-1.34-1.02-1.76-1.79-.43-.77-.64-1.67-.64-2.69s.22-1.9.66-2.67c.44-.77,1.04-1.37,1.79-1.78s1.6-.62,2.54-.62,1.78.21,2.54.62,1.35,1.01,1.79,1.77.66,1.66.66,2.68-.22,1.92-.67,2.69c-.45.77-1.06,1.37-1.83,1.79-.77.42-1.62.63-2.56.63s-1.76-.21-2.51-.63ZM274.87,252.8c.52-.28.93-.69,1.25-1.24.32-.55.48-1.22.48-2.02s-.16-1.46-.47-2.02c-.31-.55-.72-.96-1.22-1.23-.5-.27-1.05-.4-1.64-.4s-1.15.13-1.65.4c-.5.27-.9.68-1.2,1.23-.3.55-.45,1.22-.45,2.02s.15,1.48.44,2.03.69.96,1.18,1.23c.49.27,1.03.4,1.62.4s1.14-.14,1.66-.41Z"/>
        <path class="cls-2" d="M289.26,245.98h-2.07v8.51h-1.64v-8.51h-1.28v-1.35h1.28v-.7c0-1.1.28-1.91.85-2.42.57-.51,1.49-.76,2.75-.76v1.37c-.72,0-1.23.14-1.52.42-.29.28-.44.75-.44,1.39v.7h2.07v1.35Z"/>
        <path class="cls-2" d="M292.95,254.03c-.75-.42-1.34-1.02-1.76-1.79-.43-.77-.64-1.67-.64-2.69s.22-1.9.66-2.67c.44-.77,1.04-1.37,1.79-1.78s1.6-.62,2.54-.62,1.78.21,2.54.62,1.35,1.01,1.79,1.77.66,1.66.66,2.68-.22,1.92-.67,2.69c-.45.77-1.06,1.37-1.83,1.79-.77.42-1.62.63-2.56.63s-1.76-.21-2.51-.63ZM297.12,252.8c.52-.28.93-.69,1.25-1.24.32-.55.48-1.22.48-2.02s-.16-1.46-.47-2.02c-.31-.55-.72-.96-1.22-1.23-.5-.27-1.05-.4-1.64-.4s-1.15.13-1.65.4c-.5.27-.9.68-1.2,1.23-.3.55-.45,1.22-.45,2.02s.15,1.48.44,2.03.69.96,1.18,1.23c.49.27,1.03.4,1.62.4s1.14-.14,1.66-.41Z"/>
        <path class="cls-2" d="M305.55,244.92c.53-.31,1.19-.47,1.95-.47v1.69h-.43c-1.84,0-2.75,1-2.75,2.99v5.36h-1.64v-9.86h1.64v1.6c.29-.56.7-1,1.23-1.31Z"/>
        <path class="cls-2" d="M315.96,254.18c-.65-.29-1.17-.7-1.54-1.22-.37-.52-.56-1.12-.58-1.81h1.75c.06.59.3,1.08.73,1.48.43.4,1.05.6,1.86.6s1.39-.2,1.84-.58.67-.89.67-1.5c0-.48-.13-.87-.4-1.17-.26-.3-.59-.53-.99-.68-.4-.16-.93-.32-1.6-.5-.83-.22-1.49-.43-1.99-.65-.5-.22-.92-.56-1.28-1.02s-.53-1.08-.53-1.86c0-.68.17-1.29.52-1.82.35-.53.84-.94,1.47-1.22s1.35-.43,2.17-.43c1.18,0,2.14.29,2.89.88s1.17,1.37,1.27,2.34h-1.8c-.06-.48-.31-.9-.76-1.27-.44-.37-1.03-.55-1.76-.55-.68,0-1.24.18-1.67.53-.43.35-.65.85-.65,1.49,0,.46.13.83.39,1.12.26.29.58.51.95.66.38.15.91.32,1.59.51.83.23,1.49.45,2,.67.5.22.94.56,1.3,1.03s.54,1.09.54,1.88c0,.61-.16,1.19-.49,1.73-.32.54-.8.98-1.44,1.31-.64.34-1.39.5-2.25.5s-1.57-.15-2.22-.44Z"/>
        <path class="cls-2" d="M326.56,254.03c-.75-.42-1.34-1.02-1.76-1.79-.43-.77-.64-1.67-.64-2.69s.22-1.9.66-2.67c.44-.77,1.04-1.37,1.79-1.78s1.6-.62,2.54-.62,1.78.21,2.54.62,1.35,1.01,1.79,1.77.66,1.66.66,2.68-.22,1.92-.67,2.69c-.45.77-1.06,1.37-1.83,1.79-.77.42-1.62.63-2.56.63s-1.76-.21-2.51-.63ZM330.73,252.8c.52-.28.93-.69,1.25-1.24.32-.55.48-1.22.48-2.02s-.16-1.46-.47-2.02c-.31-.55-.72-.96-1.22-1.23-.5-.27-1.05-.4-1.64-.4s-1.15.13-1.65.4c-.5.27-.9.68-1.2,1.23-.3.55-.45,1.22-.45,2.02s.15,1.48.44,2.03.69.96,1.18,1.23c.49.27,1.03.4,1.62.4s1.14-.14,1.66-.41Z"/>
        <path class="cls-2" d="M336.29,246.87c.41-.76.97-1.35,1.7-1.77.73-.42,1.56-.63,2.49-.63,1.21,0,2.21.29,3,.88s1.3,1.4,1.56,2.45h-1.76c-.17-.6-.5-1.07-.98-1.42-.49-.35-1.09-.52-1.81-.52-.94,0-1.69.32-2.27.96-.58.64-.86,1.55-.86,2.73s.29,2.11.86,2.75c.58.65,1.33.97,2.27.97.72,0,1.32-.17,1.8-.5s.81-.82.99-1.44h1.76c-.26,1.01-.79,1.82-1.58,2.42-.79.61-1.78.91-2.97.91-.94,0-1.77-.21-2.49-.63-.73-.42-1.29-1.01-1.7-1.78-.41-.77-.61-1.67-.61-2.7s.2-1.91.61-2.67Z"/>
        <path class="cls-2" d="M361.13,244.93c.6.32,1.07.8,1.42,1.43.35.64.52,1.41.52,2.32v5.81h-1.62v-5.58c0-.98-.24-1.74-.73-2.26-.49-.52-1.14-.78-1.97-.78s-1.53.27-2.03.82-.76,1.33-.76,2.37v5.44h-1.62v-5.58c0-.98-.24-1.74-.73-2.26-.49-.52-1.14-.78-1.97-.78s-1.53.27-2.03.82-.76,1.33-.76,2.37v5.44h-1.64v-9.86h1.64v1.42c.32-.52.76-.91,1.3-1.19s1.15-.41,1.81-.41c.83,0,1.56.19,2.2.56.64.37,1.11.92,1.42,1.64.28-.7.73-1.24,1.37-1.62s1.34-.58,2.12-.58,1.45.16,2.05.48Z"/>
        <path class="cls-2" d="M374.7,250.17h-7.88c.06.97.39,1.73,1,2.28.61.55,1.34.82,2.21.82.71,0,1.3-.17,1.77-.5s.81-.77,1-1.32h1.76c-.26.95-.79,1.72-1.58,2.31-.79.59-1.78.89-2.95.89-.94,0-1.77-.21-2.51-.63-.74-.42-1.32-1.02-1.74-1.79-.42-.77-.63-1.67-.63-2.69s.2-1.91.61-2.68.98-1.36,1.72-1.77c.74-.41,1.59-.62,2.55-.62s1.76.2,2.48.61c.72.41,1.28.97,1.67,1.68.39.71.58,1.52.58,2.42,0,.31-.02.64-.05.99ZM372.65,247.23c-.28-.45-.65-.79-1.12-1.03-.47-.23-1-.35-1.58-.35-.83,0-1.53.26-2.12.79s-.92,1.26-1,2.2h6.23c0-.62-.14-1.16-.41-1.61Z"/>
        <path class="cls-2" d="M376.91,246.87c.41-.76.97-1.35,1.68-1.77.71-.42,1.51-.63,2.4-.63.77,0,1.48.18,2.14.53.66.35,1.16.82,1.51,1.4v-5.22h1.66v13.32h-1.66v-1.85c-.32.59-.8,1.07-1.44,1.45-.64.38-1.38.57-2.23.57s-1.67-.22-2.38-.65c-.71-.43-1.28-1.04-1.68-1.82s-.61-1.67-.61-2.66.2-1.89.61-2.66ZM384.2,247.6c-.3-.55-.71-.98-1.21-1.27s-1.07-.44-1.68-.44-1.17.14-1.67.43c-.5.29-.91.71-1.21,1.26-.3.55-.45,1.2-.45,1.94s.15,1.41.45,1.97c.3.56.7.98,1.21,1.28.5.29,1.06.44,1.67.44s1.17-.15,1.68-.44.92-.72,1.21-1.28.45-1.21.45-1.95-.15-1.39-.45-1.94Z"/>
        <path class="cls-2" d="M23.52,270.5v4.08h-4.07v-4.07h4.07Z"/>
        <path class="cls-2" d="M36.99,266.97v-1.49h3.38v13.01h-1.66v-11.52h-1.73Z"/>
        <path class="cls-2" d="M55.67,275.7h-5.47l-1.01,2.79h-1.73l4.54-12.47h1.89l4.52,12.47h-1.73l-1.01-2.79ZM55.2,274.37l-2.27-6.34-2.27,6.34h4.54Z"/>
        <path class="cls-2" d="M62.03,265.17v13.32h-1.64v-13.32h1.64Z"/>
        <path class="cls-2" d="M67.93,269.03c.65-.37,1.39-.56,2.21-.56.89,0,1.69.21,2.39.63.71.42,1.27,1.01,1.67,1.77.41.76.61,1.65.61,2.66s-.2,1.88-.61,2.66c-.41.78-.97,1.39-1.68,1.82-.71.43-1.51.65-2.39.65s-1.6-.19-2.24-.56c-.64-.37-1.12-.85-1.45-1.42v1.82h-1.64v-13.32h1.64v5.29c.34-.59.83-1.07,1.48-1.44ZM72.7,271.58c-.3-.55-.71-.97-1.21-1.26-.51-.29-1.07-.43-1.68-.43s-1.16.15-1.67.44c-.51.29-.92.72-1.22,1.28-.31.56-.46,1.2-.46,1.93s.15,1.4.46,1.95.71.98,1.22,1.28c.51.29,1.06.44,1.67.44s1.17-.15,1.68-.44c.51-.29.91-.72,1.21-1.28.3-.56.45-1.21.45-1.97s-.15-1.39-.45-1.94Z"/>
        <path class="cls-2" d="M85.73,268.63v9.86h-1.64v-1.46c-.31.5-.75.9-1.31,1.18-.56.28-1.17.42-1.84.42-.77,0-1.46-.16-2.07-.48-.61-.32-1.1-.79-1.45-1.43-.35-.64-.53-1.41-.53-2.32v-5.78h1.62v5.56c0,.97.25,1.72.74,2.24.49.52,1.16.78,2.02.78s1.57-.27,2.07-.81c.5-.54.76-1.33.76-2.36v-5.42h1.64Z"/>
        <path class="cls-2" d="M102.42,268.93c.6.32,1.07.8,1.42,1.43.35.64.52,1.41.52,2.32v5.81h-1.62v-5.58c0-.98-.24-1.74-.73-2.26-.49-.52-1.14-.78-1.97-.78s-1.53.27-2.03.82-.76,1.33-.76,2.37v5.44h-1.62v-5.58c0-.98-.24-1.74-.73-2.26-.49-.52-1.14-.78-1.97-.78s-1.53.27-2.03.82c-.5.55-.76,1.33-.76,2.37v5.44h-1.64v-9.86h1.64v1.42c.32-.52.76-.91,1.31-1.19.55-.28,1.15-.41,1.81-.41.83,0,1.56.19,2.2.56.64.37,1.11.92,1.42,1.64.28-.7.73-1.24,1.37-1.62.64-.38,1.34-.58,2.12-.58s1.45.16,2.05.48Z"/>
        <path class="cls-2" d="M124.57,266.04v12.46h-1.64v-9.29l-4.14,9.29h-1.15l-4.16-9.31v9.31h-1.64v-12.46h1.76l4.61,10.3,4.61-10.3h1.75Z"/>
        <path class="cls-2" d="M127.35,270.87c.41-.76.97-1.35,1.68-1.77.71-.42,1.51-.63,2.39-.63s1.61.19,2.25.56c.64.37,1.11.84,1.42,1.4v-1.8h1.66v9.86h-1.66v-1.84c-.32.58-.81,1.05-1.45,1.43s-1.39.57-2.24.57-1.67-.22-2.38-.65c-.71-.43-1.27-1.04-1.67-1.82-.41-.78-.61-1.67-.61-2.66s.2-1.89.61-2.66ZM134.64,271.6c-.3-.55-.71-.98-1.21-1.27-.51-.29-1.07-.44-1.68-.44s-1.17.14-1.67.43-.91.71-1.21,1.26-.45,1.2-.45,1.94.15,1.41.45,1.97.7.98,1.21,1.28,1.06.44,1.67.44,1.17-.15,1.68-.44c.51-.29.92-.72,1.21-1.28s.45-1.21.45-1.95-.15-1.39-.45-1.94Z"/>
        <path class="cls-2" d="M145.82,269.03c.64.37,1.12.84,1.43,1.4v-1.8h1.66v10.08c0,.9-.19,1.7-.58,2.4-.38.7-.93,1.25-1.65,1.65-.71.4-1.55.59-2.49.59-1.3,0-2.38-.31-3.24-.92-.86-.61-1.37-1.45-1.53-2.5h1.62c.18.6.55,1.08,1.12,1.45.56.37,1.24.55,2.03.55.9,0,1.63-.28,2.21-.85.57-.56.85-1.36.85-2.38v-2.07c-.32.58-.8,1.06-1.44,1.44-.64.38-1.38.58-2.23.58s-1.67-.22-2.39-.65c-.71-.43-1.27-1.04-1.68-1.82-.41-.78-.61-1.67-.61-2.66s.2-1.89.61-2.66c.41-.76.97-1.35,1.68-1.77.71-.42,1.51-.63,2.39-.63s1.6.19,2.24.56ZM146.8,271.6c-.3-.55-.71-.98-1.21-1.27-.51-.29-1.07-.44-1.68-.44s-1.17.14-1.67.43-.91.71-1.21,1.26-.45,1.2-.45,1.94.15,1.41.45,1.97.7.98,1.21,1.28,1.06.44,1.67.44,1.17-.15,1.68-.44c.51-.29.92-.72,1.21-1.28s.45-1.21.45-1.95-.15-1.39-.45-1.94Z"/>
        <path class="cls-2" d="M151.68,270.87c.41-.76.97-1.35,1.68-1.77.71-.42,1.51-.63,2.39-.63s1.61.19,2.25.56c.64.37,1.11.84,1.42,1.4v-1.8h1.66v9.86h-1.66v-1.84c-.32.58-.81,1.05-1.45,1.43s-1.39.57-2.24.57-1.67-.22-2.38-.65c-.71-.43-1.27-1.04-1.67-1.82-.41-.78-.61-1.67-.61-2.66s.2-1.89.61-2.66ZM158.97,271.6c-.3-.55-.71-.98-1.21-1.27-.51-.29-1.07-.44-1.68-.44s-1.17.14-1.67.43-.91.71-1.21,1.26-.45,1.2-.45,1.94.15,1.41.45,1.97.7.98,1.21,1.28,1.06.44,1.67.44,1.17-.15,1.68-.44c.51-.29.92-.72,1.21-1.28s.45-1.21.45-1.95-.15-1.39-.45-1.94Z"/>
        <path class="cls-2" d="M165.07,277.14h4.84v1.35h-6.71v-1.35l4.79-7.18h-4.75v-1.33h6.64v1.33l-4.81,7.18Z"/>
        <path class="cls-2" d="M172.09,266.7c-.22-.22-.32-.48-.32-.79s.11-.58.32-.79.48-.32.79-.32.56.11.77.32.31.48.31.79-.1.58-.31.79-.47.32-.77.32-.58-.11-.79-.32ZM173.68,268.63v9.86h-1.64v-9.86h1.64Z"/>
        <path class="cls-2" d="M184.19,269.54c.74.73,1.12,1.77,1.12,3.14v5.81h-1.62v-5.58c0-.98-.25-1.74-.74-2.26-.49-.52-1.16-.78-2.02-.78s-1.55.27-2.06.81c-.51.54-.77,1.33-.77,2.36v5.45h-1.64v-9.86h1.64v1.4c.32-.5.77-.89,1.32-1.17.56-.28,1.17-.41,1.84-.41,1.2,0,2.17.36,2.92,1.09Z"/>
        <path class="cls-2" d="M196.93,274.17h-7.88c.06.97.39,1.73,1,2.28s1.34.82,2.21.82c.71,0,1.3-.17,1.77-.5s.81-.77,1-1.32h1.76c-.26.95-.79,1.72-1.58,2.31-.79.59-1.78.89-2.95.89-.94,0-1.77-.21-2.51-.63-.74-.42-1.32-1.02-1.74-1.79-.42-.77-.63-1.67-.63-2.69s.2-1.91.61-2.68c.41-.77.98-1.36,1.72-1.77s1.59-.62,2.55-.62,1.76.2,2.48.61c.72.41,1.27.97,1.66,1.68.39.71.59,1.52.59,2.42,0,.31-.02.64-.05.99ZM194.88,271.23c-.28-.45-.65-.79-1.12-1.03s-1-.35-1.57-.35c-.83,0-1.53.26-2.12.79s-.92,1.26-1,2.2h6.23c0-.62-.14-1.16-.41-1.61Z"/>
        <path class="cls-2" d="M213.31,272.61h-3.83v3.89h-1.53v-3.89h-3.82v-1.39h3.82v-3.91h1.53v3.91h3.83v1.39Z"/>
        <path class="cls-2" d="M220.35,266.97v-1.49h3.38v13.01h-1.66v-11.52h-1.73Z"/>
        <path class="cls-2" d="M239.15,272.59c.38.3.68.67.9,1.12.22.44.33.92.33,1.42,0,.64-.16,1.21-.49,1.72-.32.51-.79.91-1.41,1.21-.62.29-1.35.44-2.19.44h-4.68v-12.55h4.5c.85,0,1.58.14,2.18.42s1.05.66,1.35,1.14c.3.48.45,1.02.45,1.62,0,.74-.2,1.36-.6,1.85-.4.49-.93.84-1.59,1.05.46.07.87.26,1.25.56ZM233.26,271.37h2.75c.77,0,1.36-.18,1.78-.54.42-.36.63-.86.63-1.49s-.21-1.13-.63-1.49c-.42-.36-1.03-.54-1.82-.54h-2.72v4.07ZM238.06,276.57c.46-.38.68-.92.68-1.6s-.24-1.24-.72-1.65-1.12-.6-1.93-.6h-2.84v4.43h2.9c.82,0,1.45-.19,1.91-.58Z"/>
        <path class="cls-2" d="M244.44,278.03c-.75-.42-1.34-1.02-1.76-1.79-.43-.77-.64-1.67-.64-2.69s.22-1.9.66-2.67c.44-.77,1.03-1.37,1.79-1.78.76-.41,1.6-.62,2.54-.62s1.78.21,2.54.62,1.35,1.01,1.79,1.77.66,1.66.66,2.68-.22,1.92-.67,2.69c-.45.77-1.06,1.37-1.83,1.79s-1.62.63-2.56.63-1.76-.21-2.51-.63ZM248.61,276.8c.52-.28.93-.69,1.25-1.24.32-.55.48-1.22.48-2.02s-.16-1.46-.47-2.02c-.31-.55-.72-.96-1.22-1.23-.5-.27-1.05-.4-1.64-.4s-1.15.13-1.65.4c-.5.27-.9.68-1.2,1.23s-.45,1.22-.45,2.02.15,1.48.44,2.03c.29.55.69.96,1.18,1.23.49.27,1.03.4,1.62.4s1.14-.14,1.66-.41Z"/>
        <path class="cls-2" d="M259.32,278.49l-2.34-3.67-2.25,3.67h-1.71l3.19-4.9-3.19-4.97h1.85l2.34,3.65,2.23-3.65h1.71l-3.17,4.88,3.19,4.99h-1.85Z"/>
        <path class="cls-2" d="M274.92,272.22c-.71.69-1.8,1.04-3.27,1.04h-2.41v5.24h-1.64v-12.55h4.05c1.42,0,2.49.34,3.23,1.03.74.68,1.11,1.57,1.11,2.65s-.36,1.91-1.07,2.6ZM273.67,271.31c.43-.4.65-.96.65-1.69,0-1.55-.89-2.32-2.66-2.32h-2.41v4.61h2.41c.91,0,1.58-.2,2.02-.59Z"/>
        <path class="cls-2" d="M278.02,270.87c.41-.76.97-1.35,1.68-1.77.71-.42,1.51-.63,2.38-.63s1.61.19,2.25.56c.64.37,1.11.84,1.42,1.4v-1.8h1.66v9.86h-1.66v-1.84c-.32.58-.81,1.05-1.45,1.43s-1.39.57-2.24.57-1.67-.22-2.38-.65c-.71-.43-1.27-1.04-1.67-1.82s-.61-1.67-.61-2.66.2-1.89.61-2.66ZM285.31,271.6c-.3-.55-.71-.98-1.21-1.27s-1.07-.44-1.68-.44-1.17.14-1.67.43c-.5.29-.91.71-1.21,1.26-.3.55-.45,1.2-.45,1.94s.15,1.41.45,1.97c.3.56.7.98,1.21,1.28.5.29,1.06.44,1.67.44s1.17-.15,1.68-.44.92-.72,1.21-1.28.45-1.21.45-1.95-.15-1.39-.45-1.94Z"/>
        <path class="cls-2" d="M290.19,270.87c.41-.76.97-1.35,1.7-1.77.73-.42,1.56-.63,2.49-.63,1.21,0,2.21.29,3,.88s1.3,1.4,1.56,2.45h-1.76c-.17-.6-.5-1.07-.98-1.42-.49-.35-1.09-.52-1.81-.52-.94,0-1.69.32-2.27.96-.58.64-.86,1.55-.86,2.73s.29,2.11.86,2.75c.58.65,1.33.97,2.27.97.72,0,1.32-.17,1.8-.5s.81-.82.99-1.44h1.76c-.26,1.01-.79,1.82-1.58,2.42-.79.61-1.78.91-2.97.91-.94,0-1.77-.21-2.49-.63-.73-.42-1.29-1.01-1.7-1.78-.41-.77-.61-1.67-.61-2.7s.2-1.91.61-2.67Z"/>
        <path class="cls-2" d="M306.62,278.49l-3.87-4.36v4.36h-1.64v-13.32h1.64v7.83l3.8-4.37h2.29l-4.64,4.91,4.66,4.95h-2.23Z"/>
        <path class="cls-2" d="M310.39,270.87c.41-.76.97-1.35,1.68-1.77.71-.42,1.51-.63,2.38-.63s1.61.19,2.25.56c.64.37,1.11.84,1.42,1.4v-1.8h1.66v9.86h-1.66v-1.84c-.32.58-.81,1.05-1.45,1.43s-1.39.57-2.24.57-1.67-.22-2.38-.65c-.71-.43-1.27-1.04-1.67-1.82s-.61-1.67-.61-2.66.2-1.89.61-2.66ZM317.68,271.6c-.3-.55-.71-.98-1.21-1.27s-1.07-.44-1.68-.44-1.17.14-1.67.43c-.5.29-.91.71-1.21,1.26-.3.55-.45,1.2-.45,1.94s.15,1.41.45,1.97c.3.56.7.98,1.21,1.28.5.29,1.06.44,1.67.44s1.17-.15,1.68-.44.92-.72,1.21-1.28.45-1.21.45-1.95-.15-1.39-.45-1.94Z"/>
        <path class="cls-2" d="M328.86,269.03c.64.37,1.12.84,1.43,1.4v-1.8h1.66v10.08c0,.9-.19,1.7-.58,2.4s-.93,1.25-1.65,1.65c-.71.4-1.54.59-2.49.59-1.3,0-2.38-.31-3.24-.92-.86-.61-1.37-1.45-1.53-2.5h1.62c.18.6.55,1.08,1.12,1.45.56.37,1.24.55,2.03.55.9,0,1.63-.28,2.21-.85.57-.56.85-1.36.85-2.38v-2.07c-.32.58-.8,1.06-1.44,1.44-.64.38-1.38.58-2.23.58s-1.67-.22-2.38-.65c-.71-.43-1.28-1.04-1.68-1.82s-.61-1.67-.61-2.66.2-1.89.61-2.66c.41-.76.97-1.35,1.68-1.77.71-.42,1.51-.63,2.38-.63s1.6.19,2.24.56ZM329.84,271.6c-.3-.55-.71-.98-1.21-1.27s-1.07-.44-1.68-.44-1.17.14-1.67.43c-.5.29-.91.71-1.21,1.26-.3.55-.45,1.2-.45,1.94s.15,1.41.45,1.97c.3.56.7.98,1.21,1.28.5.29,1.06.44,1.67.44s1.17-.15,1.68-.44.92-.72,1.21-1.28.45-1.21.45-1.95-.15-1.39-.45-1.94Z"/>
        <path class="cls-2" d="M343.67,274.17h-7.88c.06.97.39,1.73,1,2.28.61.55,1.34.82,2.21.82.71,0,1.3-.17,1.77-.5s.81-.77,1-1.32h1.76c-.26.95-.79,1.72-1.58,2.31-.79.59-1.78.89-2.95.89-.94,0-1.77-.21-2.51-.63-.74-.42-1.32-1.02-1.74-1.79-.42-.77-.63-1.67-.63-2.69s.2-1.91.61-2.68.98-1.36,1.72-1.77c.74-.41,1.59-.62,2.55-.62s1.76.2,2.48.61c.72.41,1.28.97,1.67,1.68.39.71.58,1.52.58,2.42,0,.31-.02.64-.05.99ZM341.62,271.23c-.28-.45-.65-.79-1.12-1.03-.47-.23-1-.35-1.58-.35-.83,0-1.53.26-2.12.79s-.92,1.26-1,2.2h6.23c0-.62-.14-1.16-.41-1.61Z"/>
        <path class="cls-2" d="M23.52,294.5v4.08h-4.07v-4.07h4.07Z"/>
        <path class="cls-2" d="M45.11,299.7h-5.47l-1.01,2.79h-1.73l4.54-12.47h1.89l4.52,12.47h-1.73l-1.01-2.79ZM44.64,298.37l-2.27-6.34-2.27,6.34h4.54Z"/>
        <path class="cls-2" d="M51.46,289.17v13.32h-1.64v-13.32h1.64Z"/>
        <path class="cls-2" d="M55.89,289.17v13.32h-1.64v-13.32h1.64Z"/>
        <path class="cls-2" d="M70.8,296.22c-.71.69-1.8,1.04-3.27,1.04h-2.41v5.24h-1.64v-12.55h4.05c1.42,0,2.49.34,3.23,1.03.74.68,1.11,1.57,1.11,2.65s-.36,1.91-1.07,2.6ZM69.55,295.31c.43-.4.65-.96.65-1.69,0-1.55-.89-2.32-2.66-2.32h-2.41v4.61h2.41c.91,0,1.58-.2,2.02-.59Z"/>
        <path class="cls-2" d="M80.82,292.93c.6.32,1.07.8,1.41,1.43.34.64.51,1.41.51,2.32v5.81h-1.62v-5.58c0-.98-.25-1.74-.74-2.26-.49-.52-1.16-.78-2.02-.78s-1.55.27-2.06.81c-.51.54-.77,1.33-.77,2.36v5.45h-1.64v-13.32h1.64v4.86c.32-.5.77-.89,1.34-1.17.57-.28,1.21-.41,1.92-.41.74,0,1.42.16,2.02.48Z"/>
        <path class="cls-2" d="M87.22,302.03c-.75-.42-1.34-1.02-1.76-1.79-.43-.77-.64-1.67-.64-2.69s.22-1.9.66-2.67c.44-.77,1.03-1.37,1.79-1.78.76-.41,1.6-.62,2.54-.62s1.78.21,2.54.62c.76.41,1.35,1.01,1.79,1.77s.66,1.66.66,2.68-.23,1.92-.68,2.69c-.45.77-1.06,1.37-1.83,1.79-.77.42-1.62.63-2.56.63s-1.76-.21-2.51-.63ZM91.38,300.8c.52-.28.93-.69,1.25-1.24.32-.55.48-1.22.48-2.02s-.16-1.46-.47-2.02-.72-.96-1.22-1.23c-.5-.27-1.05-.4-1.64-.4s-1.15.13-1.65.4c-.5.27-.9.68-1.2,1.23s-.45,1.22-.45,2.02.15,1.48.44,2.03c.29.55.69.96,1.18,1.23.49.27,1.03.4,1.62.4s1.14-.14,1.66-.41Z"/>
        <path class="cls-2" d="M98.94,293.98v5.81c0,.48.1.82.31,1.02.2.2.56.3,1.06.3h1.21v1.39h-1.48c-.91,0-1.6-.21-2.05-.63-.46-.42-.68-1.11-.68-2.07v-5.81h-1.28v-1.35h1.28v-2.48h1.64v2.48h2.57v1.35h-2.57Z"/>
        <path class="cls-2" d="M105.29,302.03c-.75-.42-1.34-1.02-1.76-1.79-.43-.77-.64-1.67-.64-2.69s.22-1.9.66-2.67c.44-.77,1.03-1.37,1.79-1.78.76-.41,1.6-.62,2.54-.62s1.78.21,2.54.62c.76.41,1.35,1.01,1.79,1.77s.66,1.66.66,2.68-.23,1.92-.68,2.69c-.45.77-1.06,1.37-1.83,1.79-.77.42-1.62.63-2.56.63s-1.76-.21-2.51-.63ZM109.45,300.8c.52-.28.93-.69,1.25-1.24.32-.55.48-1.22.48-2.02s-.16-1.46-.47-2.02-.72-.96-1.22-1.23c-.5-.27-1.05-.4-1.64-.4s-1.15.13-1.65.4c-.5.27-.9.68-1.2,1.23s-.45,1.22-.45,2.02.15,1.48.44,2.03c.29.55.69.96,1.18,1.23.49.27,1.03.4,1.62.4s1.14-.14,1.66-.41Z"/>
        <path class="cls-2" d="M121.61,302.03c-.75-.42-1.34-1.02-1.76-1.79-.43-.77-.64-1.67-.64-2.69s.22-1.9.66-2.67c.44-.77,1.03-1.37,1.79-1.78.76-.41,1.6-.62,2.54-.62s1.78.21,2.54.62c.76.41,1.35,1.01,1.79,1.77s.66,1.66.66,2.68-.23,1.92-.68,2.69c-.45.77-1.06,1.37-1.83,1.79-.77.42-1.62.63-2.56.63s-1.76-.21-2.51-.63ZM125.78,300.8c.52-.28.93-.69,1.25-1.24.32-.55.48-1.22.48-2.02s-.16-1.46-.47-2.02-.72-.96-1.22-1.23c-.5-.27-1.05-.4-1.64-.4s-1.15.13-1.65.4c-.5.27-.9.68-1.2,1.23s-.45,1.22-.45,2.02.15,1.48.44,2.03c.29.55.69.96,1.18,1.23.49.27,1.03.4,1.62.4s1.14-.14,1.66-.41Z"/>
        <path class="cls-2" d="M139.06,293.54c.74.73,1.12,1.77,1.12,3.14v5.81h-1.62v-5.58c0-.98-.25-1.74-.74-2.26-.49-.52-1.16-.78-2.02-.78s-1.55.27-2.06.81c-.51.54-.77,1.33-.77,2.36v5.45h-1.64v-9.86h1.64v1.4c.32-.5.77-.89,1.32-1.17.56-.28,1.17-.41,1.84-.41,1.2,0,2.17.36,2.92,1.09Z"/>
        <path class="cls-2" d="M157.17,293.58c-.35-.73-.85-1.3-1.51-1.7-.66-.4-1.43-.6-2.3-.6s-1.67.2-2.37.6c-.7.4-1.25.98-1.66,1.73-.4.75-.6,1.62-.6,2.6s.2,1.85.6,2.59c.4.74.95,1.32,1.66,1.72s1.49.6,2.37.6c1.22,0,2.23-.37,3.02-1.1.79-.73,1.25-1.72,1.39-2.97h-5v-1.33h6.75v1.26c-.1,1.03-.42,1.98-.97,2.83s-1.28,1.54-2.18,2.03-1.9.75-3.01.75c-1.16,0-2.23-.27-3.19-.82-.96-.55-1.72-1.3-2.28-2.28-.56-.97-.84-2.07-.84-3.29s.28-2.32.84-3.3c.56-.98,1.32-1.74,2.28-2.29.96-.55,2.02-.82,3.19-.82,1.33,0,2.51.33,3.54.99,1.03.66,1.77,1.59,2.24,2.79h-1.96Z"/>
        <path class="cls-2" d="M163.46,302.03c-.75-.42-1.34-1.02-1.76-1.79-.43-.77-.64-1.67-.64-2.69s.22-1.9.66-2.67c.44-.77,1.03-1.37,1.79-1.78.76-.41,1.6-.62,2.54-.62s1.78.21,2.54.62c.76.41,1.35,1.01,1.79,1.77s.66,1.66.66,2.68-.23,1.92-.68,2.69c-.45.77-1.06,1.37-1.83,1.79-.77.42-1.62.63-2.56.63s-1.76-.21-2.51-.63ZM167.63,300.8c.52-.28.93-.69,1.25-1.24.32-.55.48-1.22.48-2.02s-.16-1.46-.47-2.02-.72-.96-1.22-1.23c-.5-.27-1.05-.4-1.64-.4s-1.15.13-1.65.4c-.5.27-.9.68-1.2,1.23s-.45,1.22-.45,2.02.15,1.48.44,2.03c.29.55.69.96,1.18,1.23.49.27,1.03.4,1.62.4s1.14-.14,1.66-.41Z"/>
        <path class="cls-2" d="M174.98,302.03c-.75-.42-1.34-1.02-1.76-1.79-.43-.77-.64-1.67-.64-2.69s.22-1.9.66-2.67c.44-.77,1.03-1.37,1.79-1.78.76-.41,1.6-.62,2.54-.62s1.78.21,2.54.62c.76.41,1.35,1.01,1.79,1.77s.66,1.66.66,2.68-.23,1.92-.68,2.69c-.45.77-1.06,1.37-1.83,1.79-.77.42-1.62.63-2.56.63s-1.76-.21-2.51-.63ZM179.15,300.8c.52-.28.93-.69,1.25-1.24.32-.55.48-1.22.48-2.02s-.16-1.46-.47-2.02-.72-.96-1.22-1.23c-.5-.27-1.05-.4-1.64-.4s-1.15.13-1.65.4c-.5.27-.9.68-1.2,1.23s-.45,1.22-.45,2.02.15,1.48.44,2.03c.29.55.69.96,1.18,1.23.49.27,1.03.4,1.62.4s1.14-.14,1.66-.41Z"/>
        <path class="cls-2" d="M191.02,293.03c.64.37,1.12.84,1.43,1.4v-1.8h1.66v10.08c0,.9-.19,1.7-.58,2.4-.38.7-.93,1.25-1.65,1.65-.71.4-1.55.59-2.49.59-1.3,0-2.38-.31-3.24-.92-.86-.61-1.37-1.45-1.53-2.5h1.62c.18.6.55,1.08,1.12,1.45.56.37,1.24.55,2.03.55.9,0,1.63-.28,2.21-.85.57-.56.85-1.36.85-2.38v-2.07c-.32.58-.8,1.06-1.44,1.44-.64.38-1.38.58-2.23.58s-1.67-.22-2.39-.65c-.71-.43-1.27-1.04-1.68-1.82-.41-.78-.61-1.67-.61-2.66s.2-1.89.61-2.66c.41-.76.97-1.35,1.68-1.77.71-.42,1.51-.63,2.39-.63s1.6.19,2.24.56ZM192,295.6c-.3-.55-.71-.98-1.21-1.27-.51-.29-1.07-.44-1.68-.44s-1.17.14-1.67.43-.91.71-1.21,1.26-.45,1.2-.45,1.94.15,1.41.45,1.97.7.98,1.21,1.28,1.06.44,1.67.44,1.17-.15,1.68-.44c.51-.29.92-.72,1.21-1.28s.45-1.21.45-1.95-.15-1.39-.45-1.94Z"/>
        <path class="cls-2" d="M198.52,289.17v13.32h-1.64v-13.32h1.64Z"/>
        <path class="cls-2" d="M210.25,298.17h-7.88c.06.97.39,1.73,1,2.28s1.34.82,2.21.82c.71,0,1.3-.17,1.77-.5s.81-.77,1-1.32h1.76c-.26.95-.79,1.72-1.58,2.31-.79.59-1.78.89-2.95.89-.94,0-1.77-.21-2.51-.63-.74-.42-1.32-1.02-1.74-1.79-.42-.77-.63-1.67-.63-2.69s.2-1.91.61-2.68c.41-.77.98-1.36,1.72-1.77s1.59-.62,2.55-.62,1.76.2,2.48.61c.72.41,1.27.97,1.66,1.68.39.71.59,1.52.59,2.42,0,.31-.02.64-.05.99ZM208.2,295.23c-.28-.45-.65-.79-1.12-1.03s-1-.35-1.57-.35c-.83,0-1.53.26-2.12.79s-.92,1.26-1,2.2h6.23c0-.62-.14-1.16-.41-1.61Z"/>
        <path class="cls-2" d="M224.74,290.71c1,.51,1.77,1.24,2.3,2.19.53.95.8,2.06.8,3.35s-.27,2.4-.8,3.34c-.53.94-1.3,1.66-2.3,2.16-1,.5-2.19.75-3.56.75h-3.91v-12.55h3.91c1.37,0,2.55.25,3.56.76ZM224.89,299.86c.85-.86,1.28-2.06,1.28-3.61s-.43-2.78-1.29-3.65c-.86-.88-2.09-1.31-3.7-1.31h-2.27v9.86h2.27c1.62,0,2.86-.43,3.71-1.29Z"/>
        <path class="cls-2" d="M232.87,292.92c.53-.31,1.19-.47,1.95-.47v1.69h-.43c-1.84,0-2.75,1-2.75,2.99v5.36h-1.64v-9.86h1.64v1.6c.29-.56.7-1,1.23-1.31Z"/>
        <path class="cls-2" d="M236.77,290.7c-.22-.22-.32-.48-.32-.79s.11-.58.32-.79.48-.32.79-.32.56.11.77.32.31.48.31.79-.1.58-.31.79-.47.32-.77.32-.58-.11-.79-.32ZM238.35,292.63v9.86h-1.64v-9.86h1.64Z"/>
        <path class="cls-2" d="M244.81,300.98l3.06-8.35h1.75l-3.87,9.86h-1.91l-3.87-9.86h1.76l3.08,8.35Z"/>
        <path class="cls-2" d="M260.19,298.17h-7.88c.06.97.39,1.73,1,2.28.61.55,1.34.82,2.21.82.71,0,1.3-.17,1.77-.5s.81-.77,1-1.32h1.76c-.26.95-.79,1.72-1.58,2.31-.79.59-1.78.89-2.95.89-.94,0-1.77-.21-2.51-.63-.74-.42-1.32-1.02-1.74-1.79-.42-.77-.63-1.67-.63-2.69s.2-1.91.61-2.68.98-1.36,1.72-1.77c.74-.41,1.59-.62,2.55-.62s1.76.2,2.48.61c.72.41,1.28.97,1.67,1.68.39.71.58,1.52.58,2.42,0,.31-.02.64-.05.99ZM258.13,295.23c-.28-.45-.65-.79-1.12-1.03-.47-.23-1-.35-1.58-.35-.83,0-1.53.26-2.12.79s-.92,1.26-1,2.2h6.23c0-.62-.14-1.16-.41-1.61Z"/>
        <path class="cls-2" d="M276.83,302.49l-1.64-1.66c-.61.64-1.27,1.11-1.96,1.41-.7.31-1.48.46-2.36.46s-1.63-.16-2.29-.47-1.18-.76-1.55-1.33-.55-1.25-.55-2.02c0-.88.25-1.65.75-2.31s1.23-1.19,2.21-1.58c-.38-.46-.66-.88-.83-1.26s-.25-.8-.25-1.26c0-.53.13-1,.41-1.43.27-.43.66-.76,1.16-1,.5-.24,1.09-.36,1.75-.36s1.21.13,1.69.38c.48.25.84.6,1.08,1.05s.35.95.32,1.5h-1.64c.01-.49-.13-.88-.41-1.16-.29-.28-.66-.42-1.12-.42-.48,0-.87.13-1.16.41-.29.27-.44.62-.44,1.04,0,.36.1.71.3,1.04.2.34.53.75,1,1.24l3.74,3.76.32-.5,1.22-2.05h1.76l-1.48,2.56c-.2.36-.44.74-.72,1.13l2.83,2.83h-2.14ZM272.63,300.93c.52-.25,1.02-.64,1.48-1.17l-3.69-3.71c-1.54.59-2.3,1.52-2.3,2.79,0,.71.25,1.3.77,1.76.51.47,1.17.7,1.99.7.65,0,1.23-.13,1.76-.38Z"/>
        <path class="cls-2" d="M292.41,289.95v1.33h-5.45v4.23h4.43v1.33h-4.43v5.65h-1.64v-12.55h7.09Z"/>
        <path class="cls-2" d="M296.02,289.17v13.32h-1.64v-13.32h1.64Z"/>
        <path class="cls-2" d="M298.81,294.87c.41-.76.97-1.35,1.68-1.77.71-.42,1.51-.63,2.38-.63s1.61.19,2.25.56c.64.37,1.11.84,1.42,1.4v-1.8h1.66v9.86h-1.66v-1.84c-.32.58-.81,1.05-1.45,1.43s-1.39.57-2.24.57-1.67-.22-2.38-.65c-.71-.43-1.27-1.04-1.67-1.82s-.61-1.67-.61-2.66.2-1.89.61-2.66ZM306.1,295.6c-.3-.55-.71-.98-1.21-1.27s-1.07-.44-1.68-.44-1.17.14-1.67.43c-.5.29-.91.71-1.21,1.26-.3.55-.45,1.2-.45,1.94s.15,1.41.45,1.97c.3.56.7.98,1.21,1.28.5.29,1.06.44,1.67.44s1.17-.15,1.68-.44.92-.72,1.21-1.28.45-1.21.45-1.95-.15-1.39-.45-1.94Z"/>
        <path class="cls-2" d="M312.44,302.27c-.6-.26-1.07-.62-1.42-1.08s-.54-.99-.58-1.59h1.69c.05.49.28.89.69,1.21.41.31.96.47,1.63.47.62,0,1.12-.14,1.48-.41s.54-.62.54-1.04-.19-.75-.58-.96-.98-.42-1.78-.62c-.73-.19-1.33-.39-1.79-.58-.46-.2-.86-.49-1.19-.88-.33-.39-.5-.9-.5-1.54,0-.5.15-.97.45-1.39s.73-.75,1.28-1c.55-.25,1.18-.37,1.89-.37,1.09,0,1.97.28,2.65.83.67.55,1.03,1.31,1.08,2.27h-1.64c-.04-.52-.24-.93-.62-1.24s-.88-.47-1.52-.47c-.59,0-1.06.13-1.4.38-.35.25-.52.58-.52.99,0,.32.11.59.32.8s.47.38.79.5c.32.13.76.27,1.32.42.71.19,1.28.38,1.73.57.44.19.83.46,1.14.84.32.37.48.86.49,1.46,0,.54-.15,1.03-.45,1.46-.3.43-.72.77-1.27,1.02s-1.17.37-1.88.37c-.76,0-1.43-.13-2.03-.39Z"/>
        <path class="cls-2" d="M327.29,292.93c.6.32,1.07.8,1.41,1.43s.51,1.41.51,2.32v5.81h-1.62v-5.58c0-.98-.25-1.74-.74-2.26-.49-.52-1.16-.78-2.02-.78s-1.55.27-2.06.81c-.51.54-.76,1.33-.76,2.36v5.45h-1.64v-13.32h1.64v4.86c.32-.5.77-.89,1.34-1.17.57-.28,1.21-.41,1.92-.41.74,0,1.42.16,2.02.48Z"/>
        <path class="cls-2" d="M331.9,294.87c.41-.76.97-1.35,1.68-1.77.71-.42,1.51-.63,2.4-.63.77,0,1.48.18,2.14.53.66.35,1.16.82,1.51,1.4v-5.22h1.66v13.32h-1.66v-1.85c-.32.59-.8,1.07-1.44,1.45-.64.38-1.38.57-2.23.57s-1.67-.22-2.38-.65c-.71-.43-1.28-1.04-1.68-1.82s-.61-1.67-.61-2.66.2-1.89.61-2.66ZM339.19,295.6c-.3-.55-.71-.98-1.21-1.27s-1.07-.44-1.68-.44-1.17.14-1.67.43c-.5.29-.91.71-1.21,1.26-.3.55-.45,1.2-.45,1.94s.15,1.41.45,1.97c.3.56.7.98,1.21,1.28.5.29,1.06.44,1.67.44s1.17-.15,1.68-.44.92-.72,1.21-1.28.45-1.21.45-1.95-.15-1.39-.45-1.94Z"/>
        <path class="cls-2" d="M344.12,290.7c-.22-.22-.32-.48-.32-.79s.11-.58.32-.79c.22-.22.48-.32.79-.32s.55.11.76.32.31.48.31.79-.1.58-.31.79-.46.32-.76.32-.58-.11-.79-.32ZM345.7,292.63v9.86h-1.64v-9.86h1.64Z"/>
        <path class="cls-2" d="M349.95,302.27c-.6-.26-1.07-.62-1.42-1.08s-.54-.99-.58-1.59h1.69c.05.49.28.89.69,1.21.41.31.96.47,1.63.47.62,0,1.12-.14,1.48-.41s.54-.62.54-1.04-.19-.75-.58-.96-.98-.42-1.78-.62c-.73-.19-1.33-.39-1.79-.58-.46-.2-.86-.49-1.19-.88-.33-.39-.5-.9-.5-1.54,0-.5.15-.97.45-1.39s.73-.75,1.28-1c.55-.25,1.18-.37,1.89-.37,1.09,0,1.97.28,2.65.83.67.55,1.03,1.31,1.08,2.27h-1.64c-.04-.52-.24-.93-.62-1.24s-.88-.47-1.52-.47c-.59,0-1.06.13-1.4.38-.35.25-.52.58-.52.99,0,.32.11.59.32.8s.47.38.79.5c.32.13.76.27,1.32.42.71.19,1.28.38,1.73.57.44.19.83.46,1.14.84.32.37.48.86.49,1.46,0,.54-.15,1.03-.45,1.46-.3.43-.72.77-1.27,1.02s-1.17.37-1.88.37c-.76,0-1.43-.13-2.03-.39Z"/>
        <path class="cls-2" d="M363.4,302.49l-3.87-4.36v4.36h-1.64v-13.32h1.64v7.83l3.8-4.37h2.29l-4.64,4.91,4.66,4.95h-2.23Z"/>
      </g>
      <text class="cls-1" transform="translate(37.3 69.33)"><tspan x="0" y="0">Wedding</tspan></text>
    </g>
  </g>
</svg>