<?xml version="1.0" encoding="UTF-8"?>
<svg id="Layer_2" data-name="Layer 2" xmlns="http://www.w3.org/2000/svg" viewBox="0 0 406.03 332">
  <defs>
    <style>
      .cls-1 {
        font-family: Poppins-Regular, Poppins;
        font-size: 36px;
      }

      .cls-2 {
        fill: #fff;
      }

      .cls-3 {
        fill: #333;
      }
    </style>
  </defs>
  <g id="Layer_1-2" data-name="Layer 1">
    <g>
      <g>
        <polygon class="cls-3" points="406 0 406 100 .03 100 .03 332 406.03 332 406.03 0 406 0"/>
        <polygon class="cls-2" points="406 0 .03 0 0 0 0 100 .03 100 406 100 406 0"/>
      </g>
      <g>
        <path class="cls-2" d="M23.56,126.86v4.08h-4.07v-4.07h4.07Z"/>
        <path class="cls-2" d="M37.06,131.95v-1.24l6.32-8.75h1.96v8.57h1.8v1.42h-1.8v2.9h-1.62v-2.9h-6.66ZM43.79,123.67l-4.84,6.86h4.84v-6.86Z"/>
        <path class="cls-2" d="M63.52,122.31v12.55h-1.64v-5.69h-6.39v5.69h-1.64v-12.55h1.64v5.51h6.39v-5.51h1.64Z"/>
        <path class="cls-2" d="M68.1,134.38c-.75-.42-1.34-1.02-1.76-1.79-.43-.77-.64-1.67-.64-2.69s.22-1.9.66-2.67c.44-.77,1.03-1.37,1.79-1.78.76-.41,1.6-.62,2.54-.62s1.78.21,2.54.62c.76.41,1.35,1.01,1.79,1.77s.66,1.66.66,2.68-.23,1.92-.68,2.69c-.45.77-1.06,1.37-1.83,1.79-.77.42-1.62.63-2.56.63s-1.76-.21-2.51-.63ZM72.27,133.16c.52-.28.93-.69,1.25-1.24.32-.55.48-1.22.48-2.02s-.16-1.46-.47-2.02-.72-.96-1.22-1.23c-.5-.27-1.05-.4-1.64-.4s-1.15.13-1.65.4c-.5.27-.9.68-1.2,1.23s-.45,1.22-.45,2.02.15,1.48.44,2.03c.29.55.69.96,1.18,1.23.49.27,1.03.4,1.62.4s1.14-.14,1.66-.41Z"/>
        <path class="cls-2" d="M86.57,124.99v9.86h-1.64v-1.46c-.31.5-.75.9-1.31,1.18-.56.28-1.17.42-1.84.42-.77,0-1.46-.16-2.07-.48-.61-.32-1.1-.79-1.45-1.43-.35-.64-.53-1.41-.53-2.32v-5.78h1.62v5.56c0,.97.25,1.72.74,2.24.49.52,1.16.78,2.02.78s1.57-.27,2.07-.81c.5-.54.76-1.33.76-2.36v-5.42h1.64Z"/>
        <path class="cls-2" d="M92.22,125.28c.53-.31,1.19-.47,1.95-.47v1.69h-.43c-1.84,0-2.75,1-2.75,2.99v5.36h-1.64v-9.86h1.64v1.6c.29-.56.7-1,1.23-1.31Z"/>
        <path class="cls-2" d="M97.52,134.63c-.6-.26-1.07-.62-1.42-1.08s-.54-.99-.58-1.59h1.69c.05.49.28.89.69,1.21.41.31.96.47,1.63.47.62,0,1.12-.14,1.48-.41s.54-.62.54-1.04-.19-.75-.58-.96c-.38-.21-.98-.42-1.78-.62-.73-.19-1.33-.39-1.79-.58-.46-.2-.86-.49-1.19-.88-.33-.39-.5-.9-.5-1.54,0-.5.15-.97.45-1.39.3-.42.73-.75,1.28-1,.55-.25,1.18-.37,1.89-.37,1.09,0,1.97.28,2.65.83.67.55,1.03,1.31,1.08,2.27h-1.64c-.04-.52-.24-.93-.62-1.24s-.88-.47-1.52-.47c-.59,0-1.06.13-1.4.38-.35.25-.52.58-.52.99,0,.32.1.59.31.8s.47.38.79.5c.32.13.76.27,1.32.42.71.19,1.28.38,1.73.57.44.19.83.46,1.14.84s.48.86.5,1.46c0,.54-.15,1.03-.45,1.46-.3.43-.72.77-1.27,1.02s-1.17.37-1.88.37c-.76,0-1.43-.13-2.03-.39Z"/>
        <path class="cls-2" d="M112.02,134.54c-.65-.29-1.17-.7-1.54-1.22-.37-.52-.56-1.12-.58-1.81h1.75c.06.59.3,1.08.73,1.48.43.4,1.05.6,1.86.6s1.4-.2,1.85-.58.67-.89.67-1.5c0-.48-.13-.87-.4-1.17-.26-.3-.59-.53-.99-.68-.4-.16-.93-.32-1.6-.5-.83-.22-1.49-.43-1.99-.65-.5-.22-.92-.56-1.28-1.02s-.53-1.08-.53-1.86c0-.68.17-1.29.52-1.82.35-.53.84-.94,1.47-1.22s1.35-.43,2.17-.43c1.18,0,2.14.29,2.89.88s1.17,1.37,1.27,2.34h-1.8c-.06-.48-.31-.9-.76-1.27s-1.03-.55-1.76-.55c-.68,0-1.24.18-1.67.53-.43.35-.65.85-.65,1.49,0,.46.13.83.39,1.12.26.29.58.51.95.66.38.15.91.32,1.59.51.83.23,1.49.45,2,.67.5.22.94.56,1.3,1.03s.54,1.09.54,1.88c0,.61-.16,1.19-.49,1.73-.32.54-.8.98-1.44,1.31-.64.34-1.39.5-2.25.5s-1.57-.15-2.22-.44Z"/>
        <path class="cls-2" d="M129.77,130.53h-7.88c.06.97.39,1.73,1,2.28s1.34.82,2.21.82c.71,0,1.3-.17,1.77-.5s.81-.77,1-1.32h1.76c-.26.95-.79,1.72-1.58,2.31-.79.59-1.78.89-2.95.89-.94,0-1.77-.21-2.51-.63-.74-.42-1.32-1.02-1.74-1.79-.42-.77-.63-1.67-.63-2.69s.2-1.91.61-2.68c.41-.77.98-1.36,1.72-1.77s1.59-.62,2.55-.62,1.76.2,2.48.61c.72.41,1.27.97,1.66,1.68.39.71.59,1.52.59,2.42,0,.31-.02.64-.05.99ZM127.72,127.59c-.28-.45-.65-.79-1.12-1.03s-1-.35-1.57-.35c-.83,0-1.53.26-2.12.79s-.92,1.26-1,2.2h6.23c0-.62-.14-1.16-.41-1.61Z"/>
        <path class="cls-2" d="M133.45,134.63c-.6-.26-1.07-.62-1.42-1.08s-.54-.99-.58-1.59h1.69c.05.49.28.89.69,1.21.41.31.96.47,1.63.47.62,0,1.12-.14,1.48-.41s.54-.62.54-1.04-.19-.75-.58-.96c-.38-.21-.98-.42-1.78-.62-.73-.19-1.33-.39-1.79-.58-.46-.2-.86-.49-1.19-.88-.33-.39-.5-.9-.5-1.54,0-.5.15-.97.45-1.39.3-.42.73-.75,1.28-1,.55-.25,1.18-.37,1.89-.37,1.09,0,1.97.28,2.65.83.67.55,1.03,1.31,1.08,2.27h-1.64c-.04-.52-.24-.93-.62-1.24s-.88-.47-1.52-.47c-.59,0-1.06.13-1.4.38-.35.25-.52.58-.52.99,0,.32.1.59.31.8s.47.38.79.5c.32.13.76.27,1.32.42.71.19,1.28.38,1.73.57.44.19.83.46,1.14.84s.48.86.5,1.46c0,.54-.15,1.03-.45,1.46-.3.43-.72.77-1.27,1.02s-1.17.37-1.88.37c-.76,0-1.43-.13-2.03-.39Z"/>
        <path class="cls-2" d="M142.84,134.63c-.6-.26-1.07-.62-1.42-1.08s-.54-.99-.58-1.59h1.69c.05.49.28.89.69,1.21.41.31.96.47,1.63.47.62,0,1.12-.14,1.48-.41s.54-.62.54-1.04-.19-.75-.58-.96c-.38-.21-.98-.42-1.78-.62-.73-.19-1.33-.39-1.79-.58-.46-.2-.86-.49-1.19-.88-.33-.39-.5-.9-.5-1.54,0-.5.15-.97.45-1.39.3-.42.73-.75,1.28-1,.55-.25,1.18-.37,1.89-.37,1.09,0,1.97.28,2.65.83.67.55,1.03,1.31,1.08,2.27h-1.64c-.04-.52-.24-.93-.62-1.24s-.88-.47-1.52-.47c-.59,0-1.06.13-1.4.38-.35.25-.52.58-.52.99,0,.32.1.59.31.8s.47.38.79.5c.32.13.76.27,1.32.42.71.19,1.28.38,1.73.57.44.19.83.46,1.14.84s.48.86.5,1.46c0,.54-.15,1.03-.45,1.46-.3.43-.72.77-1.27,1.02s-1.17.37-1.88.37c-.76,0-1.43-.13-2.03-.39Z"/>
        <path class="cls-2" d="M150.83,123.06c-.22-.22-.32-.48-.32-.79s.11-.58.32-.79.48-.32.79-.32.56.11.77.32.31.48.31.79-.1.58-.31.79-.47.32-.77.32-.58-.11-.79-.32ZM152.42,124.99v9.86h-1.64v-9.86h1.64Z"/>
        <path class="cls-2" d="M157,134.38c-.75-.42-1.34-1.02-1.76-1.79-.43-.77-.64-1.67-.64-2.69s.22-1.9.66-2.67c.44-.77,1.03-1.37,1.79-1.78.76-.41,1.6-.62,2.54-.62s1.78.21,2.54.62c.76.41,1.35,1.01,1.79,1.77s.66,1.66.66,2.68-.23,1.92-.68,2.69c-.45.77-1.06,1.37-1.83,1.79-.77.42-1.62.63-2.56.63s-1.76-.21-2.51-.63ZM161.17,133.16c.52-.28.93-.69,1.25-1.24.32-.55.48-1.22.48-2.02s-.16-1.46-.47-2.02-.72-.96-1.22-1.23c-.5-.27-1.05-.4-1.64-.4s-1.15.13-1.65.4c-.5.27-.9.68-1.2,1.23s-.45,1.22-.45,2.02.15,1.48.44,2.03c.29.55.69.96,1.18,1.23.49.27,1.03.4,1.62.4s1.14-.14,1.66-.41Z"/>
        <path class="cls-2" d="M174.45,125.9c.74.73,1.12,1.77,1.12,3.14v5.81h-1.62v-5.58c0-.98-.25-1.74-.74-2.26-.49-.52-1.16-.78-2.02-.78s-1.55.27-2.06.81c-.51.54-.77,1.33-.77,2.36v5.45h-1.64v-9.86h1.64v1.4c.32-.5.77-.89,1.32-1.17.56-.28,1.17-.41,1.84-.41,1.2,0,2.17.36,2.92,1.09Z"/>
        <path class="cls-2" d="M23.56,150.86v4.08h-4.07v-4.07h4.07Z"/>
        <path class="cls-2" d="M37.02,147.33v-1.49h3.38v13.01h-1.66v-11.52h-1.73Z"/>
        <path class="cls-2" d="M55.61,152.58c-.71.69-1.8,1.04-3.27,1.04h-2.41v5.24h-1.64v-12.55h4.05c1.42,0,2.49.34,3.23,1.03.74.68,1.11,1.57,1.11,2.65s-.36,1.91-1.07,2.6ZM54.36,151.67c.43-.4.65-.96.65-1.69,0-1.55-.89-2.32-2.66-2.32h-2.41v4.61h2.41c.91,0,1.58-.2,2.02-.59Z"/>
        <path class="cls-2" d="M65.62,149.29c.6.32,1.07.8,1.41,1.43.34.64.51,1.41.51,2.32v5.81h-1.62v-5.58c0-.98-.25-1.74-.74-2.26-.49-.52-1.16-.78-2.02-.78s-1.55.27-2.06.81c-.51.54-.77,1.33-.77,2.36v5.45h-1.64v-13.32h1.64v4.86c.32-.5.77-.89,1.34-1.17.57-.28,1.21-.41,1.92-.41.74,0,1.42.16,2.02.48Z"/>
        <path class="cls-2" d="M72.02,158.38c-.75-.42-1.34-1.02-1.76-1.79-.43-.77-.64-1.67-.64-2.69s.22-1.9.66-2.67c.44-.77,1.03-1.37,1.79-1.78.76-.41,1.6-.62,2.54-.62s1.78.21,2.54.62c.76.41,1.35,1.01,1.79,1.77s.66,1.66.66,2.68-.23,1.92-.68,2.69c-.45.77-1.06,1.37-1.83,1.79-.77.42-1.62.63-2.56.63s-1.76-.21-2.51-.63ZM76.19,157.16c.52-.28.93-.69,1.25-1.24.32-.55.48-1.22.48-2.02s-.16-1.46-.47-2.02-.72-.96-1.22-1.23c-.5-.27-1.05-.4-1.64-.4s-1.15.13-1.65.4c-.5.27-.9.68-1.2,1.23s-.45,1.22-.45,2.02.15,1.48.44,2.03c.29.55.69.96,1.18,1.23.49.27,1.03.4,1.62.4s1.14-.14,1.66-.41Z"/>
        <path class="cls-2" d="M83.75,150.34v5.81c0,.48.1.82.31,1.02.2.2.56.3,1.06.3h1.21v1.39h-1.48c-.91,0-1.6-.21-2.05-.63-.46-.42-.68-1.11-.68-2.07v-5.81h-1.28v-1.35h1.28v-2.48h1.64v2.48h2.57v1.35h-2.57Z"/>
        <path class="cls-2" d="M90.09,158.38c-.75-.42-1.34-1.02-1.76-1.79-.43-.77-.64-1.67-.64-2.69s.22-1.9.66-2.67c.44-.77,1.03-1.37,1.79-1.78.76-.41,1.6-.62,2.54-.62s1.78.21,2.54.62c.76.41,1.35,1.01,1.79,1.77s.66,1.66.66,2.68-.23,1.92-.68,2.69c-.45.77-1.06,1.37-1.83,1.79-.77.42-1.62.63-2.56.63s-1.76-.21-2.51-.63ZM94.26,157.16c.52-.28.93-.69,1.25-1.24.32-.55.48-1.22.48-2.02s-.16-1.46-.47-2.02-.72-.96-1.22-1.23c-.5-.27-1.05-.4-1.64-.4s-1.15.13-1.65.4c-.5.27-.9.68-1.2,1.23s-.45,1.22-.45,2.02.15,1.48.44,2.03c.29.55.69.96,1.18,1.23.49.27,1.03.4,1.62.4s1.14-.14,1.66-.41Z"/>
        <path class="cls-2" d="M106.13,149.38c.64.37,1.12.84,1.43,1.4v-1.8h1.66v10.08c0,.9-.19,1.7-.58,2.4-.38.7-.93,1.25-1.65,1.65-.71.4-1.55.59-2.49.59-1.3,0-2.38-.31-3.24-.92-.86-.61-1.37-1.45-1.53-2.5h1.62c.18.6.55,1.08,1.12,1.45.56.37,1.24.55,2.03.55.9,0,1.63-.28,2.21-.85.57-.56.85-1.36.85-2.38v-2.07c-.32.58-.8,1.06-1.44,1.44-.64.38-1.38.58-2.23.58s-1.67-.22-2.39-.65c-.71-.43-1.27-1.04-1.68-1.82-.41-.78-.61-1.67-.61-2.66s.2-1.89.61-2.66c.41-.76.97-1.35,1.68-1.77.71-.42,1.51-.63,2.39-.63s1.6.19,2.24.56ZM107.11,151.96c-.3-.55-.71-.98-1.21-1.27-.51-.29-1.07-.44-1.68-.44s-1.17.14-1.67.43-.91.71-1.21,1.26-.45,1.2-.45,1.94.15,1.41.45,1.97.7.98,1.21,1.28,1.06.44,1.67.44,1.17-.15,1.68-.44c.51-.29.92-.72,1.21-1.28s.45-1.21.45-1.95-.15-1.39-.45-1.94Z"/>
        <path class="cls-2" d="M114.86,149.28c.53-.31,1.19-.47,1.95-.47v1.69h-.43c-1.84,0-2.75,1-2.75,2.99v5.36h-1.64v-9.86h1.64v1.6c.29-.56.7-1,1.23-1.31Z"/>
        <path class="cls-2" d="M118.71,151.23c.41-.76.97-1.35,1.68-1.77.71-.42,1.51-.63,2.39-.63s1.61.19,2.25.56c.64.37,1.11.84,1.42,1.4v-1.8h1.66v9.86h-1.66v-1.84c-.32.58-.81,1.05-1.45,1.43s-1.39.57-2.24.57-1.67-.22-2.38-.65c-.71-.43-1.27-1.04-1.67-1.82-.41-.78-.61-1.67-.61-2.66s.2-1.89.61-2.66ZM125.99,151.96c-.3-.55-.71-.98-1.21-1.27-.51-.29-1.07-.44-1.68-.44s-1.17.14-1.67.43-.91.71-1.21,1.26-.45,1.2-.45,1.94.15,1.41.45,1.97.7.98,1.21,1.28,1.06.44,1.67.44,1.17-.15,1.68-.44c.51-.29.92-.72,1.21-1.28s.45-1.21.45-1.95-.15-1.39-.45-1.94Z"/>
        <path class="cls-2" d="M133.96,149.39c.64-.38,1.39-.57,2.24-.57s1.67.21,2.39.63c.71.42,1.27,1.01,1.68,1.77.41.76.61,1.65.61,2.66s-.2,1.88-.61,2.66c-.41.78-.97,1.39-1.68,1.82-.71.43-1.51.65-2.39.65s-1.58-.19-2.22-.57c-.64-.38-1.13-.85-1.47-1.41v6.5h-1.64v-14.54h1.64v1.82c.32-.56.81-1.04,1.45-1.41ZM138.76,151.94c-.3-.55-.71-.97-1.21-1.26-.51-.29-1.07-.43-1.68-.43s-1.16.15-1.67.44c-.51.29-.92.72-1.22,1.28-.31.56-.46,1.2-.46,1.93s.15,1.4.46,1.95.71.98,1.22,1.28c.51.29,1.06.44,1.67.44s1.17-.15,1.68-.44c.51-.29.91-.72,1.21-1.28.3-.56.45-1.21.45-1.97s-.15-1.39-.45-1.94Z"/>
        <path class="cls-2" d="M149.95,149.29c.6.32,1.07.8,1.41,1.43.34.64.51,1.41.51,2.32v5.81h-1.62v-5.58c0-.98-.25-1.74-.74-2.26-.49-.52-1.16-.78-2.02-.78s-1.55.27-2.06.81c-.51.54-.77,1.33-.77,2.36v5.45h-1.64v-13.32h1.64v4.86c.32-.5.77-.89,1.34-1.17.57-.28,1.21-.41,1.92-.41.74,0,1.42.16,2.02.48Z"/>
        <path class="cls-2" d="M163.51,154.53h-7.88c.06.97.39,1.73,1,2.28s1.34.82,2.21.82c.71,0,1.3-.17,1.77-.5s.81-.77,1-1.32h1.76c-.26.95-.79,1.72-1.58,2.31-.79.59-1.78.89-2.95.89-.94,0-1.77-.21-2.51-.63-.74-.42-1.32-1.02-1.74-1.79-.42-.77-.63-1.67-.63-2.69s.2-1.91.61-2.68c.41-.77.98-1.36,1.72-1.77s1.59-.62,2.55-.62,1.76.2,2.48.61c.72.41,1.27.97,1.66,1.68.39.71.59,1.52.59,2.42,0,.31-.02.64-.05.99ZM161.45,151.59c-.28-.45-.65-.79-1.12-1.03s-1-.35-1.57-.35c-.83,0-1.53.26-2.12.79s-.92,1.26-1,2.2h6.23c0-.62-.14-1.16-.41-1.61Z"/>
        <path class="cls-2" d="M168.59,149.28c.53-.31,1.19-.47,1.95-.47v1.69h-.43c-1.84,0-2.75,1-2.75,2.99v5.36h-1.64v-9.86h1.64v1.6c.29-.56.7-1,1.23-1.31Z"/>
        <path class="cls-2" d="M23.56,174.86v4.08h-4.07v-4.07h4.07Z"/>
        <path class="cls-2" d="M37.02,171.33v-1.49h3.38v13.01h-1.66v-11.52h-1.73Z"/>
        <path class="cls-2" d="M44.22,171.38c.67-1.16,1.85-1.74,3.53-1.74s2.84.58,3.51,1.74c.67,1.16,1.01,2.77,1.01,4.83s-.34,3.73-1.01,4.9c-.67,1.16-1.84,1.75-3.51,1.75s-2.86-.58-3.53-1.75c-.67-1.16-1.01-2.8-1.01-4.9s.34-3.67,1.01-4.83ZM50.44,173.56c-.14-.73-.42-1.31-.85-1.75-.43-.44-1.04-.67-1.85-.67s-1.44.22-1.86.67c-.43.44-.71,1.03-.85,1.75s-.21,1.61-.21,2.66.07,1.99.21,2.72c.14.73.42,1.32.85,1.76.43.44,1.05.67,1.86.67s1.42-.22,1.85-.67c.43-.44.71-1.03.85-1.76.14-.73.21-1.64.21-2.72s-.07-1.93-.21-2.66Z"/>
        <path class="cls-2" d="M55.52,171.38c.67-1.16,1.85-1.74,3.53-1.74s2.84.58,3.51,1.74c.67,1.16,1.01,2.77,1.01,4.83s-.34,3.73-1.01,4.9c-.67,1.16-1.84,1.75-3.51,1.75s-2.86-.58-3.53-1.75c-.67-1.16-1.01-2.8-1.01-4.9s.34-3.67,1.01-4.83ZM61.74,173.56c-.14-.73-.42-1.31-.85-1.75-.43-.44-1.04-.67-1.85-.67s-1.44.22-1.86.67c-.43.44-.71,1.03-.85,1.75s-.21,1.61-.21,2.66.07,1.99.21,2.72c.14.73.42,1.32.85,1.76.43.44,1.05.67,1.86.67s1.42-.22,1.85-.67c.43-.44.71-1.03.85-1.76.14-.73.21-1.64.21-2.72s-.07-1.93-.21-2.66Z"/>
        <path class="cls-2" d="M75.45,176.97h-3.83v3.89h-1.53v-3.89h-3.82v-1.39h3.82v-3.91h1.53v3.91h3.83v1.39Z"/>
        <path class="cls-2" d="M84.83,171.64v4.19h4.57v1.35h-4.57v4.32h5.11v1.35h-6.75v-12.56h6.75v1.35h-5.11Z"/>
        <path class="cls-2" d="M92.42,175.23c.41-.76.97-1.35,1.68-1.77.71-.42,1.52-.63,2.4-.63.77,0,1.48.18,2.14.53.66.35,1.16.82,1.51,1.4v-5.22h1.66v13.32h-1.66v-1.85c-.32.59-.8,1.07-1.44,1.45-.64.38-1.38.57-2.23.57s-1.67-.22-2.39-.65c-.71-.43-1.27-1.04-1.68-1.82-.41-.78-.61-1.67-.61-2.66s.2-1.89.61-2.66ZM99.71,175.96c-.3-.55-.71-.98-1.21-1.27-.51-.29-1.07-.44-1.68-.44s-1.17.14-1.67.43-.91.71-1.21,1.26-.45,1.2-.45,1.94.15,1.41.45,1.97.7.98,1.21,1.28,1.06.44,1.67.44,1.17-.15,1.68-.44c.51-.29.92-.72,1.21-1.28s.45-1.21.45-1.95-.15-1.39-.45-1.94Z"/>
        <path class="cls-2" d="M104.65,171.06c-.22-.22-.32-.48-.32-.79s.11-.58.32-.79.48-.32.79-.32.56.11.77.32.31.48.31.79-.1.58-.31.79-.47.32-.77.32-.58-.11-.79-.32ZM106.23,172.99v9.86h-1.64v-9.86h1.64Z"/>
        <path class="cls-2" d="M111.02,174.34v5.81c0,.48.1.82.31,1.02.2.2.56.3,1.06.3h1.21v1.39h-1.48c-.91,0-1.6-.21-2.05-.63-.46-.42-.68-1.11-.68-2.07v-5.81h-1.28v-1.35h1.28v-2.48h1.64v2.48h2.57v1.35h-2.57Z"/>
        <path class="cls-2" d="M124.52,178.53h-7.88c.06.97.39,1.73,1,2.28s1.34.82,2.21.82c.71,0,1.3-.17,1.77-.5s.81-.77,1-1.32h1.76c-.26.95-.79,1.72-1.58,2.31-.79.59-1.78.89-2.95.89-.94,0-1.77-.21-2.51-.63-.74-.42-1.32-1.02-1.74-1.79-.42-.77-.63-1.67-.63-2.69s.2-1.91.61-2.68c.41-.77.98-1.36,1.72-1.77s1.59-.62,2.55-.62,1.76.2,2.48.61c.72.41,1.27.97,1.66,1.68.39.71.59,1.52.59,2.42,0,.31-.02.64-.05.99ZM122.47,175.59c-.28-.45-.65-.79-1.12-1.03s-1-.35-1.57-.35c-.83,0-1.53.26-2.12.79s-.92,1.26-1,2.2h6.23c0-.62-.14-1.16-.41-1.61Z"/>
        <path class="cls-2" d="M126.73,175.23c.41-.76.97-1.35,1.68-1.77.71-.42,1.52-.63,2.4-.63.77,0,1.48.18,2.14.53.66.35,1.16.82,1.51,1.4v-5.22h1.66v13.32h-1.66v-1.85c-.32.59-.8,1.07-1.44,1.45-.64.38-1.38.57-2.23.57s-1.67-.22-2.39-.65c-.71-.43-1.27-1.04-1.68-1.82-.41-.78-.61-1.67-.61-2.66s.2-1.89.61-2.66ZM134.02,175.96c-.3-.55-.71-.98-1.21-1.27-.51-.29-1.07-.44-1.68-.44s-1.17.14-1.67.43-.91.71-1.21,1.26-.45,1.2-.45,1.94.15,1.41.45,1.97.7.98,1.21,1.28,1.06.44,1.67.44,1.17-.15,1.68-.44c.51-.29.92-.72,1.21-1.28s.45-1.21.45-1.95-.15-1.39-.45-1.94Z"/>
        <path class="cls-2" d="M151.02,176.58c-.71.69-1.8,1.04-3.27,1.04h-2.41v5.24h-1.64v-12.55h4.05c1.42,0,2.49.34,3.23,1.03.74.68,1.11,1.57,1.11,2.65s-.36,1.91-1.07,2.6ZM149.77,175.67c.43-.4.65-.96.65-1.69,0-1.55-.89-2.32-2.66-2.32h-2.41v4.61h2.41c.91,0,1.58-.2,2.02-.59Z"/>
        <path class="cls-2" d="M161.04,173.29c.6.32,1.07.8,1.41,1.43.34.64.51,1.41.51,2.32v5.81h-1.62v-5.58c0-.98-.25-1.74-.74-2.26-.49-.52-1.16-.78-2.02-.78s-1.55.27-2.06.81c-.51.54-.77,1.33-.77,2.36v5.45h-1.64v-13.32h1.64v4.86c.32-.5.77-.89,1.34-1.17.57-.28,1.21-.41,1.92-.41.74,0,1.42.16,2.02.48Z"/>
        <path class="cls-2" d="M167.44,182.38c-.75-.42-1.34-1.02-1.76-1.79-.43-.77-.64-1.67-.64-2.69s.22-1.9.66-2.67c.44-.77,1.03-1.37,1.79-1.78.76-.41,1.6-.62,2.54-.62s1.78.21,2.54.62c.76.41,1.35,1.01,1.79,1.77s.66,1.66.66,2.68-.23,1.92-.68,2.69c-.45.77-1.06,1.37-1.83,1.79-.77.42-1.62.63-2.56.63s-1.76-.21-2.51-.63ZM171.61,181.16c.52-.28.93-.69,1.25-1.24.32-.55.48-1.22.48-2.02s-.16-1.46-.47-2.02-.72-.96-1.22-1.23c-.5-.27-1.05-.4-1.64-.4s-1.15.13-1.65.4c-.5.27-.9.68-1.2,1.23s-.45,1.22-.45,2.02.15,1.48.44,2.03c.29.55.69.96,1.18,1.23.49.27,1.03.4,1.62.4s1.14-.14,1.66-.41Z"/>
        <path class="cls-2" d="M179.17,174.34v5.81c0,.48.1.82.31,1.02.2.2.56.3,1.06.3h1.21v1.39h-1.48c-.91,0-1.6-.21-2.05-.63-.46-.42-.68-1.11-.68-2.07v-5.81h-1.28v-1.35h1.28v-2.48h1.64v2.48h2.57v1.35h-2.57Z"/>
        <path class="cls-2" d="M185.51,182.38c-.75-.42-1.34-1.02-1.76-1.79-.43-.77-.64-1.67-.64-2.69s.22-1.9.66-2.67c.44-.77,1.03-1.37,1.79-1.78.76-.41,1.6-.62,2.54-.62s1.78.21,2.54.62c.76.41,1.35,1.01,1.79,1.77s.66,1.66.66,2.68-.23,1.92-.68,2.69c-.45.77-1.06,1.37-1.83,1.79-.77.42-1.62.63-2.56.63s-1.76-.21-2.51-.63ZM189.68,181.16c.52-.28.93-.69,1.25-1.24.32-.55.48-1.22.48-2.02s-.16-1.46-.47-2.02-.72-.96-1.22-1.23c-.5-.27-1.05-.4-1.64-.4s-1.15.13-1.65.4c-.5.27-.9.68-1.2,1.23s-.45,1.22-.45,2.02.15,1.48.44,2.03c.29.55.69.96,1.18,1.23.49.27,1.03.4,1.62.4s1.14-.14,1.66-.41Z"/>
        <path class="cls-2" d="M23.56,198.86v4.08h-4.07v-4.07h4.07Z"/>
        <path class="cls-2" d="M37.02,195.33v-1.49h3.38v13.01h-1.66v-11.52h-1.73Z"/>
        <path class="cls-2" d="M49.93,205.52h4.39v1.33h-6.03v-12.55h1.64v11.21Z"/>
        <path class="cls-2" d="M57.86,206.38c-.75-.42-1.34-1.02-1.76-1.79-.43-.77-.64-1.67-.64-2.69s.22-1.9.66-2.67c.44-.77,1.03-1.37,1.79-1.78.76-.41,1.6-.62,2.54-.62s1.78.21,2.54.62c.76.41,1.35,1.01,1.79,1.77s.66,1.66.66,2.68-.23,1.92-.68,2.69c-.45.77-1.06,1.37-1.83,1.79-.77.42-1.62.63-2.56.63s-1.76-.21-2.51-.63ZM62.02,205.16c.52-.28.93-.69,1.25-1.24.32-.55.48-1.22.48-2.02s-.16-1.46-.47-2.02-.72-.96-1.22-1.23c-.5-.27-1.05-.4-1.64-.4s-1.15.13-1.65.4c-.5.27-.9.68-1.2,1.23s-.45,1.22-.45,2.02.15,1.48.44,2.03c.29.55.69.96,1.18,1.23.49.27,1.03.4,1.62.4s1.14-.14,1.66-.41Z"/>
        <path class="cls-2" d="M67.59,199.23c.41-.76.97-1.35,1.7-1.77.73-.42,1.56-.63,2.49-.63,1.21,0,2.21.29,3,.88.79.59,1.3,1.4,1.56,2.45h-1.76c-.17-.6-.5-1.07-.98-1.42-.49-.35-1.09-.52-1.81-.52-.94,0-1.69.32-2.27.96s-.86,1.55-.86,2.73.29,2.11.86,2.75c.58.65,1.33.97,2.27.97.72,0,1.32-.17,1.8-.5s.81-.82.99-1.44h1.76c-.26,1.01-.79,1.82-1.58,2.42-.79.61-1.78.91-2.97.91-.94,0-1.77-.21-2.49-.63s-1.29-1.01-1.7-1.78c-.41-.77-.61-1.67-.61-2.7s.2-1.91.61-2.67Z"/>
        <path class="cls-2" d="M78.51,199.23c.41-.76.97-1.35,1.68-1.77.71-.42,1.51-.63,2.39-.63s1.61.19,2.25.56c.64.37,1.11.84,1.42,1.4v-1.8h1.66v9.86h-1.66v-1.84c-.32.58-.81,1.05-1.45,1.43s-1.39.57-2.24.57-1.67-.22-2.38-.65c-.71-.43-1.27-1.04-1.67-1.82-.41-.78-.61-1.67-.61-2.66s.2-1.89.61-2.66ZM85.8,199.96c-.3-.55-.71-.98-1.21-1.27-.51-.29-1.07-.44-1.68-.44s-1.17.14-1.67.43-.91.71-1.21,1.26-.45,1.2-.45,1.94.15,1.41.45,1.97.7.98,1.21,1.28,1.06.44,1.67.44,1.17-.15,1.68-.44c.51-.29.92-.72,1.21-1.28s.45-1.21.45-1.95-.15-1.39-.45-1.94Z"/>
        <path class="cls-2" d="M92.68,198.34v5.81c0,.48.1.82.31,1.02.2.2.56.3,1.06.3h1.21v1.39h-1.48c-.91,0-1.6-.21-2.05-.63-.46-.42-.68-1.11-.68-2.07v-5.81h-1.28v-1.35h1.28v-2.48h1.64v2.48h2.57v1.35h-2.57Z"/>
        <path class="cls-2" d="M97.28,195.06c-.22-.22-.32-.48-.32-.79s.11-.58.32-.79.48-.32.79-.32.56.11.77.32.31.48.31.79-.1.58-.31.79-.47.32-.77.32-.58-.11-.79-.32ZM98.87,196.99v9.86h-1.64v-9.86h1.64Z"/>
        <path class="cls-2" d="M103.45,206.38c-.75-.42-1.34-1.02-1.76-1.79-.43-.77-.64-1.67-.64-2.69s.22-1.9.66-2.67c.44-.77,1.03-1.37,1.79-1.78.76-.41,1.6-.62,2.54-.62s1.78.21,2.54.62c.76.41,1.35,1.01,1.79,1.77s.66,1.66.66,2.68-.23,1.92-.68,2.69c-.45.77-1.06,1.37-1.83,1.79-.77.42-1.62.63-2.56.63s-1.76-.21-2.51-.63ZM107.62,205.16c.52-.28.93-.69,1.25-1.24.32-.55.48-1.22.48-2.02s-.16-1.46-.47-2.02-.72-.96-1.22-1.23c-.5-.27-1.05-.4-1.64-.4s-1.15.13-1.65.4c-.5.27-.9.68-1.2,1.23s-.45,1.22-.45,2.02.15,1.48.44,2.03c.29.55.69.96,1.18,1.23.49.27,1.03.4,1.62.4s1.14-.14,1.66-.41Z"/>
        <path class="cls-2" d="M120.9,197.9c.74.73,1.12,1.77,1.12,3.14v5.81h-1.62v-5.58c0-.98-.25-1.74-.74-2.26-.49-.52-1.16-.78-2.02-.78s-1.55.27-2.06.81c-.51.54-.77,1.33-.77,2.36v5.45h-1.64v-9.86h1.64v1.4c.32-.5.77-.89,1.32-1.17.56-.28,1.17-.41,1.84-.41,1.2,0,2.17.36,2.92,1.09Z"/>
        <path class="cls-2" d="M133.52,198.34h-2.07v8.51h-1.64v-8.51h-1.28v-1.35h1.28v-.7c0-1.1.29-1.91.85-2.42.57-.51,1.49-.76,2.75-.76v1.37c-.72,0-1.23.14-1.52.42s-.44.75-.44,1.39v.7h2.07v1.35Z"/>
        <path class="cls-2" d="M137.22,206.38c-.75-.42-1.34-1.02-1.76-1.79-.43-.77-.64-1.67-.64-2.69s.22-1.9.66-2.67c.44-.77,1.03-1.37,1.79-1.78.76-.41,1.6-.62,2.54-.62s1.78.21,2.54.62c.76.41,1.35,1.01,1.79,1.77s.66,1.66.66,2.68-.23,1.92-.68,2.69c-.45.77-1.06,1.37-1.83,1.79-.77.42-1.62.63-2.56.63s-1.76-.21-2.51-.63ZM141.38,205.16c.52-.28.93-.69,1.25-1.24.32-.55.48-1.22.48-2.02s-.16-1.46-.47-2.02-.72-.96-1.22-1.23c-.5-.27-1.05-.4-1.64-.4s-1.15.13-1.65.4c-.5.27-.9.68-1.2,1.23s-.45,1.22-.45,2.02.15,1.48.44,2.03c.29.55.69.96,1.18,1.23.49.27,1.03.4,1.62.4s1.14-.14,1.66-.41Z"/>
        <path class="cls-2" d="M149.82,197.28c.53-.31,1.19-.47,1.95-.47v1.69h-.43c-1.84,0-2.75,1-2.75,2.99v5.36h-1.64v-9.86h1.64v1.6c.29-.56.7-1,1.23-1.31Z"/>
        <path class="cls-2" d="M161.58,202.52c.86-.79,1.59-1.61,2.19-2.47.59-.86.89-1.7.89-2.53,0-.78-.19-1.39-.57-1.84-.38-.45-.99-.67-1.83-.67s-1.45.25-1.9.76c-.45.51-.69,1.19-.73,2.04h-1.58c.05-1.34.46-2.38,1.22-3.11.77-.73,1.76-1.1,2.97-1.1s2.22.34,2.94,1.03c.73.68,1.09,1.63,1.09,2.83,0,1-.3,1.97-.89,2.91-.59.94-1.27,1.77-2.02,2.48-.76.71-1.72,1.54-2.9,2.49h6.19v1.37h-8.66v-1.17c1.52-1.22,2.72-2.23,3.58-3.01Z"/>
        <path class="cls-2" d="M175.41,206.38c-.75-.42-1.34-1.02-1.76-1.79-.43-.77-.64-1.67-.64-2.69s.22-1.9.66-2.67c.44-.77,1.03-1.37,1.79-1.78.76-.41,1.6-.62,2.54-.62s1.78.21,2.54.62c.76.41,1.35,1.01,1.79,1.77s.66,1.66.66,2.68-.23,1.92-.68,2.69c-.45.77-1.06,1.37-1.83,1.79-.77.42-1.62.63-2.56.63s-1.76-.21-2.51-.63ZM179.58,205.16c.52-.28.93-.69,1.25-1.24.32-.55.48-1.22.48-2.02s-.16-1.46-.47-2.02-.72-.96-1.22-1.23c-.5-.27-1.05-.4-1.64-.4s-1.15.13-1.65.4c-.5.27-.9.68-1.2,1.23s-.45,1.22-.45,2.02.15,1.48.44,2.03c.29.55.69.96,1.18,1.23.49.27,1.03.4,1.62.4s1.14-.14,1.66-.41Z"/>
        <path class="cls-2" d="M193.89,196.99v9.86h-1.64v-1.46c-.31.5-.75.9-1.31,1.18-.56.28-1.17.42-1.84.42-.77,0-1.46-.16-2.07-.48-.61-.32-1.1-.79-1.45-1.43-.35-.64-.53-1.41-.53-2.32v-5.78h1.62v5.56c0,.97.25,1.72.74,2.24.49.52,1.16.78,2.02.78s1.57-.27,2.07-.81c.5-.54.76-1.33.76-2.36v-5.42h1.64Z"/>
        <path class="cls-2" d="M198.66,198.34v5.81c0,.48.1.82.31,1.02.2.2.56.3,1.06.3h1.21v1.39h-1.48c-.91,0-1.6-.21-2.05-.63-.46-.42-.68-1.11-.68-2.07v-5.81h-1.28v-1.35h1.28v-2.48h1.64v2.48h2.57v1.35h-2.57Z"/>
        <path class="cls-2" d="M207.23,198.34h-2.07v8.51h-1.64v-8.51h-1.28v-1.35h1.28v-.7c0-1.1.29-1.91.86-2.42.57-.51,1.49-.76,2.75-.76v1.37c-.72,0-1.23.14-1.52.42s-.44.75-.44,1.39v.7h2.07v1.35Z"/>
        <path class="cls-2" d="M209.19,195.06c-.22-.22-.32-.48-.32-.79s.11-.58.32-.79.48-.32.79-.32.56.11.77.32.31.48.31.79-.1.58-.31.79-.47.32-.77.32-.58-.11-.79-.32ZM210.77,196.99v9.86h-1.64v-9.86h1.64Z"/>
        <path class="cls-2" d="M215.56,198.34v5.81c0,.48.1.82.31,1.02.2.2.56.3,1.06.3h1.21v1.39h-1.48c-.91,0-1.6-.21-2.05-.63s-.68-1.11-.68-2.07v-5.81h-1.28v-1.35h1.28v-2.48h1.64v2.48h2.57v1.35h-2.57Z"/>
        <path class="cls-2" d="M23.56,222.86v4.08h-4.07v-4.07h4.07Z"/>
        <path class="cls-2" d="M45.14,228.06h-5.47l-1.01,2.79h-1.73l4.54-12.47h1.89l4.52,12.47h-1.73l-1.01-2.79ZM44.67,226.73l-2.27-6.34-2.27,6.34h4.54Z"/>
        <path class="cls-2" d="M51.49,217.53v13.32h-1.64v-13.32h1.64Z"/>
        <path class="cls-2" d="M55.92,217.53v13.32h-1.64v-13.32h1.64Z"/>
        <path class="cls-2" d="M70.83,224.58c-.71.69-1.8,1.04-3.27,1.04h-2.41v5.24h-1.64v-12.55h4.05c1.42,0,2.49.34,3.23,1.03.74.68,1.11,1.57,1.11,2.65s-.36,1.91-1.07,2.6ZM69.58,223.67c.43-.4.65-.96.65-1.69,0-1.55-.89-2.32-2.66-2.32h-2.41v4.61h2.41c.91,0,1.58-.2,2.02-.59Z"/>
        <path class="cls-2" d="M80.85,221.29c.6.32,1.07.8,1.41,1.43.34.64.51,1.41.51,2.32v5.81h-1.62v-5.58c0-.98-.25-1.74-.74-2.26-.49-.52-1.16-.78-2.02-.78s-1.55.27-2.06.81c-.51.54-.77,1.33-.77,2.36v5.45h-1.64v-13.32h1.64v4.86c.32-.5.77-.89,1.34-1.17.57-.28,1.21-.41,1.92-.41.74,0,1.42.16,2.02.48Z"/>
        <path class="cls-2" d="M87.25,230.38c-.75-.42-1.34-1.02-1.76-1.79-.43-.77-.64-1.67-.64-2.69s.22-1.9.66-2.67c.44-.77,1.03-1.37,1.79-1.78.76-.41,1.6-.62,2.54-.62s1.78.21,2.54.62c.76.41,1.35,1.01,1.79,1.77s.66,1.66.66,2.68-.23,1.92-.68,2.69c-.45.77-1.06,1.37-1.83,1.79-.77.42-1.62.63-2.56.63s-1.76-.21-2.51-.63ZM91.42,229.16c.52-.28.93-.69,1.25-1.24.32-.55.48-1.22.48-2.02s-.16-1.46-.47-2.02-.72-.96-1.22-1.23c-.5-.27-1.05-.4-1.64-.4s-1.15.13-1.65.4c-.5.27-.9.68-1.2,1.23s-.45,1.22-.45,2.02.15,1.48.44,2.03c.29.55.69.96,1.18,1.23.49.27,1.03.4,1.62.4s1.14-.14,1.66-.41Z"/>
        <path class="cls-2" d="M98.98,222.34v5.81c0,.48.1.82.31,1.02.2.2.56.3,1.06.3h1.21v1.39h-1.48c-.91,0-1.6-.21-2.05-.63-.46-.42-.68-1.11-.68-2.07v-5.81h-1.28v-1.35h1.28v-2.48h1.64v2.48h2.57v1.35h-2.57Z"/>
        <path class="cls-2" d="M105.32,230.38c-.75-.42-1.34-1.02-1.76-1.79-.43-.77-.64-1.67-.64-2.69s.22-1.9.66-2.67c.44-.77,1.03-1.37,1.79-1.78.76-.41,1.6-.62,2.54-.62s1.78.21,2.54.62c.76.41,1.35,1.01,1.79,1.77s.66,1.66.66,2.68-.23,1.92-.68,2.69c-.45.77-1.06,1.37-1.83,1.79-.77.42-1.62.63-2.56.63s-1.76-.21-2.51-.63ZM109.49,229.16c.52-.28.93-.69,1.25-1.24.32-.55.48-1.22.48-2.02s-.16-1.46-.47-2.02-.72-.96-1.22-1.23c-.5-.27-1.05-.4-1.64-.4s-1.15.13-1.65.4c-.5.27-.9.68-1.2,1.23s-.45,1.22-.45,2.02.15,1.48.44,2.03c.29.55.69.96,1.18,1.23.49.27,1.03.4,1.62.4s1.14-.14,1.66-.41Z"/>
        <path class="cls-2" d="M121.65,230.38c-.75-.42-1.34-1.02-1.76-1.79-.43-.77-.64-1.67-.64-2.69s.22-1.9.66-2.67c.44-.77,1.03-1.37,1.79-1.78.76-.41,1.6-.62,2.54-.62s1.78.21,2.54.62c.76.41,1.35,1.01,1.79,1.77s.66,1.66.66,2.68-.23,1.92-.68,2.69c-.45.77-1.06,1.37-1.83,1.79-.77.42-1.62.63-2.56.63s-1.76-.21-2.51-.63ZM125.81,229.16c.52-.28.93-.69,1.25-1.24.32-.55.48-1.22.48-2.02s-.16-1.46-.47-2.02-.72-.96-1.22-1.23c-.5-.27-1.05-.4-1.64-.4s-1.15.13-1.65.4c-.5.27-.9.68-1.2,1.23s-.45,1.22-.45,2.02.15,1.48.44,2.03c.29.55.69.96,1.18,1.23.49.27,1.03.4,1.62.4s1.14-.14,1.66-.41Z"/>
        <path class="cls-2" d="M139.1,221.9c.74.73,1.12,1.77,1.12,3.14v5.81h-1.62v-5.58c0-.98-.25-1.74-.74-2.26-.49-.52-1.16-.78-2.02-.78s-1.55.27-2.06.81c-.51.54-.77,1.33-.77,2.36v5.45h-1.64v-9.86h1.64v1.4c.32-.5.77-.89,1.32-1.17.56-.28,1.17-.41,1.84-.41,1.2,0,2.17.36,2.92,1.09Z"/>
        <path class="cls-2" d="M157.21,221.94c-.35-.73-.85-1.3-1.51-1.7-.66-.4-1.43-.6-2.3-.6s-1.67.2-2.37.6c-.7.4-1.25.98-1.66,1.73-.4.75-.6,1.62-.6,2.6s.2,1.85.6,2.59c.4.74.95,1.32,1.66,1.72s1.49.6,2.37.6c1.22,0,2.23-.37,3.02-1.1.79-.73,1.25-1.72,1.39-2.97h-5v-1.33h6.75v1.26c-.1,1.03-.42,1.98-.97,2.83s-1.28,1.54-2.18,2.03-1.9.75-3.01.75c-1.16,0-2.23-.27-3.19-.82-.96-.55-1.72-1.3-2.28-2.28-.56-.97-.84-2.07-.84-3.29s.28-2.32.84-3.3c.56-.98,1.32-1.74,2.28-2.29.96-.55,2.02-.82,3.19-.82,1.33,0,2.51.33,3.54.99,1.03.66,1.77,1.59,2.24,2.79h-1.96Z"/>
        <path class="cls-2" d="M163.5,230.38c-.75-.42-1.34-1.02-1.76-1.79-.43-.77-.64-1.67-.64-2.69s.22-1.9.66-2.67c.44-.77,1.03-1.37,1.79-1.78.76-.41,1.6-.62,2.54-.62s1.78.21,2.54.62c.76.41,1.35,1.01,1.79,1.77s.66,1.66.66,2.68-.23,1.92-.68,2.69c-.45.77-1.06,1.37-1.83,1.79-.77.42-1.62.63-2.56.63s-1.76-.21-2.51-.63ZM167.66,229.16c.52-.28.93-.69,1.25-1.24.32-.55.48-1.22.48-2.02s-.16-1.46-.47-2.02-.72-.96-1.22-1.23c-.5-.27-1.05-.4-1.64-.4s-1.15.13-1.65.4c-.5.27-.9.68-1.2,1.23s-.45,1.22-.45,2.02.15,1.48.44,2.03c.29.55.69.96,1.18,1.23.49.27,1.03.4,1.62.4s1.14-.14,1.66-.41Z"/>
        <path class="cls-2" d="M175.02,230.38c-.75-.42-1.34-1.02-1.76-1.79-.43-.77-.64-1.67-.64-2.69s.22-1.9.66-2.67c.44-.77,1.03-1.37,1.79-1.78.76-.41,1.6-.62,2.54-.62s1.78.21,2.54.62c.76.41,1.35,1.01,1.79,1.77s.66,1.66.66,2.68-.23,1.92-.68,2.69c-.45.77-1.06,1.37-1.83,1.79-.77.42-1.62.63-2.56.63s-1.76-.21-2.51-.63ZM179.18,229.16c.52-.28.93-.69,1.25-1.24.32-.55.48-1.22.48-2.02s-.16-1.46-.47-2.02-.72-.96-1.22-1.23c-.5-.27-1.05-.4-1.64-.4s-1.15.13-1.65.4c-.5.27-.9.68-1.2,1.23s-.45,1.22-.45,2.02.15,1.48.44,2.03c.29.55.69.96,1.18,1.23.49.27,1.03.4,1.62.4s1.14-.14,1.66-.41Z"/>
        <path class="cls-2" d="M191.06,221.38c.64.37,1.12.84,1.43,1.4v-1.8h1.66v10.08c0,.9-.19,1.7-.58,2.4-.38.7-.93,1.25-1.65,1.65-.71.4-1.55.59-2.49.59-1.3,0-2.38-.31-3.24-.92-.86-.61-1.37-1.45-1.53-2.5h1.62c.18.6.55,1.08,1.12,1.45.56.37,1.24.55,2.03.55.9,0,1.63-.28,2.21-.85.57-.56.85-1.36.85-2.38v-2.07c-.32.58-.8,1.06-1.44,1.44-.64.38-1.38.58-2.23.58s-1.67-.22-2.39-.65c-.71-.43-1.27-1.04-1.68-1.82-.41-.78-.61-1.67-.61-2.66s.2-1.89.61-2.66c.41-.76.97-1.35,1.68-1.77.71-.42,1.51-.63,2.39-.63s1.6.19,2.24.56ZM192.04,223.96c-.3-.55-.71-.98-1.21-1.27-.51-.29-1.07-.44-1.68-.44s-1.17.14-1.67.43-.91.71-1.21,1.26-.45,1.2-.45,1.94.15,1.41.45,1.97.7.98,1.21,1.28,1.06.44,1.67.44,1.17-.15,1.68-.44c.51-.29.92-.72,1.21-1.28s.45-1.21.45-1.95-.15-1.39-.45-1.94Z"/>
        <path class="cls-2" d="M198.55,217.53v13.32h-1.64v-13.32h1.64Z"/>
        <path class="cls-2" d="M210.29,226.53h-7.88c.06.97.39,1.73,1,2.28s1.34.82,2.21.82c.71,0,1.3-.17,1.77-.5.47-.33.81-.77,1-1.32h1.76c-.26.95-.79,1.72-1.58,2.31-.79.59-1.78.89-2.95.89-.94,0-1.77-.21-2.51-.63-.74-.42-1.32-1.02-1.74-1.79-.42-.77-.63-1.67-.63-2.69s.2-1.91.61-2.68c.41-.77.98-1.36,1.72-1.77s1.59-.62,2.55-.62,1.76.2,2.48.61,1.28.97,1.67,1.68c.39.71.58,1.52.58,2.42,0,.31-.02.64-.05.99ZM208.24,223.59c-.28-.45-.65-.79-1.12-1.03-.47-.23-1-.35-1.57-.35-.83,0-1.53.26-2.12.79s-.92,1.26-1,2.2h6.23c0-.62-.14-1.16-.41-1.61Z"/>
        <path class="cls-2" d="M224.77,219.07c1,.51,1.77,1.24,2.3,2.19.53.95.8,2.06.8,3.35s-.27,2.4-.8,3.34c-.53.94-1.3,1.66-2.3,2.16-1,.5-2.19.75-3.56.75h-3.91v-12.55h3.91c1.37,0,2.55.25,3.56.76ZM224.92,228.22c.85-.86,1.28-2.06,1.28-3.61s-.43-2.78-1.29-3.65c-.86-.88-2.09-1.31-3.7-1.31h-2.27v9.86h2.27c1.62,0,2.86-.43,3.71-1.29Z"/>
        <path class="cls-2" d="M232.9,221.28c.53-.31,1.19-.47,1.95-.47v1.69h-.43c-1.84,0-2.75,1-2.75,2.99v5.36h-1.64v-9.86h1.64v1.6c.29-.56.7-1,1.23-1.31Z"/>
        <path class="cls-2" d="M236.8,219.06c-.22-.22-.32-.48-.32-.79s.11-.58.32-.79.48-.32.79-.32.55.11.76.32.32.48.32.79-.11.58-.32.79-.46.32-.76.32-.58-.11-.79-.32ZM238.39,220.99v9.86h-1.64v-9.86h1.64Z"/>
        <path class="cls-2" d="M244.85,229.34l3.06-8.35h1.75l-3.87,9.86h-1.91l-3.87-9.86h1.76l3.08,8.35Z"/>
        <path class="cls-2" d="M260.22,226.53h-7.88c.06.97.39,1.73,1,2.28.61.55,1.34.82,2.21.82.71,0,1.3-.17,1.77-.5s.81-.77,1-1.32h1.76c-.26.95-.79,1.72-1.58,2.31-.79.59-1.78.89-2.95.89-.94,0-1.77-.21-2.51-.63-.74-.42-1.32-1.02-1.74-1.79-.42-.77-.63-1.67-.63-2.69s.2-1.91.61-2.68.98-1.36,1.72-1.77c.74-.41,1.59-.62,2.55-.62s1.76.2,2.48.61c.72.41,1.28.97,1.67,1.68.39.71.58,1.52.58,2.42,0,.31-.02.64-.05.99ZM258.17,223.59c-.28-.45-.65-.79-1.12-1.03-.47-.23-1-.35-1.58-.35-.83,0-1.53.26-2.12.79s-.92,1.26-1,2.2h6.23c0-.62-.14-1.16-.41-1.61Z"/>
        <path class="cls-2" d="M23.56,270.86v4.08h-4.07v-4.07h4.07Z"/>
        <path class="cls-2" d="M39.48,278.54c-.65-.29-1.17-.7-1.54-1.22-.37-.52-.56-1.12-.58-1.81h1.75c.06.59.3,1.08.73,1.48.43.4,1.05.6,1.86.6s1.4-.2,1.85-.58.67-.89.67-1.5c0-.48-.13-.87-.4-1.17-.26-.3-.59-.53-.99-.68-.4-.16-.93-.32-1.6-.5-.83-.22-1.49-.43-1.99-.65-.5-.22-.92-.56-1.28-1.02s-.53-1.08-.53-1.86c0-.68.17-1.29.52-1.82.35-.53.84-.94,1.47-1.22s1.35-.43,2.17-.43c1.18,0,2.14.29,2.89.88s1.17,1.37,1.27,2.34h-1.8c-.06-.48-.31-.9-.76-1.27s-1.03-.55-1.76-.55c-.68,0-1.24.18-1.67.53-.43.35-.65.85-.65,1.49,0,.46.13.83.39,1.12.26.29.58.51.95.66.38.15.91.32,1.59.51.83.23,1.49.45,2,.67.5.22.94.56,1.3,1.03s.54,1.09.54,1.88c0,.61-.16,1.19-.49,1.73-.32.54-.8.98-1.44,1.31-.64.34-1.39.5-2.25.5s-1.57-.15-2.22-.44Z"/>
        <path class="cls-2" d="M51.38,269.39c.64-.38,1.39-.57,2.24-.57s1.67.21,2.39.63c.71.42,1.27,1.01,1.68,1.77.41.76.61,1.65.61,2.66s-.2,1.88-.61,2.66c-.41.78-.97,1.39-1.68,1.82-.71.43-1.51.65-2.39.65s-1.58-.19-2.22-.57c-.64-.38-1.13-.85-1.47-1.41v6.5h-1.64v-14.54h1.64v1.82c.32-.56.81-1.04,1.45-1.41ZM56.17,271.94c-.3-.55-.71-.97-1.21-1.26-.51-.29-1.07-.43-1.68-.43s-1.16.15-1.67.44c-.51.29-.92.72-1.22,1.28-.31.56-.46,1.2-.46,1.93s.15,1.4.46,1.95.71.98,1.22,1.28c.51.29,1.06.44,1.67.44s1.17-.15,1.68-.44c.51-.29.91-.72,1.21-1.28.3-.56.45-1.21.45-1.97s-.15-1.39-.45-1.94Z"/>
        <path class="cls-2" d="M69.4,274.53h-7.88c.06.97.39,1.73,1,2.28s1.34.82,2.21.82c.71,0,1.3-.17,1.77-.5s.81-.77,1-1.32h1.76c-.26.95-.79,1.72-1.58,2.31-.79.59-1.78.89-2.95.89-.94,0-1.77-.21-2.51-.63-.74-.42-1.32-1.02-1.74-1.79-.42-.77-.63-1.67-.63-2.69s.2-1.91.61-2.68c.41-.77.98-1.36,1.72-1.77s1.59-.62,2.55-.62,1.76.2,2.48.61c.72.41,1.27.97,1.66,1.68.39.71.59,1.52.59,2.42,0,.31-.02.64-.05.99ZM67.35,271.59c-.28-.45-.65-.79-1.12-1.03s-1-.35-1.57-.35c-.83,0-1.53.26-2.12.79s-.92,1.26-1,2.2h6.23c0-.62-.14-1.16-.41-1.61Z"/>
        <path class="cls-2" d="M71.62,271.23c.41-.76.97-1.35,1.7-1.77.73-.42,1.56-.63,2.49-.63,1.21,0,2.21.29,3,.88.79.59,1.3,1.4,1.56,2.45h-1.76c-.17-.6-.5-1.07-.98-1.42-.49-.35-1.09-.52-1.81-.52-.94,0-1.69.32-2.27.96s-.86,1.55-.86,2.73.29,2.11.86,2.75c.58.65,1.33.97,2.27.97.72,0,1.32-.17,1.8-.5s.81-.82.99-1.44h1.76c-.26,1.01-.79,1.82-1.58,2.42-.79.61-1.78.91-2.97.91-.94,0-1.77-.21-2.49-.63s-1.29-1.01-1.7-1.78c-.41-.77-.61-1.67-.61-2.7s.2-1.91.61-2.67Z"/>
        <path class="cls-2" d="M82.6,267.06c-.22-.22-.32-.48-.32-.79s.11-.58.32-.79.48-.32.79-.32.56.11.77.32.31.48.31.79-.1.58-.31.79-.47.32-.77.32-.58-.11-.79-.32ZM84.18,268.99v9.86h-1.64v-9.86h1.64Z"/>
        <path class="cls-2" d="M86.97,271.23c.41-.76.97-1.35,1.68-1.77.71-.42,1.51-.63,2.39-.63s1.61.19,2.25.56c.64.37,1.11.84,1.42,1.4v-1.8h1.66v9.86h-1.66v-1.84c-.32.58-.81,1.05-1.45,1.43s-1.39.57-2.24.57-1.67-.22-2.38-.65c-.71-.43-1.27-1.04-1.67-1.82-.41-.78-.61-1.67-.61-2.66s.2-1.89.61-2.66ZM94.26,271.96c-.3-.55-.71-.98-1.21-1.27-.51-.29-1.07-.44-1.68-.44s-1.17.14-1.67.43-.91.71-1.21,1.26-.45,1.2-.45,1.94.15,1.41.45,1.97.7.98,1.21,1.28,1.06.44,1.67.44,1.17-.15,1.68-.44c.51-.29.92-.72,1.21-1.28s.45-1.21.45-1.95-.15-1.39-.45-1.94Z"/>
        <path class="cls-2" d="M100.78,265.53v13.32h-1.64v-13.32h1.64Z"/>
        <path class="cls-2" d="M110.01,266.31v12.55h-1.64v-12.55h1.64Z"/>
        <path class="cls-2" d="M120.52,269.9c.74.73,1.12,1.77,1.12,3.14v5.81h-1.62v-5.58c0-.98-.25-1.74-.74-2.26-.49-.52-1.16-.78-2.02-.78s-1.55.27-2.06.81c-.51.54-.77,1.33-.77,2.36v5.45h-1.64v-9.86h1.64v1.4c.32-.5.77-.89,1.32-1.17.56-.28,1.17-.41,1.84-.41,1.2,0,2.17.36,2.92,1.09Z"/>
        <path class="cls-2" d="M124.32,271.23c.41-.76.97-1.35,1.7-1.77.73-.42,1.56-.63,2.49-.63,1.21,0,2.21.29,3,.88.79.59,1.3,1.4,1.56,2.45h-1.76c-.17-.6-.5-1.07-.98-1.42-.49-.35-1.09-.52-1.81-.52-.94,0-1.69.32-2.27.96s-.86,1.55-.86,2.73.29,2.11.86,2.75c.58.65,1.33.97,2.27.97.72,0,1.32-.17,1.8-.5s.81-.82.99-1.44h1.76c-.26,1.01-.79,1.82-1.58,2.42-.79.61-1.78.91-2.97.91-.94,0-1.77-.21-2.49-.63s-1.29-1.01-1.7-1.78c-.41-.77-.61-1.67-.61-2.7s.2-1.91.61-2.67Z"/>
        <path class="cls-2" d="M136.88,265.53v13.32h-1.64v-13.32h1.64Z"/>
        <path class="cls-2" d="M148.42,268.99v9.86h-1.64v-1.46c-.31.5-.75.9-1.31,1.18-.56.28-1.17.42-1.84.42-.77,0-1.46-.16-2.07-.48-.61-.32-1.1-.79-1.45-1.43-.35-.64-.53-1.41-.53-2.32v-5.78h1.62v5.56c0,.97.25,1.72.74,2.24.49.52,1.16.78,2.02.78s1.57-.27,2.07-.81c.5-.54.76-1.33.76-2.36v-5.42h1.64Z"/>
        <path class="cls-2" d="M151.19,271.23c.41-.76.97-1.35,1.68-1.77.71-.42,1.52-.63,2.4-.63.77,0,1.48.18,2.14.53.66.35,1.16.82,1.51,1.4v-5.22h1.66v13.32h-1.66v-1.85c-.32.59-.8,1.07-1.44,1.45-.64.38-1.38.57-2.23.57s-1.67-.22-2.39-.65c-.71-.43-1.27-1.04-1.68-1.82-.41-.78-.61-1.67-.61-2.66s.2-1.89.61-2.66ZM158.48,271.96c-.3-.55-.71-.98-1.21-1.27-.51-.29-1.07-.44-1.68-.44s-1.17.14-1.67.43-.91.71-1.21,1.26-.45,1.2-.45,1.94.15,1.41.45,1.97.7.98,1.21,1.28,1.06.44,1.67.44,1.17-.15,1.68-.44c.51-.29.92-.72,1.21-1.28s.45-1.21.45-1.95-.15-1.39-.45-1.94Z"/>
        <path class="cls-2" d="M172.31,274.53h-7.88c.06.97.39,1.73,1,2.28s1.34.82,2.21.82c.71,0,1.3-.17,1.77-.5s.81-.77,1-1.32h1.76c-.26.95-.79,1.72-1.58,2.31-.79.59-1.78.89-2.95.89-.94,0-1.77-.21-2.51-.63-.74-.42-1.32-1.02-1.74-1.79-.42-.77-.63-1.67-.63-2.69s.2-1.91.61-2.68c.41-.77.98-1.36,1.72-1.77s1.59-.62,2.55-.62,1.76.2,2.48.61c.72.41,1.27.97,1.66,1.68.39.71.59,1.52.59,2.42,0,.31-.02.64-.05.99ZM170.26,271.59c-.28-.45-.65-.79-1.12-1.03s-1-.35-1.57-.35c-.83,0-1.53.26-2.12.79s-.92,1.26-1,2.2h6.23c0-.62-.14-1.16-.41-1.61Z"/>
        <path class="cls-2" d="M23.56,294.86v4.08h-4.07v-4.07h4.07Z"/>
        <path class="cls-2" d="M39.24,301.9c-.64-1.74-.96-3.62-.96-5.63s.34-3.99,1.02-5.79c.68-1.79,1.65-3.27,2.91-4.44h1.71v.16c-1.34,1.26-2.36,2.78-3.03,4.54-.68,1.77-1.02,3.61-1.02,5.52s.32,3.64.96,5.33c.64,1.69,1.58,3.17,2.82,4.45v.16h-1.71c-1.15-1.13-2.05-2.56-2.69-4.3Z"/>
        <path class="cls-2" d="M46.11,293.27c.55-.98,1.31-1.74,2.26-2.29.95-.55,2.01-.83,3.18-.83,1.37,0,2.56.33,3.58.99,1.02.66,1.76,1.6,2.23,2.81h-1.96c-.35-.76-.85-1.34-1.5-1.75-.65-.41-1.44-.61-2.35-.61s-1.66.2-2.36.61c-.7.41-1.24.99-1.64,1.74s-.59,1.63-.59,2.64.2,1.87.59,2.62.94,1.33,1.64,1.74c.7.41,1.48.61,2.36.61s1.69-.2,2.35-.6c.65-.4,1.15-.98,1.5-1.74h1.96c-.47,1.2-1.21,2.13-2.23,2.78-1.02.65-2.21.98-3.58.98-1.16,0-2.22-.27-3.18-.82-.95-.55-1.71-1.3-2.26-2.28-.55-.97-.83-2.07-.83-3.29s.28-2.32.83-3.3Z"/>
        <path class="cls-2" d="M61.58,302.38c-.75-.42-1.34-1.02-1.76-1.79-.43-.77-.64-1.67-.64-2.69s.22-1.9.66-2.67c.44-.77,1.03-1.37,1.79-1.78.76-.41,1.6-.62,2.54-.62s1.78.21,2.54.62c.76.41,1.35,1.01,1.79,1.77s.66,1.66.66,2.68-.23,1.92-.68,2.69c-.45.77-1.06,1.37-1.83,1.79-.77.42-1.62.63-2.56.63s-1.76-.21-2.51-.63ZM65.75,301.16c.52-.28.93-.69,1.25-1.24.32-.55.48-1.22.48-2.02s-.16-1.46-.47-2.02-.72-.96-1.22-1.23c-.5-.27-1.05-.4-1.64-.4s-1.15.13-1.65.4c-.5.27-.9.68-1.2,1.23s-.45,1.22-.45,2.02.15,1.48.44,2.03c.29.55.69.96,1.18,1.23.49.27,1.03.4,1.62.4s1.14-.14,1.66-.41Z"/>
        <path class="cls-2" d="M79.03,293.9c.74.73,1.12,1.77,1.12,3.14v5.81h-1.62v-5.58c0-.98-.25-1.74-.74-2.26-.49-.52-1.16-.78-2.02-.78s-1.55.27-2.06.81c-.51.54-.77,1.33-.77,2.36v5.45h-1.64v-9.86h1.64v1.4c.32-.5.77-.89,1.32-1.17.56-.28,1.17-.41,1.84-.41,1.2,0,2.17.36,2.92,1.09Z"/>
        <path class="cls-2" d="M82.83,295.23c.41-.76.97-1.35,1.7-1.77.73-.42,1.56-.63,2.49-.63,1.21,0,2.21.29,3,.88.79.59,1.3,1.4,1.56,2.45h-1.76c-.17-.6-.5-1.07-.98-1.42-.49-.35-1.09-.52-1.81-.52-.94,0-1.69.32-2.27.96s-.86,1.55-.86,2.73.29,2.11.86,2.75c.58.65,1.33.97,2.27.97.72,0,1.32-.17,1.8-.5s.81-.82.99-1.44h1.76c-.26,1.01-.79,1.82-1.58,2.42-.79.61-1.78.91-2.97.91-.94,0-1.77-.21-2.49-.63s-1.29-1.01-1.7-1.78c-.41-.77-.61-1.67-.61-2.7s.2-1.91.61-2.67Z"/>
        <path class="cls-2" d="M102.7,298.53h-7.88c.06.97.39,1.73,1,2.28s1.34.82,2.21.82c.71,0,1.3-.17,1.77-.5s.81-.77,1-1.32h1.76c-.26.95-.79,1.72-1.58,2.31-.79.59-1.78.89-2.95.89-.94,0-1.77-.21-2.51-.63-.74-.42-1.32-1.02-1.74-1.79-.42-.77-.63-1.67-.63-2.69s.2-1.91.61-2.68c.41-.77.98-1.36,1.72-1.77s1.59-.62,2.55-.62,1.76.2,2.48.61c.72.41,1.27.97,1.66,1.68.39.71.59,1.52.59,2.42,0,.31-.02.64-.05.99ZM100.65,295.59c-.28-.45-.65-.79-1.12-1.03s-1-.35-1.57-.35c-.83,0-1.53.26-2.12.79s-.92,1.26-1,2.2h6.23c0-.62-.14-1.16-.41-1.61Z"/>
        <path class="cls-2" d="M108,293.39c.64-.38,1.39-.57,2.24-.57s1.67.21,2.39.63c.71.42,1.27,1.01,1.68,1.77.41.76.61,1.65.61,2.66s-.2,1.88-.61,2.66c-.41.78-.97,1.39-1.68,1.82-.71.43-1.51.65-2.39.65s-1.58-.19-2.22-.57c-.64-.38-1.13-.85-1.47-1.41v6.5h-1.64v-14.54h1.64v1.82c.32-.56.81-1.04,1.45-1.41ZM112.8,295.94c-.3-.55-.71-.97-1.21-1.26-.51-.29-1.07-.43-1.68-.43s-1.16.15-1.67.44c-.51.29-.92.72-1.22,1.28-.31.56-.46,1.2-.46,1.93s.15,1.4.46,1.95.71.98,1.22,1.28c.51.29,1.06.44,1.67.44s1.17-.15,1.68-.44c.51-.29.91-.72,1.21-1.28.3-.56.45-1.21.45-1.97s-.15-1.39-.45-1.94Z"/>
        <path class="cls-2" d="M119.08,294.34v5.81c0,.48.1.82.31,1.02.2.2.56.3,1.06.3h1.21v1.39h-1.48c-.91,0-1.6-.21-2.05-.63-.46-.42-.68-1.11-.68-2.07v-5.81h-1.28v-1.35h1.28v-2.48h1.64v2.48h2.57v1.35h-2.57Z"/>
        <path class="cls-2" d="M138.07,302.85l-1.64-1.66c-.61.64-1.27,1.11-1.96,1.41-.7.31-1.48.46-2.36.46s-1.63-.16-2.29-.47-1.18-.76-1.55-1.33-.55-1.25-.55-2.02c0-.88.25-1.65.75-2.31.5-.67,1.23-1.19,2.21-1.58-.38-.46-.66-.88-.83-1.26-.17-.38-.25-.8-.25-1.26,0-.53.13-1,.4-1.43.27-.43.66-.76,1.16-1,.5-.24,1.09-.36,1.75-.36s1.21.13,1.69.38.84.6,1.08,1.05c.24.45.35.95.32,1.5h-1.64c.01-.49-.13-.88-.41-1.16-.29-.28-.66-.42-1.12-.42-.48,0-.87.13-1.16.41-.29.27-.44.62-.44,1.04,0,.36.1.71.3,1.04.2.34.53.75,1,1.24l3.74,3.76.32-.5,1.22-2.05h1.76l-1.48,2.56c-.2.36-.44.74-.72,1.13l2.83,2.83h-2.14ZM133.87,301.29c.52-.25,1.02-.64,1.48-1.17l-3.69-3.71c-1.54.59-2.3,1.52-2.3,2.79,0,.71.25,1.3.76,1.76.51.47,1.17.7,1.99.7.65,0,1.23-.13,1.75-.38Z"/>
        <path class="cls-2" d="M159.28,290.4v12.46h-1.64v-9.29l-4.14,9.29h-1.15l-4.16-9.31v9.31h-1.64v-12.46h1.76l4.61,10.3,4.61-10.3h1.75Z"/>
        <path class="cls-2" d="M163.84,302.38c-.75-.42-1.34-1.02-1.76-1.79-.43-.77-.64-1.67-.64-2.69s.22-1.9.66-2.67c.44-.77,1.03-1.37,1.79-1.78.76-.41,1.6-.62,2.54-.62s1.78.21,2.54.62c.76.41,1.35,1.01,1.79,1.77s.66,1.66.66,2.68-.23,1.92-.68,2.69c-.45.77-1.06,1.37-1.83,1.79-.77.42-1.62.63-2.56.63s-1.76-.21-2.51-.63ZM168.01,301.16c.52-.28.93-.69,1.25-1.24.32-.55.48-1.22.48-2.02s-.16-1.46-.47-2.02-.72-.96-1.22-1.23c-.5-.27-1.05-.4-1.64-.4s-1.15.13-1.65.4c-.5.27-.9.68-1.2,1.23s-.45,1.22-.45,2.02.15,1.48.44,2.03c.29.55.69.96,1.18,1.23.49.27,1.03.4,1.62.4s1.14-.14,1.66-.41Z"/>
        <path class="cls-2" d="M175.36,302.38c-.75-.42-1.34-1.02-1.76-1.79-.43-.77-.64-1.67-.64-2.69s.22-1.9.66-2.67c.44-.77,1.03-1.37,1.79-1.78.76-.41,1.6-.62,2.54-.62s1.78.21,2.54.62c.76.41,1.35,1.01,1.79,1.77s.66,1.66.66,2.68-.23,1.92-.68,2.69c-.45.77-1.06,1.37-1.83,1.79-.77.42-1.62.63-2.56.63s-1.76-.21-2.51-.63ZM179.53,301.16c.52-.28.93-.69,1.25-1.24.32-.55.48-1.22.48-2.02s-.16-1.46-.47-2.02-.72-.96-1.22-1.23c-.5-.27-1.05-.4-1.64-.4s-1.15.13-1.65.4c-.5.27-.9.68-1.2,1.23s-.45,1.22-.45,2.02.15,1.48.44,2.03c.29.55.69.96,1.18,1.23.49.27,1.03.4,1.62.4s1.14-.14,1.66-.41Z"/>
        <path class="cls-2" d="M185.09,295.23c.41-.76.97-1.35,1.68-1.77.71-.42,1.52-.63,2.4-.63.77,0,1.48.18,2.14.53.66.35,1.16.82,1.51,1.4v-5.22h1.66v13.32h-1.66v-1.85c-.32.59-.8,1.07-1.44,1.45-.64.38-1.38.57-2.23.57s-1.67-.22-2.39-.65c-.71-.43-1.27-1.04-1.68-1.82-.41-.78-.61-1.67-.61-2.66s.2-1.89.61-2.66ZM192.38,295.96c-.3-.55-.71-.98-1.21-1.27-.51-.29-1.07-.44-1.68-.44s-1.17.14-1.67.43-.91.71-1.21,1.26-.45,1.2-.45,1.94.15,1.41.45,1.97.7.98,1.21,1.28,1.06.44,1.67.44,1.17-.15,1.68-.44c.51-.29.92-.72,1.21-1.28s.45-1.21.45-1.95-.15-1.39-.45-1.94Z"/>
        <path class="cls-2" d="M209.6,296.95c.38.3.68.67.9,1.12.22.44.33.92.33,1.42,0,.64-.16,1.21-.49,1.72-.32.51-.79.91-1.41,1.21-.62.29-1.35.44-2.19.44h-4.68v-12.55h4.5c.85,0,1.58.14,2.18.42.6.28,1.05.66,1.35,1.14.3.48.45,1.02.45,1.62,0,.74-.2,1.36-.6,1.85-.4.49-.93.84-1.59,1.05.46.07.87.26,1.25.56ZM203.7,295.72h2.75c.77,0,1.36-.18,1.78-.54.42-.36.63-.86.63-1.49s-.21-1.13-.63-1.49c-.42-.36-1.03-.54-1.82-.54h-2.72v4.07ZM208.51,300.93c.46-.38.68-.92.68-1.6s-.24-1.24-.72-1.65c-.48-.4-1.12-.6-1.93-.6h-2.84v4.43h2.9c.82,0,1.45-.19,1.91-.58Z"/>
        <path class="cls-2" d="M214.89,302.38c-.75-.42-1.34-1.02-1.76-1.79-.43-.77-.64-1.67-.64-2.69s.22-1.9.66-2.67c.44-.77,1.03-1.37,1.79-1.78.76-.41,1.6-.62,2.54-.62s1.78.21,2.54.62c.76.41,1.35,1.01,1.79,1.77.44.77.66,1.66.66,2.68s-.22,1.92-.67,2.69c-.45.77-1.06,1.37-1.83,1.79s-1.62.63-2.56.63-1.76-.21-2.51-.63ZM219.06,301.16c.52-.28.93-.69,1.25-1.24.32-.55.48-1.22.48-2.02s-.16-1.46-.47-2.02c-.31-.55-.72-.96-1.22-1.23-.5-.27-1.05-.4-1.64-.4s-1.15.13-1.65.4c-.5.27-.9.68-1.2,1.23s-.45,1.22-.45,2.02.15,1.48.44,2.03c.29.55.69.96,1.18,1.23.49.27,1.03.4,1.62.4s1.14-.14,1.66-.41Z"/>
        <path class="cls-2" d="M224.62,295.23c.41-.76.97-1.35,1.68-1.77.71-.42,1.51-.63,2.38-.63s1.61.19,2.25.56,1.11.84,1.42,1.4v-1.8h1.66v9.86h-1.66v-1.84c-.32.58-.81,1.05-1.45,1.43-.64.38-1.39.57-2.24.57s-1.67-.22-2.38-.65c-.71-.43-1.27-1.04-1.67-1.82-.41-.78-.61-1.67-.61-2.66s.2-1.89.61-2.66ZM231.91,295.96c-.3-.55-.71-.98-1.21-1.27s-1.07-.44-1.68-.44-1.17.14-1.67.43-.91.71-1.21,1.26-.45,1.2-.45,1.94.15,1.41.45,1.97.7.98,1.21,1.28,1.06.44,1.67.44,1.17-.15,1.68-.44.92-.72,1.21-1.28.45-1.21.45-1.95-.15-1.39-.45-1.94Z"/>
        <path class="cls-2" d="M239.65,293.28c.53-.31,1.19-.47,1.95-.47v1.69h-.43c-1.84,0-2.75,1-2.75,2.99v5.36h-1.64v-9.86h1.64v1.6c.29-.56.7-1,1.23-1.31Z"/>
        <path class="cls-2" d="M243.5,295.23c.41-.76.97-1.35,1.68-1.77.71-.42,1.51-.63,2.4-.63.77,0,1.48.18,2.14.53.66.35,1.16.82,1.51,1.4v-5.22h1.66v13.32h-1.66v-1.85c-.32.59-.8,1.07-1.44,1.45-.64.38-1.38.57-2.23.57s-1.67-.22-2.38-.65c-.71-.43-1.28-1.04-1.68-1.82-.41-.78-.61-1.67-.61-2.66s.2-1.89.61-2.66ZM250.79,295.96c-.3-.55-.71-.98-1.21-1.27s-1.07-.44-1.68-.44-1.17.14-1.67.43-.91.71-1.21,1.26-.45,1.2-.45,1.94.15,1.41.45,1.97.7.98,1.21,1.28,1.06.44,1.67.44,1.17-.15,1.68-.44.92-.72,1.21-1.28.45-1.21.45-1.95-.15-1.39-.45-1.94Z"/>
        <path class="cls-2" d="M255.14,306.2v-.16c1.24-1.27,2.17-2.75,2.82-4.45.64-1.69.96-3.47.96-5.33s-.34-3.75-1.02-5.52c-.68-1.77-1.69-3.28-3.03-4.54v-.16h1.71c1.26,1.16,2.23,2.64,2.91,4.44s1.02,3.72,1.02,5.79-.32,3.89-.96,5.63c-.64,1.74-1.54,3.17-2.69,4.3h-1.71Z"/>
      </g>
      <text class="cls-1" transform="translate(37.34 69.33)"><tspan x="0" y="0">Prewedding</tspan></text>
    </g>
  </g>
</svg>